<svg width="1920" height="1200" viewBox="0 0 1920 1200" fill="none" xmlns="http://www.w3.org/2000/svg">
<g opacity="0.2">
<path d="M330.013 999.064C338.661 999.064 346.921 997.788 354.801 995.231C392.941 982.878 422.69 939.631 443.209 866.701C465.827 786.315 478.189 666.729 479.943 511.256C483.067 234.198 508.183 94.3363 556.717 83.6841C617.59 70.3232 709.341 263.885 798.069 451.082C887.95 640.713 973.013 820.197 1034.82 820.18C1037.06 820.18 1039.27 819.942 1041.43 819.466C1090.9 808.599 1116.48 668.179 1119.62 390.178C1121.2 250.237 1133.23 141.855 1155.4 68.0464C1163.48 41.1163 1173.04 18.4196 1184.01 0H1181.66C1140.99 69.2369 1119.98 198.291 1117.82 390.155C1114.69 667.197 1089.58 807.05 1041.04 817.708C980.233 831.116 888.419 637.511 799.69 450.309C706.561 253.83 618.584 68.2418 556.33 81.919C506.853 92.7821 481.277 233.215 478.14 511.232C476.387 666.547 464.047 785.979 441.469 866.217C421.125 938.523 391.779 981.355 354.241 993.518C306.008 1009.15 243.08 976.05 161.852 892.327C108.59 837.426 52.7428 766.183 0 695.932V698.929C52.3512 768.602 107.712 839.111 160.561 893.581C229.16 964.279 284.924 999.069 330.013 999.064Z" fill="url(#paint0_linear_204_34)"/>
<path d="M1701.47 313.987C1770.73 396.553 1836.17 474.543 1893.13 529.009C1902.51 537.977 1911.45 546.088 1919.99 553.406V550.861C1857.25 496.865 1781.32 406.362 1702.85 312.83C1620.4 214.565 1535.17 112.946 1455.12 40.0853C1438.57 25.0133 1422.72 11.6678 1407.55 4.87989e-09H1404.34C1498.15 71.6229 1603.77 197.521 1701.47 313.987Z" fill="url(#paint1_linear_204_34)"/>
<path d="M1722.12 324.494C1638.61 228.362 1552.25 128.955 1471.03 57.9701C1443.9 34.2617 1418.65 14.9743 1395.14 4.87989e-09H1391.52C1493.46 64.0432 1611.96 200.428 1720.77 325.676C1790.97 406.481 1857.27 482.799 1915.05 535.876C1916.71 537.406 1918.36 538.898 1920 540.372V537.802C1861.02 484.375 1792.58 405.593 1722.12 324.494Z" fill="url(#paint2_linear_204_34)"/>
<path d="M317.516 1008.29C326.826 1008.29 335.699 1006.9 344.149 1004.12C382.891 991.394 413.349 948.557 434.68 876.795C458.181 797.722 471.58 680.455 474.49 528.248C479.697 256.348 506.295 118.861 555.799 107.935C617.95 94.2373 710.069 283.659 799.15 466.857C889.238 652.139 974.51 827.523 1037.46 827.51C1039.83 827.506 1042.19 827.261 1044.5 826.745C1094.95 815.612 1122 677.567 1127.23 404.711C1129.85 267.871 1142.81 161.681 1165.76 89.0899C1177.89 50.7105 1193.08 20.9522 1211.15 0H1208.51C1156.74 61.1699 1129.44 194.69 1125.42 404.68C1120.22 676.577 1093.62 814.067 1044.11 824.993C981.916 838.702 889.848 649.269 800.767 466.071C707.266 273.788 618.964 92.1804 555.411 106.183C504.973 117.316 477.913 255.361 472.69 528.216C469.779 680.264 456.407 797.369 432.95 876.287C411.801 947.447 381.731 989.879 343.584 1002.41C294.301 1018.61 230.329 986.778 148.006 905.133C99.3404 856.861 48.6135 795.478 0 733.493V736.402C48.2167 797.825 98.4814 858.541 146.747 906.409C215.582 974.678 271.802 1008.29 317.516 1008.29Z" fill="url(#paint3_linear_204_34)"/>
<path d="M1740.33 337.014C1804.58 408.399 1865.59 476.146 1919.99 526.697V524.131C1865.51 473.385 1804.37 405.473 1741.67 335.812C1657.02 241.773 1569.5 144.535 1487.06 75.4089C1445.23 40.3321 1407.73 15.2674 1374.16 4.87989e-09H1369.55C1480.76 48.6536 1616.71 199.682 1740.33 337.014Z" fill="url(#paint4_linear_204_34)"/>
<path d="M132.602 919.135C201.679 985.014 258.339 1017.46 304.684 1017.46C314.698 1017.46 324.233 1015.94 333.304 1012.92C372.645 999.825 403.815 957.377 425.954 886.765C450.342 808.98 464.768 693.997 468.837 545.018C476.118 278.161 504.204 142.994 554.703 131.794C618.164 117.687 710.683 303.095 800.153 482.371C844.981 572.183 891.321 665.045 933.552 731.796C981.764 808.026 1018.01 840.468 1047.6 833.891C1099.02 822.489 1127.57 686.758 1134.88 418.958C1138.53 285.17 1152.41 181.137 1176.13 109.748C1193.97 56.0585 1217.93 19.2797 1247.51 0H1244.11C1175.88 46.5954 1139.49 184.236 1133.08 418.906C1125.79 685.76 1097.71 820.931 1047.21 832.131C983.735 846.211 891.234 660.83 801.763 481.561C756.935 391.749 710.592 298.875 668.366 232.129C620.148 155.907 583.91 123.461 554.315 130.03C502.895 141.436 474.345 277.166 467.035 544.967C462.969 693.783 448.571 808.597 424.236 886.226C402.279 956.26 371.493 998.312 332.735 1011.22C282.372 1027.99 217.314 997.444 133.844 917.836C89.8452 875.867 44.2415 823.61 0 769.791V772.629C43.846 825.898 89.0016 877.556 132.602 919.135Z" fill="url(#paint5_linear_204_34)"/>
<path d="M118.142 931.743C187.437 995.247 244.527 1026.54 291.486 1026.54C302.256 1026.54 312.503 1024.89 322.237 1021.61C362.171 1008.13 394.054 966.061 416.996 896.566C442.259 820.042 457.709 707.311 462.921 561.503C472.294 299.597 501.885 166.698 553.393 155.209C618.166 140.762 711.155 322.152 801.065 497.579C846.102 585.457 892.677 676.332 935.223 741.565C983.82 816.051 1020.51 847.609 1050.71 840.869C1103.12 829.181 1133.18 695.727 1142.57 432.878C1147.25 302.096 1162.03 200.187 1186.52 129.971C1208.88 65.888 1240.13 25.9376 1279.43 11.2243C1402.84 -34.9778 1592.68 168.498 1760.19 348.005C1816.65 408.523 1870.66 466.362 1919.99 512.807V510.246C1870.59 463.674 1816.65 405.868 1761.5 346.776C1675.68 254.798 1586.93 159.689 1503.22 92.3951C1407.91 15.7842 1334.51 -11.322 1278.81 9.5402C1194.99 40.9196 1149.84 179.373 1140.77 432.819C1131.41 694.728 1101.82 827.627 1050.31 839.112C985.569 853.571 892.568 672.174 802.662 496.754C757.621 408.872 711.05 317.993 668.492 252.761C619.894 178.275 583.2 146.726 552.999 153.449C500.577 165.14 470.522 298.595 461.122 561.44C455.916 707.077 440.492 819.643 415.285 896C392.529 964.927 361.03 1006.61 321.657 1019.9C270.197 1037.27 204.018 1008.01 119.36 930.416C80.1125 894.448 39.6524 850.621 0 804.783V807.526C39.257 852.841 79.2882 896.133 118.142 931.743Z" fill="url(#paint6_linear_204_34)"/>
<path d="M103.344 944.239C172.844 1005.4 230.358 1035.56 277.923 1035.56C289.512 1035.56 300.521 1033.77 310.959 1030.19C351.491 1016.33 384.082 974.615 407.829 906.218C433.962 830.931 450.439 720.416 456.79 577.744C468.241 320.675 499.344 189.984 551.878 178.204C618.064 163.349 711.489 340.849 801.861 512.491C847.128 598.477 893.956 687.399 936.863 751.132C985.857 823.917 1023.01 854.598 1053.82 847.689C1107.27 835.712 1138.82 704.474 1150.32 446.488C1156.01 318.68 1171.69 218.86 1196.95 149.802C1220 86.7296 1251.89 47.0814 1291.72 31.9554C1417.82 -15.9321 1610.41 183.071 1780.34 358.649C1829.17 409.106 1876.17 457.648 1919.99 498.955V496.402C1876.14 455.044 1829.33 406.679 1781.63 357.396C1694.58 267.441 1604.56 174.417 1519.51 108.935C1422.71 34.3902 1347.99 8.65574 1291.09 30.2713C1206.19 62.5108 1159.56 198.629 1148.53 446.409C1137.08 703.47 1105.98 834.157 1053.44 845.931C987.307 860.777 893.831 683.293 803.462 511.652C758.187 425.662 711.359 336.744 668.46 273.011C619.47 200.23 582.301 169.545 551.494 176.451C498.054 188.431 466.491 319.673 455 577.67C448.657 720.172 432.216 830.513 406.134 905.637C382.585 973.479 350.368 1014.82 310.385 1028.49C257.776 1046.5 190.445 1018.49 104.539 942.887C70.1423 912.619 34.8644 876.548 0 838.409V841.078C34.4689 878.721 69.3346 914.307 103.344 944.239Z" fill="url(#paint7_linear_204_34)"/>
<path d="M1535.92 125.054C1437.56 52.5502 1361.48 28.1835 1303.34 50.5833C1217.39 83.688 1169.29 217.514 1156.29 459.704C1142.76 712.02 1110.14 840.542 1056.57 852.623C989.05 867.846 895.03 694.211 804.155 526.289C758.614 442.157 711.538 355.159 668.254 292.88C618.846 221.78 581.201 191.959 549.753 199.047C495.279 211.326 462.2 340.399 448.615 593.638C441.139 733.056 423.689 841.216 396.743 915.123C372.395 981.91 339.47 1022.91 298.875 1036.98C245.093 1055.64 176.568 1028.89 89.3637 955.252C59.9383 930.396 29.8876 901.461 0 870.657V873.242C29.4999 903.586 59.15 932.084 88.2145 956.624C157.901 1015.47 215.832 1044.51 263.99 1044.51C276.463 1044.5 288.283 1042.56 299.473 1038.67C340.602 1024.42 373.904 983.054 398.445 915.729C425.45 841.659 442.941 733.317 450.425 593.724C463.959 341.405 496.584 212.875 550.162 200.798C617.73 185.582 711.698 359.214 802.585 527.14C848.113 611.267 895.198 698.26 938.473 760.536C987.886 831.645 1025.56 861.442 1056.97 854.376C1111.44 842.094 1144.52 713.024 1158.1 459.794C1164.8 334.919 1181.38 237.157 1207.38 169.232C1231.13 107.156 1263.64 67.7996 1303.99 52.2584C1432.89 2.62258 1628.34 197.237 1800.79 368.954C1842.07 410.055 1882.07 449.874 1919.99 485.342V482.812C1882.12 447.384 1842.4 407.843 1802.06 367.674C1713.71 279.71 1622.35 188.748 1535.92 125.054Z" fill="url(#paint8_linear_204_34)"/>
<path d="M1552.5 140.73C1452.5 70.2396 1375.01 47.2536 1315.61 70.4543C1228.61 104.434 1179.07 236.006 1164.14 472.684C1148.52 720.349 1114.38 846.767 1059.73 859.148C990.709 874.748 896.206 704.916 804.781 540.633C758.971 458.325 711.601 373.215 667.933 312.383C618.077 242.92 579.905 213.955 547.844 221.233C492.321 233.82 457.709 360.773 442.032 609.347C433.432 745.718 414.975 851.738 387.17 924.456C362.03 990.204 328.393 1030.88 287.192 1045.36C232.22 1064.68 162.445 1039.21 73.8826 967.507C49.5161 947.775 24.7478 925.372 0 901.461V903.959C24.3639 927.445 48.7521 949.472 72.7514 968.902C142.609 1025.46 200.934 1053.39 249.675 1053.39C263.09 1053.39 275.785 1051.27 287.783 1047.05C329.506 1032.39 363.508 991.361 388.846 925.086C416.714 852.198 435.214 746.008 443.827 609.452C459.448 361.783 493.6 235.37 548.235 222.984C617.186 207.34 711.767 377.217 803.2 541.503C849.005 623.808 896.376 708.918 940.043 769.75C989.9 839.208 1028.06 868.169 1060.13 860.898C1115.65 848.318 1150.27 721.366 1165.94 472.788C1173.63 350.8 1191.09 255.068 1217.83 188.257C1242.29 127.156 1275.41 88.0859 1316.27 72.1242C1448.01 20.6642 1646.47 210.995 1821.57 378.916C1855.36 411.323 1888.31 442.904 1919.99 472.088V469.605C1888.44 440.541 1855.83 409.277 1822.81 377.616C1733.12 291.6 1640.36 202.656 1552.5 140.73Z" fill="url(#paint9_linear_204_34)"/>
<path d="M1569.23 156.001C1467.52 87.5061 1388.58 65.8957 1327.89 89.9281C1239.86 124.776 1188.89 254.131 1172.03 485.375C1154.32 728.485 1118.63 852.837 1062.91 865.54C992.415 881.579 897.307 715.421 805.296 554.723C759.188 474.212 711.514 390.948 667.439 331.535C617.115 263.702 578.432 235.586 545.706 243.047C489.119 255.948 452.963 380.83 435.183 624.829C425.466 758.204 406.004 862.11 377.352 933.654C351.424 998.396 317.082 1038.77 275.275 1053.65C219.068 1073.67 148.007 1049.47 58.0342 979.671C38.8564 964.796 19.4462 948.323 0 930.807V933.225C19.0738 950.367 38.1155 966.496 56.9325 981.093C126.94 1035.4 185.639 1062.23 234.945 1062.23C249.374 1062.22 263.007 1059.92 275.88 1055.35C318.189 1040.28 352.893 999.564 379.022 934.335C407.747 862.605 427.248 758.523 436.977 624.966C454.692 381.856 490.39 257.505 546.106 244.807C616.59 228.75 711.713 394.92 803.733 555.627C849.832 636.138 897.507 719.394 941.586 778.806C991.902 846.64 1030.61 874.772 1063.31 867.295C1119.9 854.394 1156.05 729.504 1173.83 485.501C1182.51 366.363 1200.84 272.633 1228.31 206.921C1253.45 146.78 1287.17 107.979 1328.54 91.6006C1463.18 38.2765 1664.8 224.365 1842.68 388.544C1869.02 412.863 1894.85 436.69 1919.99 459.356V456.921C1895.06 434.453 1869.6 410.951 1843.9 387.22C1752.79 303.129 1658.58 216.175 1569.23 156.001Z" fill="url(#paint10_linear_204_34)"/>
<path d="M1865.3 396.498C1772.73 314.293 1677 229.293 1586.1 170.852C1482.63 104.339 1402.19 84.1006 1340.15 108.989C1251.13 144.71 1198.74 271.885 1179.99 497.776C1160.18 736.41 1122.94 858.747 1066.12 871.775C994.114 888.252 898.375 725.729 805.727 568.547C759.303 489.787 711.303 408.352 666.801 350.33C615.994 284.099 576.785 256.81 543.373 264.47C485.697 277.696 447.992 400.556 428.103 640.078C417.276 770.495 396.829 872.321 367.325 942.723C340.613 1006.47 305.566 1046.55 263.166 1061.83C205.686 1082.57 133.3 1059.63 41.8622 991.733C28.004 981.442 14.0251 970.345 0.00898799 958.649V960.992C13.6656 972.358 27.2837 983.154 40.7901 993.184C110.912 1045.26 169.976 1071.01 219.828 1071.01C235.354 1071 249.985 1068.51 263.773 1063.54C306.673 1048.07 342.067 1007.66 368.986 943.43C398.562 872.853 419.057 770.846 429.898 640.238C449.713 401.596 486.962 279.258 543.771 266.231C615.707 249.735 711.528 412.277 804.177 569.463C850.596 648.218 898.6 729.654 943.103 787.672C993.91 853.911 1033.13 881.194 1066.53 873.532C1124.2 860.306 1161.91 737.45 1181.79 497.924C1191.45 381.588 1210.63 289.829 1238.83 225.194C1264.64 165.991 1298.97 127.456 1340.82 110.659C1478.49 55.4132 1683.37 237.338 1864.11 397.846C1883.03 414.632 1901.67 431.189 1920 447.272V444.87C1901.95 429.043 1883.69 412.824 1865.3 396.498Z" fill="url(#paint11_linear_204_34)"/>
<path d="M1603.11 185.322C1497.81 120.764 1415.8 101.908 1352.41 127.687C1262.41 164.267 1208.63 289.297 1188 509.908C1166.09 744.166 1127.28 864.537 1069.35 877.889C995.885 894.834 899.383 735.871 806.06 582.134C759.296 505.102 710.943 425.447 665.993 368.803C615.381 305.029 574.436 277.784 540.811 285.539C482.026 299.098 442.757 419.984 420.761 655.113C408.834 782.621 387.405 882.396 357.062 951.677C329.574 1014.45 293.829 1054.25 250.832 1069.95C192.046 1091.42 118.284 1069.76 25.3153 1003.72C16.9115 997.753 8.47054 991.488 0 985.003V987.27C8.12129 993.471 16.2143 999.456 24.2766 1005.19C94.4984 1055.06 153.897 1079.74 204.282 1079.74C220.972 1079.74 236.672 1077.03 251.445 1071.63C294.927 1055.76 331.016 1015.63 358.713 952.39C389.127 882.94 410.609 782.969 422.555 655.28C444.464 421.022 483.28 300.651 541.216 287.295C614.704 270.355 711.194 429.325 804.52 583.062C851.279 660.093 899.628 739.741 944.579 796.387C995.191 860.16 1036.15 887.396 1069.76 879.643C1128.53 866.084 1167.8 745.2 1189.79 510.069C1200.41 396.504 1220.45 306.692 1249.35 243.116C1275.83 184.842 1310.73 146.568 1353.09 129.35C1493.85 72.1294 1702.12 249.944 1885.87 406.832C1897.35 416.632 1908.72 426.333 1920 435.923V433.561C1909.06 424.267 1898.07 414.884 1887.04 405.459C1792.93 325.12 1695.63 242.043 1603.11 185.322Z" fill="url(#paint12_linear_204_34)"/>
<path d="M1620.3 199.381C1513.1 136.765 1429.48 119.293 1364.68 145.971C1273.72 183.412 1218.58 306.32 1196.08 521.734C1172.06 751.698 1131.67 870.15 1072.61 883.848C997.534 901.24 900.324 745.791 806.289 595.439C759.173 520.109 710.453 442.21 665.028 386.92C613.887 324.665 572.342 298.265 538.044 306.234C478.138 320.13 437.298 439.086 413.191 669.914C400.171 794.547 377.764 892.313 346.592 960.491C318.324 1022.31 281.89 1061.83 238.299 1077.95C178.17 1100.18 102.984 1079.8 8.43073 1015.61C5.62263 1013.71 2.81581 1011.76 0.001284 1009.81V1012.01C2.47555 1013.72 4.9511 1015.43 7.42151 1017.11C77.7102 1064.81 137.419 1088.44 188.303 1088.43C206.249 1088.43 223.101 1085.5 238.92 1079.64C282.977 1063.35 319.754 1023.52 348.223 961.247C379.481 892.89 401.936 794.934 414.975 670.11C438.995 440.148 479.383 321.694 538.442 307.997C613.462 290.596 710.721 446.054 804.76 596.405C851.876 671.735 900.602 749.634 946.015 804.924C997.163 867.175 1038.72 893.576 1073.01 885.61C1132.91 871.711 1173.76 752.754 1197.86 521.928C1209.43 411.091 1230.31 323.186 1259.91 260.657C1287.06 203.29 1322.53 165.266 1365.36 147.64C1509.29 88.3905 1721.1 262.163 1907.98 415.473C1912 418.771 1916 422.05 1919.99 425.329V422.997C1916.37 420.024 1912.75 417.058 1909.13 414.077C1813.43 335.575 1714.49 254.401 1620.3 199.381Z" fill="url(#paint13_linear_204_34)"/>
<path d="M1376.94 163.898C1333.24 182.109 1296.89 220.179 1268.89 277.046C1238.52 338.727 1216.77 424.947 1204.22 533.299C1178.09 759.064 1136.12 875.633 1075.9 889.684C999.278 907.545 901.236 755.54 806.441 608.515C711.309 460.97 612.946 308.414 535.064 326.573C474.014 340.813 431.585 457.894 405.356 684.5C391.255 806.306 367.885 902.094 335.891 969.185C306.855 1030.07 269.732 1069.32 225.557 1085.86C165.943 1108.17 92.0909 1090.9 0 1033.04V1035.13C66.1028 1076.52 122.921 1097.07 171.882 1097.07C191.167 1097.07 209.238 1093.89 226.185 1087.55C270.812 1070.84 308.266 1031.28 337.509 969.96C369.59 902.69 393.02 806.708 407.141 684.703C433.271 458.951 475.248 342.38 535.466 328.323C612.118 310.458 710.132 462.467 804.927 609.496C900.058 757.033 998.393 909.62 1076.31 891.434C1137.36 877.19 1179.78 760.117 1206.01 533.503C1218.53 425.359 1240.23 339.336 1270.51 277.838C1298.3 221.371 1334.36 183.593 1377.64 165.559C1522.14 105.35 1732.46 267.865 1920 415.551V413.268C1826.27 339.457 1729.78 264.281 1637.65 213.068C1528.47 152.377 1443.19 136.29 1376.94 163.898Z" fill="url(#paint14_linear_204_34)"/>
<path d="M1389.21 181.453C1345.07 200.063 1308.17 237.876 1279.53 293.848C1248.49 354.521 1225.91 438.883 1212.44 544.596C1184.19 766.23 1140.62 880.976 1079.22 895.383C1000.94 913.755 902.086 765.105 806.487 621.351C710.556 477.09 611.357 327.919 531.854 346.569C469.647 361.17 425.624 476.411 397.268 698.877C382.095 817.904 357.766 911.73 324.957 977.764C295.16 1037.73 257.361 1076.73 212.604 1093.68C155.45 1115.33 85.7005 1102.58 0 1054.69V1056.75C58.7224 1089.43 110.04 1105.68 155.007 1105.68C175.728 1105.68 195.11 1102.23 213.237 1095.36C258.433 1078.24 296.565 1038.95 326.568 978.565C359.469 912.349 383.858 818.326 399.055 699.104C427.301 477.478 470.877 362.736 532.264 348.33C610.541 329.962 709.396 478.604 804.991 622.354C895.431 758.366 988.772 898.738 1065.78 898.735C1070.46 898.727 1075.08 898.211 1079.63 897.14C1141.84 882.543 1185.88 767.301 1214.23 544.828C1227.68 439.324 1250.18 355.164 1281.13 294.677C1309.57 239.09 1346.17 201.554 1389.9 183.119C1531.88 123.262 1735.02 267.342 1919.99 406.672V404.412C1831.76 337.958 1741.62 272.064 1655.16 226.372C1543.94 167.593 1456.95 152.897 1389.21 181.453Z" fill="url(#paint15_linear_204_34)"/>
<path d="M1401.47 198.651C1356.9 217.653 1319.46 255.217 1290.2 310.308C1258.49 369.979 1235.12 452.516 1220.72 555.627C1190.35 773.221 1145.17 886.175 1082.58 900.946C1002.6 919.817 902.891 774.492 806.458 633.954C709.675 492.911 609.594 347.06 528.435 366.224C465.044 381.194 419.412 494.635 388.918 713.046C372.691 829.325 347.417 921.236 313.803 986.219C283.25 1045.28 244.774 1084.04 199.443 1101.41C144.921 1122.3 79.3601 1113.6 0 1074.78V1076.74C51.3535 1101.76 97.0048 1114.25 137.655 1114.25C159.917 1114.25 180.689 1110.52 200.084 1103.09C245.842 1085.55 284.639 1046.52 315.399 987.048C349.108 921.879 374.446 829.775 390.704 713.293C421.083 495.708 466.263 382.754 528.846 367.981C608.827 349.101 708.53 494.43 804.971 634.973C895.961 767.571 989.845 904.412 1068.21 904.404C1073.2 904.404 1078.13 903.849 1082.99 902.699C1146.38 887.738 1192.02 774.288 1222.51 555.873C1236.87 452.97 1260.18 370.635 1291.78 311.15C1320.85 256.431 1358 219.146 1402.18 200.31C1541.61 140.873 1737.87 268.032 1919.99 398.679V396.455C1837.42 337.212 1753.59 279.831 1672.85 239.312C1559.5 182.429 1470.73 169.124 1401.47 198.651Z" fill="url(#paint16_linear_204_34)"/>
<path d="M1413.74 215.501C1368.75 234.88 1330.78 272.193 1300.9 326.412C1268.55 385.095 1244.38 465.83 1229.09 566.378C1196.58 780.011 1149.77 891.228 1085.98 906.381C1004.26 925.779 903.652 783.714 806.32 646.322C708.646 508.44 607.646 365.866 524.782 385.555C460.195 400.89 412.94 512.582 380.309 727.021C363.029 840.606 336.815 930.617 302.409 994.58C271.107 1052.75 231.962 1091.26 186.065 1109.04C134.349 1129.07 73.0762 1123.95 0 1093.28V1095.23C44.0155 1113.63 83.7912 1122.79 119.812 1122.79C143.713 1122.79 165.967 1118.76 186.711 1110.73C233.024 1092.79 272.482 1054 303.99 995.432C338.503 931.298 364.775 841.086 382.091 727.295C414.595 513.666 461.407 402.456 525.199 387.308C606.9 367.91 707.523 509.979 804.856 647.37C896.408 776.606 990.883 909.969 1070.61 909.961C1075.93 909.961 1081.2 909.362 1086.39 908.13C1150.98 892.794 1198.23 781.09 1230.87 566.648C1246.13 466.313 1270.22 385.777 1302.48 327.276C1332.17 273.421 1369.83 236.37 1414.44 217.149C1551.31 158.184 1740.97 269.818 1919.99 391.614V389.418C1843.21 337.165 1765.69 287.569 1690.71 251.88C1575.17 196.884 1484.57 184.986 1413.74 215.501Z" fill="url(#paint17_linear_204_34)"/>
<path d="M1426.01 232.001C1380.62 251.757 1342.15 288.821 1311.65 342.176C1278.67 399.884 1253.73 478.85 1237.53 576.877C1202.89 786.637 1154.44 896.149 1089.42 911.683C1005.97 931.632 904.366 792.755 806.098 658.468C707.483 523.696 605.517 384.354 520.903 404.558C455.097 420.278 406.206 530.261 371.429 740.806C353.106 851.73 325.975 939.893 290.777 1002.83C258.735 1060.14 218.932 1098.42 172.473 1116.6C123.752 1135.68 66.8552 1133.64 0 1110.23V1112.11C36.6864 1124.89 70.4273 1131.31 101.467 1131.31C127.121 1131.31 150.958 1126.96 173.129 1118.27C219.989 1099.93 260.097 1061.38 292.348 1003.71C327.646 940.582 354.848 852.229 373.206 741.096C407.853 531.347 456.303 421.839 521.321 406.307C604.776 386.372 706.383 525.238 804.646 659.526C896.796 785.463 991.872 915.41 1072.98 915.393C1078.67 915.393 1084.3 914.75 1089.83 913.427C1155.64 897.711 1204.53 787.719 1239.31 577.17C1270.68 387.245 1331.98 274.882 1426.73 233.651C1561.01 175.214 1744.31 272.615 1919.99 385.493V383.321C1849.14 337.775 1777.91 295.28 1708.77 264.107C1590.95 210.977 1498.46 200.475 1426.01 232.001Z" fill="url(#paint18_linear_204_34)"/>
<path d="M1438.3 248.184C1392.52 268.297 1353.54 305.116 1322.44 357.622C1288.83 414.37 1263.14 491.591 1246.07 587.153C1209.28 793.098 1159.17 900.946 1092.9 916.871C1007.62 937.368 905.025 801.642 805.78 670.4C706.185 538.689 603.204 402.508 516.804 423.258C449.763 439.366 399.221 547.69 362.289 754.417C342.938 862.728 314.892 949.052 278.918 1011C246.144 1067.44 205.688 1105.49 158.674 1124.08C113.138 1142.09 60.7074 1142.66 0.00898799 1125.62V1127.47C29.4061 1135.68 56.8978 1139.82 82.6124 1139.82C110.144 1139.81 135.661 1135.12 159.335 1125.76C206.733 1107.02 247.491 1068.72 280.474 1011.91C316.551 949.782 344.673 863.261 364.06 754.743C400.853 548.793 450.956 440.942 517.225 425.021C602.47 404.54 705.101 540.246 804.343 671.485C903.937 803.199 1006.92 939.365 1093.32 918.63C1160.37 902.522 1210.9 794.202 1247.84 587.471C1280.93 402.256 1343.47 291.82 1439.03 249.844C1570.71 191.993 1747.85 276.347 1919.99 380.317V378.216C1747.74 274.255 1570.49 190.116 1438.3 248.184Z" fill="url(#paint19_linear_204_34)"/>
<path d="M1450.6 264.019C1404.43 284.476 1364.96 321.045 1333.27 372.711C1299.06 428.507 1272.62 504.025 1254.68 597.144C1215.73 799.368 1163.96 905.601 1096.43 921.924C1009.32 942.975 905.631 810.349 805.364 682.101C704.74 553.396 600.692 420.322 512.466 441.644C444.172 458.148 391.971 564.842 352.877 767.826C332.513 873.568 303.555 958.093 266.817 1019.06C233.314 1074.67 192.208 1112.48 144.649 1131.46C102.482 1148.3 54.6123 1151 0.00513599 1139.45V1141.3C22.1477 1145.96 43.1937 1148.29 63.21 1148.29C92.7419 1148.29 120.04 1143.23 145.318 1133.13C193.251 1114 234.648 1075.93 268.358 1019.99C305.206 958.845 334.239 874.115 354.644 768.167C393.592 565.945 445.354 459.71 512.889 443.389C599.975 422.349 703.671 554.954 803.94 683.204C897.361 802.687 993.712 925.94 1077.64 925.932C1084.11 925.932 1090.53 925.203 1096.85 923.672C1165.15 907.168 1217.36 800.47 1256.45 597.482C1291.23 416.901 1354.98 308.36 1451.33 265.665C1580.37 208.492 1751.57 280.902 1920 376.074V374.008C1751.46 278.862 1580.14 206.62 1450.6 264.019Z" fill="url(#paint20_linear_204_34)"/>
<path d="M1462.92 279.529C1416.38 300.319 1376.42 336.634 1344.17 387.475C1309.36 442.337 1282.18 516.163 1263.39 606.904C1222.28 805.472 1168.84 910.129 1100.01 926.859C1011.03 948.49 906.218 818.912 804.869 693.609C703.164 567.857 598.003 437.833 507.9 459.733C438.331 476.646 384.452 581.753 343.185 781.07C301.837 980.772 232.242 1097.78 130.414 1138.78C91.8033 1154.32 48.5878 1158.68 0.010272 1151.76V1153.58C14.9149 1155.69 29.3355 1156.76 43.2618 1156.76C74.9239 1156.76 104.11 1151.32 131.087 1140.45C179.541 1120.94 221.571 1083.11 256.004 1028C293.605 967.815 323.533 884.865 344.942 781.437C386.056 582.873 439.5 478.217 508.323 461.487C597.313 439.856 702.12 569.434 803.472 694.744C905.173 820.492 1010.34 950.489 1100.44 928.612C1170.01 911.708 1223.89 806.595 1265.16 607.27C1301.61 431.226 1366.53 324.558 1463.67 281.18C1590.04 224.733 1755.44 286.246 1920 372.788V370.758C1755.32 284.246 1589.76 222.883 1462.92 279.529Z" fill="url(#paint21_linear_204_34)"/>
<path d="M1475.27 294.732C1428.36 315.836 1387.93 351.896 1355.11 401.921C1319.72 455.855 1291.82 528.033 1272.2 616.434C1228.91 811.419 1173.78 914.541 1103.65 931.679C1012.7 953.892 906.747 827.317 804.27 704.903C701.441 582.062 595.131 455.054 503.083 477.532C432.225 494.854 376.655 598.412 333.204 794.141C289.917 989.141 218.847 1104.24 115.944 1146.02C81.0896 1160.17 42.6262 1165.69 0.003852 1162.56V1164.35C7.70527 1164.91 15.2924 1165.22 22.7293 1165.22C56.6551 1165.22 87.8537 1159.37 116.617 1147.69C165.599 1127.8 208.252 1090.21 243.395 1035.93C281.749 976.7 312.559 895.482 334.967 794.529C378.251 599.545 433.382 496.42 503.512 479.284C594.458 457.043 700.416 583.643 802.889 706.056C905.718 828.893 1012.03 955.91 1104.08 933.423C1174.93 916.105 1230.51 812.536 1273.95 616.822C1312.05 445.228 1378.13 340.407 1476.01 296.369C1599.67 240.73 1759.46 292.309 1919.99 370.442V368.444C1759.33 290.335 1599.37 238.892 1475.27 294.732Z" fill="url(#paint22_linear_204_34)"/>
<path d="M1487.64 309.611C1440.38 331.012 1399.49 366.819 1366.11 416.032C1330.15 469.054 1301.54 539.598 1281.09 625.712C1235.62 817.196 1178.78 918.818 1107.33 936.373C1014.39 959.188 907.223 835.567 803.578 716C699.576 596.02 592.047 471.954 498.031 495.048C425.85 512.793 368.581 614.844 322.937 807.045C277.729 997.435 205.211 1110.66 101.234 1153.19C70.3477 1165.82 36.7262 1172.06 0.003852 1171.87V1173.65C0.530291 1173.65 1.06572 1173.67 1.58831 1173.67C37.9216 1173.67 71.2504 1167.39 101.919 1154.87C151.41 1134.61 194.682 1097.25 230.529 1043.79C269.615 985.492 301.297 905.98 324.687 807.466C370.16 615.981 427.003 514.362 498.455 496.8C591.38 473.957 698.566 597.603 802.215 717.174C897.7 827.328 996.166 940.924 1084.39 940.909C1092.26 940.909 1100.06 940.005 1107.76 938.118C1179.93 920.381 1237.21 818.321 1282.84 626.117C1322.56 458.9 1389.79 355.893 1488.39 311.245C1609.3 256.482 1763.6 299.01 1919.99 369.012V367.041C1763.46 297.076 1608.98 254.662 1487.64 309.611Z" fill="url(#paint23_linear_204_34)"/>
<path d="M1500.05 324.161C1452.44 345.847 1411.1 381.39 1377.18 429.804C1340.66 481.918 1311.36 550.869 1290.11 634.735C1242.44 822.793 1183.88 922.95 1111.07 940.941C1016.15 964.41 907.658 843.658 802.781 726.886C697.551 609.714 588.731 488.574 492.724 512.286C419.213 530.444 360.224 631.028 312.384 819.784C265.283 1005.65 191.329 1117.03 86.2937 1160.29C59.5852 1171.29 30.8943 1177.76 0.003852 1179.71V1181.5C31.1318 1179.55 60.0488 1173.04 86.9793 1161.95C136.982 1141.36 180.864 1104.22 217.404 1051.56C257.223 994.188 289.764 916.352 314.128 820.22C361.791 632.173 420.35 532.013 493.149 514.031C588.106 490.552 696.563 611.305 801.44 728.084C906.676 845.245 1015.48 966.412 1111.5 942.692C1185.01 924.519 1244.01 823.939 1291.85 635.171C1333.14 472.228 1401.5 371.029 1500.8 325.794C1618.92 271.995 1767.86 306.312 1919.99 368.484V366.541C1767.71 304.393 1618.57 270.18 1500.05 324.161Z" fill="url(#paint24_linear_204_34)"/>
<path d="M1512.5 338.409C1464.56 360.356 1422.77 395.634 1388.3 443.264C1351.23 494.49 1321.26 561.876 1299.2 643.548C1249.34 828.24 1189.05 926.981 1114.87 945.397C1017.81 969.541 908.042 851.604 801.898 737.591C695.398 623.199 585.275 504.893 487.177 529.254C412.315 547.848 351.593 646.997 301.542 832.376C252.565 1013.81 177.189 1123.37 71.1117 1167.32C48.783 1176.58 25.1201 1182.84 0 1186.11V1187.91C25.3577 1184.62 49.258 1178.33 71.8012 1168.99C122.311 1148.06 166.803 1111.15 204.031 1059.3C244.571 1002.83 277.963 926.644 303.284 832.844C353.148 648.168 413.444 549.43 487.612 531.012C584.689 506.907 694.439 624.804 800.587 738.825C897.56 842.986 997.534 950.381 1088.69 950.377C1097.66 950.377 1106.53 949.338 1115.31 947.158C1190.17 928.567 1250.9 829.411 1300.95 644.029C1343.81 485.265 1413.26 385.834 1513.26 340.06C1628.53 287.283 1772.23 314.167 1919.99 368.85V366.932C1772.07 312.267 1628.17 285.467 1512.5 338.409Z" fill="url(#paint25_linear_204_34)"/>
<path d="M1525.01 352.364C1476.73 374.554 1434.5 409.556 1399.51 456.41C1361.9 506.756 1331.26 572.612 1308.43 652.139C1256.36 833.541 1194.3 930.887 1118.75 949.754C1019.53 974.503 908.398 859.413 800.924 748.112C693.093 636.431 581.596 520.956 481.376 545.976C405.14 565.007 342.672 662.768 290.401 844.832C239.562 1021.91 162.783 1129.69 55.6767 1174.31C37.9537 1181.69 19.4102 1187.29 0 1191.12V1192.94C19.6516 1189.09 38.4288 1183.45 56.3701 1175.97C107.38 1154.72 152.463 1118.05 190.382 1066.97C231.627 1011.41 265.862 936.834 292.131 845.332C344.209 663.931 406.253 566.585 481.813 547.729C581.014 522.971 692.16 638.065 799.629 749.373C907.467 861.047 1018.97 976.51 1119.18 951.51C1195.42 932.481 1257.89 834.718 1310.16 652.647C1354.56 497.966 1425.09 400.289 1525.75 354.015C1638.15 302.353 1776.69 322.544 1919.99 370.098V368.2C1776.52 320.648 1637.76 300.536 1525.01 352.364Z" fill="url(#paint26_linear_204_34)"/>
<path d="M176.46 1074.58C218.408 1019.89 253.473 946.902 280.674 857.638C334.973 679.463 398.784 583.466 475.757 564.163C577.157 538.738 689.724 651.07 798.58 759.709C897.121 858.05 998.684 959.424 1092.81 959.411C1103 959.411 1113.11 958.233 1123.11 955.72C1200.74 936.246 1264.97 839.856 1319.47 661.02C1365.4 510.332 1436.98 414.362 1538.32 367.631C1647.77 317.159 1781.23 331.353 1919.99 372.163V370.291C1781.05 329.485 1647.37 315.363 1537.57 365.998C1488.96 388.409 1446.31 423.138 1410.79 469.222C1372.65 518.704 1341.35 583.055 1317.75 660.496C1263.45 838.674 1199.64 934.668 1122.67 953.966C1021.26 979.387 908.705 867.063 799.853 758.428C690.643 649.435 577.717 536.738 475.32 562.408C397.686 581.878 333.452 678.272 278.954 857.104C226.284 1029.94 148.116 1135.96 39.985 1181.22C27.0847 1186.62 13.7555 1191.13 0 1194.74V1196.59C14.002 1192.93 27.5597 1188.37 40.6822 1182.87C92.1859 1161.32 137.865 1124.88 176.46 1074.58Z" fill="url(#paint27_linear_204_34)"/>
<path d="M1550.21 379.332C1501.28 401.946 1458.19 436.398 1422.16 481.721C1383.51 530.35 1351.56 593.235 1327.2 668.633C1270.66 843.656 1205.07 938.333 1126.67 958.084C1023.02 984.202 908.968 874.583 798.679 768.571C688.041 662.226 573.63 552.249 469.002 578.614C389.952 598.524 323.939 693.593 267.201 869.254C212.715 1037.94 133.169 1142.22 24.0198 1188.08C16.163 1191.38 8.15596 1194.36 0 1197.04V1198.94C8.39863 1196.19 16.6355 1193.14 24.7131 1189.75C76.7163 1167.9 122.989 1131.7 162.254 1082.15C204.899 1028.34 240.787 956.895 268.912 869.817C325.444 694.798 391.04 600.121 469.439 580.366C573.088 554.249 687.147 663.868 797.432 769.879C896.789 865.386 999.178 963.805 1094.8 963.801C1105.66 963.801 1116.44 962.532 1127.11 959.844C1206.16 939.931 1272.17 844.856 1328.91 669.199C1376.33 522.405 1448.97 428.128 1550.96 380.973C1657.4 331.769 1785.85 340.599 1920 375.066V373.202C1785.67 338.735 1656.98 329.964 1550.21 379.332Z" fill="url(#paint28_linear_204_34)"/>
<path d="M1562.91 392.35C1513.66 415.155 1470.16 449.32 1433.62 493.899C1394.46 541.68 1361.87 603.134 1336.77 676.554C1277.99 848.488 1210.59 941.892 1130.74 962.095C1024.77 988.895 909.188 881.964 797.409 778.546C685.287 674.801 569.334 567.517 462.422 594.572C381.933 614.938 314.131 708.711 255.136 881.268C198.861 1045.89 117.947 1148.48 7.78488 1194.91C5.20661 1195.99 2.60908 1197.04 0 1198.07V1200C2.84662 1198.89 5.67014 1197.75 8.48209 1196.56C60.9719 1174.44 107.839 1138.48 147.769 1089.67C191.1 1036.72 227.798 966.79 256.838 881.845C315.62 709.915 383.01 616.514 462.862 596.315C568.836 569.511 684.419 676.442 796.186 779.861C908.313 883.612 1024.26 990.893 1131.18 963.84C1211.67 943.47 1279.47 849.689 1338.47 677.131C1387.36 534.131 1461.02 441.511 1563.67 393.991C1667.05 346.127 1790.55 350.19 1920 378.723V376.88C1790.36 348.344 1666.62 344.341 1562.91 392.35Z" fill="url(#paint29_linear_204_34)"/>
<path d="M1575.73 405.085C1526.16 428.056 1482.23 461.933 1445.19 505.776C1405.51 552.731 1372.29 612.787 1346.46 684.276C1285.42 853.189 1216.21 945.342 1134.89 965.997C1026.54 993.526 909.366 889.215 796.055 788.347C682.387 687.17 564.855 582.554 455.575 610.298C373.626 631.111 304.01 723.636 242.754 893.16C186.236 1049.57 106.754 1149.34 0 1197.84V1199.81C49.7537 1177.29 94.4663 1142.81 132.998 1097.19C177.009 1045.07 214.509 976.628 244.451 893.779C305.49 724.861 374.694 632.705 456.022 612.05C564.376 584.521 681.539 688.832 794.862 789.702C895.893 879.634 999.97 972.292 1098.6 972.285C1110.93 972.285 1123.19 970.833 1135.34 967.749C1217.29 946.936 1286.9 854.411 1348.17 684.89C1398.51 545.572 1473.2 454.578 1576.51 406.719C1676.76 360.279 1795.34 360.135 1920 383.146V381.31C1795.13 358.303 1676.3 358.494 1575.73 405.085Z" fill="url(#paint30_linear_204_34)"/>
<path d="M117.924 1104.68C162.621 1053.38 200.915 986.39 231.753 905.561C295.065 739.602 366.097 648.656 448.923 627.544C559.692 599.296 678.519 700.995 793.421 799.347C895.312 886.555 1000.26 976.392 1100.4 976.384C1113.53 976.384 1126.59 974.83 1139.55 971.527C1222.98 950.258 1294.42 858.958 1357.96 692.403C1437.87 482.941 1578.81 380.156 1788.87 378.173C1791.03 378.149 1793.18 378.142 1795.35 378.142C1835.96 378.142 1877.61 381.726 1919.99 388.03V386.432C1877.31 380.017 1835.48 376.341 1795.08 376.341C1793 376.341 1790.92 376.349 1788.85 376.373C1577.98 378.356 1436.48 481.521 1356.28 691.761C1292.97 857.728 1221.93 948.67 1139.1 969.785C1028.31 998.037 909.497 896.331 794.591 797.974C679.335 699.329 560.165 597.297 448.474 625.798C365.043 647.064 293.602 738.368 230.068 904.918C174.888 1049.56 99.4354 1145.23 0 1196.45V1198.44C43.584 1175.99 83.1697 1144.56 117.924 1104.68Z" fill="url(#paint31_linear_204_34)"/>
<path d="M1809.31 386.241C1594.42 389.734 1449.49 492.058 1366.23 699.047C1300.64 862.128 1227.75 951.89 1143.4 973.465C1030.14 1002.43 909.595 903.3 793.029 807.439C676.123 711.274 555.238 611.86 441.083 641.054C356.139 662.776 282.849 752.895 217.024 916.538C163.461 1049.7 92.1782 1140.92 0 1193.94V1195.91C37.4196 1174.36 71.7729 1146.32 102.513 1112.13C147.883 1061.65 186.969 996.071 218.687 917.216C284.284 754.139 357.174 664.373 441.52 642.798C554.799 613.838 675.328 712.964 791.885 808.83C894.652 893.351 1000.48 980.403 1102.12 980.395C1116.11 980.395 1130.03 978.746 1143.84 975.209C1228.79 953.484 1302.08 863.37 1367.9 699.722C1450.86 493.478 1595.26 391.53 1809.33 388.049C1845.49 387.459 1882.45 389.599 1920 393.897V392.271C1882.25 387.879 1845.22 385.667 1809.31 386.241Z" fill="url(#paint32_linear_204_34)"/>
<path d="M1830.07 395.796C1611.09 400.799 1462.68 502.302 1376.32 706.12C1308.43 866.383 1233.67 954.999 1147.77 977.037C1031.93 1006.75 909.637 910.155 791.373 816.738C672.76 723.049 550.093 626.171 433.416 656.103C346.944 678.293 271.794 767.245 203.663 928.062C152.334 1049.22 84.9121 1136.29 0 1190.34V1192.51C85.6645 1138.32 153.628 1050.77 205.318 928.765C273.214 768.506 347.97 679.891 433.864 657.856C549.698 628.149 671.988 724.738 790.261 818.154C893.911 900.018 1000.63 984.328 1103.78 984.315C1118.67 984.315 1133.5 982.563 1148.23 978.777C1234.7 956.592 1309.86 867.634 1377.99 706.813C1464.04 503.718 1611.93 402.578 1830.12 397.588C1859.6 396.918 1889.6 397.957 1919.99 400.419V398.741C1889.44 396.221 1859.4 395.126 1830.07 395.796Z" fill="url(#paint33_linear_204_34)"/>
</g>
<defs>
<linearGradient id="paint0_linear_204_34" x1="0" y1="0" x2="984.826" y2="1167.13" gradientUnits="userSpaceOnUse">
<stop stop-color="#7C2978"/>
<stop offset="0.505208" stop-color="#E66A53"/>
<stop offset="1" stop-color="#FCC46D"/>
</linearGradient>
<linearGradient id="paint1_linear_204_34" x1="1404.34" y1="4.87967e-09" x2="1956.37" y2="514.362" gradientUnits="userSpaceOnUse">
<stop stop-color="#7C2978"/>
<stop offset="0.505208" stop-color="#E66A53"/>
<stop offset="1" stop-color="#FCC46D"/>
</linearGradient>
<linearGradient id="paint2_linear_204_34" x1="1391.52" y1="4.87967e-09" x2="1931.76" y2="528.344" gradientUnits="userSpaceOnUse">
<stop stop-color="#7C2978"/>
<stop offset="0.505208" stop-color="#E66A53"/>
<stop offset="1" stop-color="#FCC46D"/>
</linearGradient>
<linearGradient id="paint3_linear_204_34" x1="0" y1="0" x2="991.584" y2="1191.08" gradientUnits="userSpaceOnUse">
<stop stop-color="#7C2978"/>
<stop offset="0.505208" stop-color="#E66A53"/>
<stop offset="1" stop-color="#FCC46D"/>
</linearGradient>
<linearGradient id="paint4_linear_204_34" x1="1369.55" y1="4.87967e-09" x2="1895.74" y2="549.906" gradientUnits="userSpaceOnUse">
<stop stop-color="#7C2978"/>
<stop offset="0.505208" stop-color="#E66A53"/>
<stop offset="1" stop-color="#FCC46D"/>
</linearGradient>
<linearGradient id="paint5_linear_204_34" x1="0" y1="0" x2="996.681" y2="1222.03" gradientUnits="userSpaceOnUse">
<stop stop-color="#7C2978"/>
<stop offset="0.505208" stop-color="#E66A53"/>
<stop offset="1" stop-color="#FCC46D"/>
</linearGradient>
<linearGradient id="paint6_linear_204_34" x1="0" y1="2.75094" x2="850.114" y2="1597.03" gradientUnits="userSpaceOnUse">
<stop stop-color="#7C2978"/>
<stop offset="0.505208" stop-color="#E66A53"/>
<stop offset="1" stop-color="#FCC46D"/>
</linearGradient>
<linearGradient id="paint7_linear_204_34" x1="0" y1="22.8879" x2="835.742" y2="1607.43" gradientUnits="userSpaceOnUse">
<stop stop-color="#7C2978"/>
<stop offset="0.505208" stop-color="#E66A53"/>
<stop offset="1" stop-color="#FCC46D"/>
</linearGradient>
<linearGradient id="paint8_linear_204_34" x1="0" y1="42.5554" x2="821.907" y2="1617.54" gradientUnits="userSpaceOnUse">
<stop stop-color="#7C2978"/>
<stop offset="0.505208" stop-color="#E66A53"/>
<stop offset="1" stop-color="#FCC46D"/>
</linearGradient>
<linearGradient id="paint9_linear_204_34" x1="0" y1="61.7344" x2="808.644" y2="1627.39" gradientUnits="userSpaceOnUse">
<stop stop-color="#7C2978"/>
<stop offset="0.505208" stop-color="#E66A53"/>
<stop offset="1" stop-color="#FCC46D"/>
</linearGradient>
<linearGradient id="paint10_linear_204_34" x1="0" y1="80.4602" x2="795.922" y2="1637.01" gradientUnits="userSpaceOnUse">
<stop stop-color="#7C2978"/>
<stop offset="0.505208" stop-color="#E66A53"/>
<stop offset="1" stop-color="#FCC46D"/>
</linearGradient>
<linearGradient id="paint11_linear_204_34" x1="0.00898799" y1="98.7182" x2="783.763" y2="1646.4" gradientUnits="userSpaceOnUse">
<stop stop-color="#7C2978"/>
<stop offset="0.505208" stop-color="#E66A53"/>
<stop offset="1" stop-color="#FCC46D"/>
</linearGradient>
<linearGradient id="paint12_linear_204_34" x1="0" y1="116.546" x2="772.089" y2="1655.6" gradientUnits="userSpaceOnUse">
<stop stop-color="#7C2978"/>
<stop offset="0.505208" stop-color="#E66A53"/>
<stop offset="1" stop-color="#FCC46D"/>
</linearGradient>
<linearGradient id="paint13_linear_204_34" x1="0.001284" y1="133.908" x2="761" y2="1664.63" gradientUnits="userSpaceOnUse">
<stop stop-color="#7C2978"/>
<stop offset="0.505208" stop-color="#E66A53"/>
<stop offset="1" stop-color="#FCC46D"/>
</linearGradient>
<linearGradient id="paint14_linear_204_34" x1="0" y1="150.844" x2="750.399" y2="1673.48" gradientUnits="userSpaceOnUse">
<stop stop-color="#7C2978"/>
<stop offset="0.505208" stop-color="#E66A53"/>
<stop offset="1" stop-color="#FCC46D"/>
</linearGradient>
<linearGradient id="paint15_linear_204_34" x1="0" y1="167.343" x2="740.335" y2="1682.2" gradientUnits="userSpaceOnUse">
<stop stop-color="#7C2978"/>
<stop offset="0.505208" stop-color="#E66A53"/>
<stop offset="1" stop-color="#FCC46D"/>
</linearGradient>
<linearGradient id="paint16_linear_204_34" x1="0" y1="183.415" x2="730.791" y2="1690.79" gradientUnits="userSpaceOnUse">
<stop stop-color="#7C2978"/>
<stop offset="0.505208" stop-color="#E66A53"/>
<stop offset="1" stop-color="#FCC46D"/>
</linearGradient>
<linearGradient id="paint17_linear_204_34" x1="0" y1="199.067" x2="721.754" y2="1699.27" gradientUnits="userSpaceOnUse">
<stop stop-color="#7C2978"/>
<stop offset="0.505208" stop-color="#E66A53"/>
<stop offset="1" stop-color="#FCC46D"/>
</linearGradient>
<linearGradient id="paint18_linear_204_34" x1="0" y1="214.297" x2="713.251" y2="1707.66" gradientUnits="userSpaceOnUse">
<stop stop-color="#7C2978"/>
<stop offset="0.505208" stop-color="#E66A53"/>
<stop offset="1" stop-color="#FCC46D"/>
</linearGradient>
<linearGradient id="paint19_linear_204_34" x1="0.00898799" y1="229.192" x2="705.181" y2="1715.99" gradientUnits="userSpaceOnUse">
<stop stop-color="#7C2978"/>
<stop offset="0.505208" stop-color="#E66A53"/>
<stop offset="1" stop-color="#FCC46D"/>
</linearGradient>
<linearGradient id="paint20_linear_204_34" x1="0.00513599" y1="243.606" x2="697.666" y2="1724.24" gradientUnits="userSpaceOnUse">
<stop stop-color="#7C2978"/>
<stop offset="0.505208" stop-color="#E66A53"/>
<stop offset="1" stop-color="#FCC46D"/>
</linearGradient>
<linearGradient id="paint21_linear_204_34" x1="0.010272" y1="257.626" x2="690.68" y2="1732.46" gradientUnits="userSpaceOnUse">
<stop stop-color="#7C2978"/>
<stop offset="0.505208" stop-color="#E66A53"/>
<stop offset="1" stop-color="#FCC46D"/>
</linearGradient>
<linearGradient id="paint22_linear_204_34" x1="0.003852" y1="271.251" x2="684.165" y2="1740.63" gradientUnits="userSpaceOnUse">
<stop stop-color="#7C2978"/>
<stop offset="0.505208" stop-color="#E66A53"/>
<stop offset="1" stop-color="#FCC46D"/>
</linearGradient>
<linearGradient id="paint23_linear_204_34" x1="0.003852" y1="284.482" x2="678.161" y2="1748.8" gradientUnits="userSpaceOnUse">
<stop stop-color="#7C2978"/>
<stop offset="0.505208" stop-color="#E66A53"/>
<stop offset="1" stop-color="#FCC46D"/>
</linearGradient>
<linearGradient id="paint24_linear_204_34" x1="0.003852" y1="297.307" x2="671.889" y2="1756.28" gradientUnits="userSpaceOnUse">
<stop stop-color="#7C2978"/>
<stop offset="0.505208" stop-color="#E66A53"/>
<stop offset="1" stop-color="#FCC46D"/>
</linearGradient>
<linearGradient id="paint25_linear_204_34" x1="0" y1="309.752" x2="664.325" y2="1762.22" gradientUnits="userSpaceOnUse">
<stop stop-color="#7C2978"/>
<stop offset="0.505208" stop-color="#E66A53"/>
<stop offset="1" stop-color="#FCC46D"/>
</linearGradient>
<linearGradient id="paint26_linear_204_34" x1="0" y1="321.827" x2="655.523" y2="1766.64" gradientUnits="userSpaceOnUse">
<stop stop-color="#7C2978"/>
<stop offset="0.505208" stop-color="#E66A53"/>
<stop offset="1" stop-color="#FCC46D"/>
</linearGradient>
<linearGradient id="paint27_linear_204_34" x1="0" y1="333.511" x2="645.504" y2="1769.49" gradientUnits="userSpaceOnUse">
<stop stop-color="#7C2978"/>
<stop offset="0.505208" stop-color="#E66A53"/>
<stop offset="1" stop-color="#FCC46D"/>
</linearGradient>
<linearGradient id="paint28_linear_204_34" x1="0" y1="344.821" x2="634.375" y2="1770.85" gradientUnits="userSpaceOnUse">
<stop stop-color="#7C2978"/>
<stop offset="0.505208" stop-color="#E66A53"/>
<stop offset="1" stop-color="#FCC46D"/>
</linearGradient>
<linearGradient id="paint29_linear_204_34" x1="0" y1="355.748" x2="622.166" y2="1770.68" gradientUnits="userSpaceOnUse">
<stop stop-color="#7C2978"/>
<stop offset="0.505208" stop-color="#E66A53"/>
<stop offset="1" stop-color="#FCC46D"/>
</linearGradient>
<linearGradient id="paint30_linear_204_34" x1="0" y1="366.309" x2="608.921" y2="1768.97" gradientUnits="userSpaceOnUse">
<stop stop-color="#7C2978"/>
<stop offset="0.505208" stop-color="#E66A53"/>
<stop offset="1" stop-color="#FCC46D"/>
</linearGradient>
<linearGradient id="paint31_linear_204_34" x1="0" y1="376.341" x2="594.934" y2="1765.8" gradientUnits="userSpaceOnUse">
<stop stop-color="#7C2978"/>
<stop offset="0.505208" stop-color="#E66A53"/>
<stop offset="1" stop-color="#FCC46D"/>
</linearGradient>
<linearGradient id="paint32_linear_204_34" x1="0" y1="386.152" x2="579.882" y2="1761.1" gradientUnits="userSpaceOnUse">
<stop stop-color="#7C2978"/>
<stop offset="0.505208" stop-color="#E66A53"/>
<stop offset="1" stop-color="#FCC46D"/>
</linearGradient>
<linearGradient id="paint33_linear_204_34" x1="0" y1="395.603" x2="564.314" y2="1755.2" gradientUnits="userSpaceOnUse">
<stop stop-color="#7C2978"/>
<stop offset="0.505208" stop-color="#E66A53"/>
<stop offset="1" stop-color="#FCC46D"/>
</linearGradient>
</defs>
</svg>
