<?xml version="1.0" encoding="utf-8"?>
<!-- Generator: Adobe Illustrator 23.0.5, SVG Export Plug-In . SVG Version: 6.00 Build 0)  -->
<svg version="1.1" id="Layer_1" xmlns="http://www.w3.org/2000/svg" xmlns:xlink="http://www.w3.org/1999/xlink" x="0px" y="0px"
	 viewBox="0 0 424.3 73.9" style="enable-background:new 0 0 424.3 73.9;" xml:space="preserve">
<style type="text/css">
	.st0{fill:#FFFFFF;}
</style>
<g>
	<path class="st0" d="M395.5,29.2c0.6,1.1,1.3,1.6,2,1.6c0.8,0,1.4-0.5,2-1.5l14.9-28.2h10l-16.9,31.5c-0.5,1-0.8,1.9-0.8,2.8
		c0,0.9,0.2,1.9,0.7,3l17,34.2h-10l-14.9-30.3c-0.5-1.2-1.2-1.8-2.1-1.8c-0.8,0-1.5,0.6-2.1,1.8l-15,30.3h-10l16.9-34.2
		c0.6-1.1,0.9-2.1,0.9-3c0-0.8-0.3-1.8-0.8-2.8l-17-31.5h10L395.5,29.2z"/>
	<path class="st0" d="M361.5,67c-4.9,4.6-11.3,6.9-19.2,6.9S327.9,71.6,323,67c-4.9-4.7-7.3-10.8-7.3-18.3V25.1
		c0-7.5,2.4-13.5,7.3-18.2c4.9-4.6,11.4-6.9,19.3-6.9c7.9,0,14.4,2.3,19.2,6.9c4.9,4.6,7.3,10.7,7.3,18.2v23.6
		C368.9,56.2,366.4,62.3,361.5,67z M324.8,48.1c0,5.3,1.6,9.6,4.8,12.9c3.2,3.3,7.5,4.9,12.7,4.9s9.5-1.6,12.7-4.9
		c3.2-3.3,4.8-7.6,4.8-12.9V25.8c0-5.3-1.6-9.6-4.8-12.8c-3.2-3.3-7.5-4.9-12.7-4.9s-9.5,1.6-12.7,4.9c-3.2,3.3-4.8,7.5-4.8,12.8
		V48.1z"/>
	<path class="st0" d="M264.9,72.8V1.2H310v7.7h-32c-1.2,0-2.2,0.3-2.9,1c-0.7,0.6-1.1,1.5-1.1,2.5v6.5c0,1.1,0.4,2,1.1,2.7
		c0.7,0.7,1.7,1,2.9,1h32v7.7h-31.7c-1.3,0-2.3,0.4-3.1,1.2c-0.8,0.8-1.2,1.8-1.2,3.1v38.1H264.9z"/>
	<path class="st0" d="M203.7,72.8V1.2h9l26.5,15.4c1.5,0.9,2.7,1,3.7,0.4c1-0.6,1.5-1.8,1.5-3.5V1.2h9.1v71.6h-9.1v-40
		c0-2.2-1-4-3-5.1L217.9,14c-1.5-0.8-2.7-1-3.7-0.4c-0.9,0.6-1.4,1.7-1.4,3.5v55.7H203.7z"/>
	<path class="st0" d="M183.1,1.2h9.1v71.6h-9.1V1.2z"/>
	<path class="st0" d="M146.1,1.2c8.1,0,14.6,2.5,19.7,7.5c5,4.9,7.6,11.4,7.6,19.3v17.8c0,8-2.5,14.5-7.4,19.5
		c-4.9,5-11.3,7.5-19.1,7.5h-22.7V1.2H146.1z M133.2,61.5c0,1,0.4,1.9,1.1,2.6c0.8,0.7,1.8,1,2.9,1h8.3c5.6,0,10.1-1.8,13.6-5.5
		c3.5-3.7,5.2-8.5,5.2-14.4V28.7c0-5.9-1.8-10.7-5.4-14.3c-3.6-3.6-8.3-5.5-14.1-5.5h-7.6c-1.2,0-2.1,0.3-2.9,1
		c-0.7,0.7-1.1,1.5-1.1,2.5V61.5z"/>
	<path class="st0" d="M107,67c-4.8,4.6-11.3,6.9-19.2,6.9S73.4,71.6,68.5,67c-4.9-4.7-7.3-10.8-7.3-18.3V25.1
		c0-7.5,2.4-13.5,7.3-18.2C73.4,2.3,79.8,0,87.8,0c7.9,0,14.4,2.3,19.2,6.9c4.9,4.6,7.3,10.7,7.3,18.2v23.6
		C114.4,56.2,111.9,62.3,107,67z M70.3,48.1c0,5.3,1.6,9.6,4.8,12.9c3.2,3.3,7.5,4.9,12.7,4.9s9.5-1.6,12.7-4.9
		c3.2-3.3,4.8-7.6,4.8-12.9V25.8c0-5.3-1.6-9.6-4.8-12.8C97.3,9.7,93,8.1,87.8,8.1s-9.5,1.6-12.7,4.9c-3.2,3.3-4.8,7.5-4.8,12.8
		V48.1z"/>
	<path class="st0" d="M45.9,66.9c-4.9,4.7-11.3,7-19.2,7c-8,0-14.4-2.3-19.3-6.9C2.4,62.3,0,56.2,0,48.7V25.1
		c0-7.5,2.4-13.5,7.3-18.2C12.2,2.3,18.7,0,26.7,0c8,0,14.4,2.3,19.2,7c4.9,4.7,7.3,10.8,7.3,18.5V31h-9v-5.6
		c0-5.1-1.6-9.3-4.9-12.5c-3.2-3.2-7.4-4.8-12.6-4.8c-5.2,0-9.5,1.6-12.7,4.9c-3.2,3.3-4.8,7.5-4.8,12.8v22.3
		c0,5.3,1.6,9.6,4.8,12.9c3.2,3.3,7.5,4.9,12.7,4.9c5.2,0,9.4-1.6,12.6-4.8c3.3-3.3,4.9-7.5,4.9-12.6v-5.5h9v5.5
		C53.2,56.1,50.8,62.3,45.9,66.9z"/>
</g>
</svg>
