<svg width="2850" height="385" viewBox="0 0 2850 385" fill="none" xmlns="http://www.w3.org/2000/svg">
<path d="M2849.64 377.574H2758.24L2663.08 242.624L2567.91 377.574H2477.05L2612.54 191.547L2479.2 6.59497H2570.6L2664.15 139.933L2756.63 6.59497H2847.49L2714.15 191.548L2849.64 377.574Z" fill="white"/>
<path d="M2145.3 329.187C2108.2 292.088 2089.39 246.387 2089.39 192.083C2089.39 137.782 2108.2 92.082 2145.3 55.522C2182.4 18.423 2229.17 0.143005 2285.09 0.143005C2340.47 0.143005 2387.24 18.423 2424.34 55.522C2461.98 92.082 2480.8 137.782 2480.8 192.083C2480.8 246.387 2461.98 292.088 2424.34 329.187C2387.24 365.745 2340.47 384.026 2285.09 384.026C2229.17 384.026 2182.4 365.745 2145.3 329.187ZM2285.09 312.518C2318.96 312.518 2347.46 301.227 2370.04 278.108C2393.16 254.99 2404.45 226.493 2404.45 192.083C2404.45 157.674 2393.16 129.179 2370.04 106.06C2347.46 82.942 2318.96 71.65 2285.09 71.65C2251.22 71.65 2222.72 82.941 2199.6 106.06C2176.48 129.18 2165.2 157.675 2165.2 192.083C2165.2 226.493 2176.48 254.989 2199.6 278.108C2222.72 301.226 2251.22 312.518 2285.09 312.518Z" fill="white"/>
<path d="M2059.8 76.49H1930.23V159.826H2038.3V229.721H1930.23V377.575H1856.03V6.59497H2059.8V76.49Z" fill="white"/>
<path d="M1706.56 6.59497H1780.75V377.575H1705.48L1536.66 134.019V377.575H1462.46V6.59497H1537.73L1706.56 250.15V6.59497Z" fill="white"/>
<path d="M1406 76.49H1359.76V307.681H1406V377.575H1238.79V307.681H1285.57V76.49H1238.79V6.59497H1406V76.49Z" fill="white"/>
<path d="M1016.73 6.59497C1071.03 6.59497 1115.66 24.337 1151.68 59.823C1187.7 94.77 1205.98 138.857 1205.98 192.083C1205.98 245.31 1187.7 289.399 1151.68 324.885C1115.66 359.831 1071.03 377.574 1016.73 377.574H871.562V6.59399L1016.73 6.59497ZM1015.11 307.681C1047.91 307.681 1074.79 296.925 1096.84 274.884C1118.88 252.84 1129.64 224.882 1129.64 192.084C1129.64 159.289 1118.88 131.868 1096.84 109.825C1074.79 87.782 1047.91 76.49 1015.11 76.49H945.757V307.681H1015.11Z" fill="white"/>
<path d="M479.599 329.187C442.5 292.088 423.683 246.387 423.683 192.083C423.683 137.782 442.5 92.082 479.599 55.522C516.698 18.423 563.473 0.143005 619.389 0.143005C674.766 0.143005 721.542 18.423 758.64 55.522C796.277 92.082 815.094 137.782 815.094 192.083C815.094 246.387 796.277 292.088 758.64 329.187C721.541 365.745 674.766 384.026 619.389 384.026C563.473 384.026 516.698 365.745 479.599 329.187ZM619.389 312.518C653.26 312.518 681.757 301.227 704.337 278.108C727.458 254.99 738.747 226.493 738.747 192.083C738.747 157.674 727.458 129.179 704.337 106.06C681.757 82.942 653.261 71.65 619.389 71.65C585.517 71.65 557.021 82.941 533.903 106.06C510.782 129.18 499.493 157.675 499.493 192.083C499.493 226.493 510.782 254.989 533.903 278.108C557.021 301.226 585.518 312.518 619.389 312.518Z" fill="white"/>
<path d="M56.459 329.187C19.36 292.088 0.542969 246.387 0.542969 192.083C0.542969 137.782 19.36 92.082 56.459 55.522C93.558 18.423 140.333 0.143005 196.249 0.143005C243.563 0.143005 284.963 14.122 319.908 41.542C354.856 68.963 377.439 104.986 387.115 148.536H308.081C290.876 102.836 247.864 71.651 196.249 71.651C162.378 71.651 133.881 82.942 110.763 106.061C87.6419 129.181 76.353 157.676 76.353 192.084C76.353 226.494 87.6419 254.99 110.763 278.109C133.882 301.227 162.378 312.519 196.249 312.519C247.864 312.519 290.876 281.336 308.081 235.635H387.115C377.438 279.186 354.856 315.208 319.908 342.627C284.962 370.047 243.563 384.027 196.249 384.027C140.333 384.026 93.558 365.745 56.459 329.187Z" fill="white"/>
</svg>
