<svg width="1573" height="1026" viewBox="0 0 1573 1026" fill="none" xmlns="http://www.w3.org/2000/svg">
<mask id="mask0_1_5" style="mask-type:alpha" maskUnits="userSpaceOnUse" x="34" y="16" width="1517" height="996">
<path d="M1330.65 632.948C1348.29 619.184 1365.03 605.525 1380.78 592.034C1467.25 517.956 1521.39 451.572 1541.7 394.728C1562.49 336.57 1546.98 289.819 1495.6 255.777C1339.62 152.42 1224.91 102.443 1149.01 69.3719C1114.84 54.4872 1087.86 42.7304 1069.43 31.3072L1068.74 32.3379L1069.43 31.3072C1038.78 12.302 967.109 11.235 882.387 28.5238C791.213 47.1291 705.104 82.5075 646.136 125.587C564.804 185.007 462.605 230.993 391.192 259.108C308.006 291.858 217.181 319.595 148.234 333.307C103.725 342.158 70.2224 367.416 51.3511 406.352C18.6752 473.771 33.9846 573.373 91.3065 666.29C118.476 710.332 146.57 755.873 176.42 797.69C209.42 843.923 241.092 880.474 273.244 909.431C311.636 944.011 351.693 968.971 395.706 985.737C444.847 1004.46 497.801 1012.64 557.592 1010.74C659.712 1007.51 880.969 917.061 1095.65 790.792C1183.46 739.139 1263.56 685.295 1330.65 632.948ZM89.8904 361.666C106.203 348.938 125.902 340.142 148.498 335.648C217.585 321.909 308.573 294.124 391.893 261.321C463.451 233.15 565.871 187.06 647.434 127.472C706.104 84.6099 791.842 49.3965 882.664 30.864C966.821 13.6907 1037.85 14.6502 1068.04 33.3686C1086.6 44.873 1113.65 56.657 1147.89 71.5767C1223.73 104.618 1338.33 154.55 1494.16 257.803C1544.6 291.224 1559.84 337.083 1539.46 394.107C1519.3 450.51 1465.42 516.513 1379.32 590.281C1303.81 654.972 1205.34 723.606 1094.57 788.76C880.231 914.831 659.472 1005.13 557.727 1008.36C498.248 1010.24 445.585 1002.11 396.727 983.494C352.967 966.824 313.127 941.996 274.931 907.594C203.273 843.053 147.403 752.491 93.3743 664.91C36.4551 572.645 21.1709 473.91 53.4875 407.233C62.4096 388.826 74.6771 373.536 89.8904 361.666Z" fill="white"/>
</mask>
<g mask="url(#mask0_1_5)">
<path d="M1329.87 634.405C1347.47 620.623 1364.18 606.945 1379.89 593.434C1466.15 519.243 1520.15 452.716 1540.38 395.7C1561.09 337.366 1545.56 290.414 1494.24 256.15C1338.42 152.121 1223.86 101.746 1148.05 68.4108C1113.92 53.4075 1086.97 41.5569 1068.57 30.0572L1067.88 31.0904L1068.57 30.0572C1037.95 10.9247 966.395 9.72003 881.824 26.9147C790.814 45.4185 704.873 80.7668 646.037 123.896C564.886 183.382 462.891 229.348 391.617 257.434C308.594 290.149 217.938 317.819 149.115 331.453C104.685 340.254 71.2581 365.542 52.45 404.587C19.8836 472.193 35.2521 572.192 92.5595 665.559C119.722 709.814 147.809 755.575 177.646 797.602C210.632 844.067 242.283 880.812 274.407 909.936C312.766 944.715 352.78 969.842 396.735 986.751C445.813 1005.63 498.688 1013.94 558.381 1012.15C660.334 1009.09 881.156 918.728 1095.38 792.393C1183.01 740.714 1262.94 686.821 1329.87 634.405ZM90.8894 359.808C107.165 347.064 126.825 338.272 149.38 333.803C218.344 320.142 309.162 292.424 392.319 259.656C463.738 231.514 565.953 185.445 647.334 125.79C705.874 82.8789 791.443 47.6955 882.102 29.2639C966.109 12.1843 1037.03 13.2799 1067.18 32.1237C1085.72 43.7051 1112.73 55.583 1146.93 70.6217C1222.68 103.926 1337.14 154.256 1492.8 258.181C1543.19 291.819 1558.44 337.876 1538.14 395.072C1518.06 451.646 1464.33 517.792 1378.42 591.671C1303.09 656.461 1204.84 725.164 1094.31 790.352C880.418 916.488 660.092 1006.71 558.513 1009.76C499.133 1011.54 446.548 1003.28 397.753 984.503C354.05 967.689 314.253 942.696 276.09 908.095C204.494 843.183 148.638 752.182 94.6228 664.177C37.718 571.465 22.3755 472.338 54.5837 405.475C63.4758 387.017 75.7106 371.693 90.8894 359.808Z" fill="#F15A29"/>
</g>
<mask id="mask1_1_5" style="mask-type:alpha" maskUnits="userSpaceOnUse" x="95" y="40" width="1399" height="919">
<path d="M1296.44 609.881C1310.39 598.997 1323.71 588.187 1336.34 577.49C1416.01 510.023 1466 449.558 1484.91 397.774C1504.04 345.42 1490.57 303.255 1444.88 272.451C1307.65 178.328 1200.45 128.46 1129.51 95.4627C1096.21 79.972 1069.9 67.7371 1051.36 56.0848C1021.36 37.27 953.949 34.9884 875.416 50.1296C791.325 66.3428 710.823 98.7421 654.55 139.02C579.276 193.497 485.482 236.294 420.053 262.604C343.189 293.513 262.354 319.201 198.276 333.079C157.843 341.845 127.44 365.499 110.355 401.483C80.6972 463.949 94.8155 555.573 147.2 640.599L147.199 640.597C196.54 720.872 247.562 803.882 314.777 864.253C350.182 896.053 387.122 919.053 427.709 934.57C472.985 951.879 521.732 959.554 576.733 958.034C671.139 955.735 875.458 873.703 1073.59 758.548C1157.2 709.959 1233.28 659.163 1296.44 609.881ZM146.726 358.902C161.257 347.564 178.67 339.583 198.565 335.269C262.769 321.364 343.744 295.633 420.73 264.675C486.288 238.313 580.28 195.421 655.755 140.798C711.741 100.727 791.892 68.4799 875.65 52.3305C953.657 37.2904 1020.48 39.4675 1050.04 58.0132C1068.69 69.7318 1095.05 81.9911 1128.41 97.511C1199.29 130.482 1306.4 180.306 1443.5 274.34C1488.32 304.557 1501.54 345.882 1482.81 397.174C1464.04 448.545 1414.31 508.655 1334.98 575.834C1265.27 634.869 1174.54 697.387 1072.6 756.633C874.779 871.603 670.931 953.5 576.875 955.791C522.161 957.303 473.684 949.672 428.671 932.464C388.318 917.038 351.581 894.161 316.362 862.526C249.358 802.345 198.412 719.46 149.144 639.304L149.144 639.303C97.134 554.884 83.0437 464.066 112.373 402.293C120.712 384.73 132.297 370.16 146.726 358.902Z" fill="white"/>
</mask>
<g mask="url(#mask1_1_5)">
<path d="M1295.71 611.239C1309.63 600.34 1322.92 589.516 1335.52 578.803C1415 511.235 1464.86 450.641 1483.7 398.701C1502.75 346.189 1489.27 303.843 1443.62 272.84C1306.54 178.114 1199.47 127.863 1128.62 94.6107C1095.36 79.0007 1069.09 66.6715 1050.56 54.9416C1020.6 36.0014 953.292 33.5855 874.898 48.636C790.957 64.752 710.613 97.1206 654.465 137.442C579.359 191.979 485.753 234.759 420.451 261.045C343.738 291.924 263.056 317.556 199.093 331.366C158.732 340.089 128.399 363.773 111.372 399.857C81.8143 462.499 95.9868 554.488 148.358 639.925L148.357 639.923C197.686 720.587 248.695 803.998 315.853 864.718C351.226 896.7 388.126 919.854 428.66 935.504C473.878 952.962 522.553 960.756 577.463 959.334C671.715 957.202 875.633 875.248 1073.35 760.038C1156.78 711.426 1232.69 660.585 1295.71 611.239ZM147.648 357.188C162.145 345.835 179.524 337.857 199.383 333.564C263.471 319.727 344.294 294.053 421.129 263.125C486.559 236.787 580.363 193.913 655.669 139.229C711.531 99.1147 791.525 66.898 875.134 50.8454C953.002 35.8955 1019.72 38.2053 1049.25 56.8747C1067.88 68.6712 1094.2 81.025 1127.53 96.6645C1198.32 129.889 1305.3 180.097 1442.25 274.735C1487.03 305.147 1500.26 346.649 1481.6 398.094C1462.91 449.621 1413.3 509.859 1334.16 577.138C1264.61 636.261 1174.08 698.841 1072.36 758.114C874.954 873.139 671.505 954.958 577.603 957.082C522.979 958.498 474.574 950.748 429.619 933.393C389.319 917.834 352.622 894.804 317.433 862.987C250.487 802.458 199.554 719.173 150.298 638.629L150.298 638.628C98.301 553.8 84.157 462.621 113.387 400.674C121.697 383.062 133.252 368.461 147.648 357.188Z" fill="#F15A29"/>
</g>
<mask id="mask2_1_5" style="mask-type:alpha" maskUnits="userSpaceOnUse" x="155" y="63" width="1282" height="843">
<path d="M1262.16 586.959C1272.49 578.896 1282.42 570.89 1291.94 562.942C1364.82 502.085 1410.65 447.536 1428.16 400.812C1445.61 354.259 1434.17 316.679 1394.15 289.115C1274.79 203.624 1178.77 155.825 1108.65 120.924C1076.83 105.085 1051.7 92.5754 1033.28 80.8484C1003.49 61.9368 941.871 58.5256 868.444 71.7225C791.418 85.5661 716.523 114.987 662.961 152.44C537.513 242.222 346.26 309.516 248.312 332.843C211.946 341.524 184.638 363.579 169.34 396.627C142.718 454.143 155.649 537.782 203.088 614.905C245.595 684.363 293.776 763.093 356.308 819.074C388.722 848.091 422.545 869.133 459.708 883.4C501.119 899.299 545.659 906.47 595.873 905.324C639.376 904.635 707.008 886.581 791.453 853.112C872.572 820.961 964.95 775.926 1051.57 726.301C1130.94 680.833 1202.99 633.122 1262.16 586.959ZM203.57 356.074C216.307 346.136 231.43 338.986 248.627 334.883C346.748 311.513 538.361 244.088 664.072 154.117C717.357 116.858 791.922 87.5769 868.637 73.7883C941.569 60.6793 1002.65 63.9926 1032.04 82.6487C1050.55 94.4272 1075.72 106.958 1107.58 122.82C1177.64 157.693 1273.59 205.454 1392.85 290.866C1432.06 317.878 1443.28 354.672 1426.2 400.233C1408.83 446.573 1363.23 500.79 1290.68 561.38C1226.76 614.751 1143.76 671.161 1050.65 724.501C964.124 774.073 871.851 819.056 790.832 851.168C706.635 884.538 639.27 902.538 596.02 903.223C546.068 904.362 501.779 897.234 460.611 881.429C423.665 867.246 390.032 846.32 357.787 817.454C295.456 761.653 247.351 683.047 204.909 613.694L204.908 613.693C157.814 537.131 144.913 454.238 171.238 397.364C178.992 380.61 189.905 366.736 203.57 356.074Z" fill="white"/>
</mask>
<g mask="url(#mask2_1_5)">
<path d="M1261.48 588.218C1271.79 580.145 1281.7 572.129 1291.2 564.169C1363.9 503.223 1409.61 448.559 1427.06 401.695C1444.44 355.003 1432.99 317.262 1393.01 289.522C1273.77 203.492 1177.86 155.337 1107.83 120.177C1076.05 104.22 1050.95 91.6171 1032.54 79.8124C1002.79 60.7754 941.268 57.2364 867.971 70.3448C791.082 84.0955 716.334 113.485 662.89 150.976C537.721 240.856 346.834 308.04 249.065 331.271C212.765 339.915 185.52 362.001 170.275 395.142C143.744 452.821 156.725 536.792 204.152 614.288C246.649 684.083 294.817 763.194 357.295 819.497C389.682 848.682 423.467 869.866 460.582 884.255C501.94 900.289 546.413 907.57 596.545 906.513C639.977 905.904 707.484 887.909 791.764 854.475C872.724 822.356 964.915 777.328 1051.36 727.682C1130.56 682.194 1202.45 634.442 1261.48 588.218ZM204.415 354.503C217.123 344.553 232.216 337.405 249.381 333.319C347.324 310.045 538.569 242.729 664.001 152.662C717.168 115.365 791.587 86.1147 868.166 72.4186C940.969 59.3975 1001.96 62.8372 1031.31 81.6171C1049.8 93.4736 1074.94 106.097 1106.77 122.078C1176.74 157.211 1272.58 205.327 1391.71 291.277C1430.88 318.462 1442.11 355.413 1425.1 401.11C1407.8 447.589 1362.32 501.921 1289.93 562.599C1226.17 616.047 1143.35 672.51 1050.44 725.873C964.089 775.466 872.003 820.443 791.142 852.522C707.11 885.858 639.869 903.799 596.69 904.405C546.82 905.455 502.596 898.218 461.483 882.278C424.584 867.974 390.988 846.907 358.771 817.875C296.494 761.752 248.401 682.765 205.969 613.077L205.968 613.076C158.886 536.143 145.936 452.92 172.17 395.885C179.897 379.084 190.781 365.18 204.415 354.503Z" fill="#F15A29"/>
</g>
<mask id="mask3_1_5" style="mask-type:alpha" maskUnits="userSpaceOnUse" x="216" y="87" width="1163" height="766">
<path d="M1227.8 564.23C1234.6 558.924 1241.19 553.648 1247.59 548.396C1313.68 494.149 1355.35 445.519 1371.46 403.856C1387.22 363.099 1377.79 330.101 1343.43 305.78C1240.86 228.09 1151.15 180.187 1085.65 145.21C1057.42 130.139 1033.04 117.122 1015.2 105.614C986.051 86.8824 928.583 82.2853 861.47 93.3168C791.486 104.819 722.198 131.261 671.372 165.862C621.422 201.135 554.479 236.996 477.766 269.58C416.191 295.735 350.796 318.708 298.347 332.61C266.033 341.198 241.811 361.666 228.305 391.798C204.742 444.363 216.494 520.006 258.975 589.208C303.309 662.039 344.361 726.209 397.836 773.891C427.26 800.129 457.965 819.211 491.705 832.228C529.25 846.714 569.584 853.382 615.01 852.611C654.894 852.382 716.594 836.567 793.431 806.871C866.937 778.463 950.806 738.398 1029.59 694.058C1104.71 651.777 1172.7 607.218 1227.8 564.23ZM260.433 353.168C271.358 344.643 284.191 338.351 298.69 334.496C351.23 320.57 416.73 297.561 478.393 271.37C555.246 238.726 622.329 202.787 672.39 167.436C722.95 133.016 791.928 106.7 861.621 95.2455C928.281 84.2884 985.259 88.7894 1014.04 107.285C1031.94 118.831 1056.35 131.864 1084.61 146.953C1150.06 181.903 1239.71 229.769 1342.18 307.391C1375.82 331.198 1385.05 363.459 1369.64 403.295C1353.67 444.604 1312.22 492.929 1246.43 546.93C1188.3 594.639 1113.03 644.936 1028.75 692.375C950.054 736.666 866.284 776.683 792.87 805.055C716.267 834.661 654.816 850.429 615.163 850.655C569.974 851.422 529.872 844.795 492.55 830.396C459.009 817.455 428.478 798.479 399.211 772.382C345.912 724.857 304.935 660.8 260.671 588.084L260.669 588.082C218.503 519.394 206.782 444.436 230.082 392.461C237.25 376.47 247.504 363.256 260.433 353.168Z" fill="white"/>
</mask>
<g mask="url(#mask3_1_5)">
<path d="M1227.17 565.392C1233.96 560.079 1240.54 554.796 1246.92 549.537C1312.85 495.214 1354.42 446.481 1370.47 404.695C1386.17 363.817 1376.73 330.68 1342.4 306.204C1239.93 228.036 1150.33 179.788 1084.9 144.56C1056.71 129.38 1032.36 116.269 1014.53 104.685C985.416 85.83 928.038 81.1084 861.043 92.055C791.183 103.469 722.029 129.879 671.315 164.513C621.476 199.822 554.672 235.69 478.111 268.251C416.658 294.387 351.388 317.323 299.036 331.178C266.782 339.738 242.617 360.236 229.158 390.454C205.678 443.169 217.474 519.113 259.945 588.649C304.269 661.832 345.308 726.316 398.736 774.275C428.134 800.664 458.806 819.874 492.502 833.003C529.999 847.612 570.273 854.38 615.624 853.691C655.443 853.536 717.03 837.778 793.716 808.117C867.079 779.74 950.779 739.685 1029.4 695.329C1104.36 653.032 1172.2 608.435 1227.17 565.392ZM261.201 351.741C272.102 343.205 284.908 336.914 299.381 333.072C351.824 319.193 417.198 296.221 478.739 270.049C555.439 237.428 622.383 201.482 672.333 166.094C722.782 131.642 791.625 105.357 861.195 93.9911C927.738 83.1183 984.627 87.7426 1013.37 106.36C1031.26 117.983 1055.64 131.109 1083.87 146.306C1149.24 181.508 1238.78 229.719 1341.16 307.819C1374.76 331.777 1384 364.174 1368.65 404.129C1352.74 445.56 1311.39 493.986 1245.76 548.063C1187.77 595.839 1112.66 646.181 1028.55 693.637C950.026 737.945 866.426 777.953 793.155 806.293C716.702 835.864 655.364 851.576 615.775 851.728C570.66 852.414 530.618 845.687 493.344 831.165C459.847 818.114 429.349 799.01 400.108 772.763C346.855 724.962 305.891 660.592 261.637 587.525L261.635 587.523C219.48 518.502 207.715 443.246 230.932 391.122C238.076 375.085 248.302 361.842 261.201 351.741Z" fill="#F15A29"/>
</g>
<mask id="mask4_1_5" style="mask-type:alpha" maskUnits="userSpaceOnUse" x="276" y="110" width="1046" height="690">
<path d="M1193.33 541.755C1196.72 539.115 1200.04 536.483 1203.31 533.857C1262.6 486.22 1300.13 443.508 1314.83 406.905C1328.89 371.937 1321.44 343.518 1292.71 322.44C1205.71 251.387 1121.06 202.805 1059.25 167.331C1034.74 153.264 1013.57 141.116 997.117 130.368C968.165 111.531 916.182 105.894 854.496 114.902C791.518 124.098 727.835 147.562 679.778 179.277C586.154 244.316 442.36 304.226 348.371 332.372C320.088 340.874 298.948 359.768 287.234 387.01C266.761 434.623 277.343 502.255 314.852 563.511L314.85 563.506C352.485 625.74 390.327 685.204 439.357 728.709C465.791 752.165 493.378 769.288 523.696 781.057C557.376 794.13 593.503 800.293 634.141 799.897C670.418 800.13 726.196 786.555 795.431 760.637C861.338 735.965 936.707 700.872 1007.65 661.823C1078.51 622.822 1142.42 581.483 1193.33 541.755ZM317.315 350.145C326.406 343.051 336.941 337.652 348.749 334.103C442.883 305.913 586.917 245.898 680.701 180.746C728.504 149.201 791.895 125.849 854.601 116.692C915.868 107.746 967.419 113.293 996.034 131.912C1012.53 142.682 1033.71 154.841 1058.24 168.92C1120 204.367 1204.59 252.911 1291.52 323.907C1319.6 344.508 1326.87 372.242 1313.16 406.364C1298.58 442.64 1261.27 485.073 1202.25 532.487C1149.9 574.522 1082.36 618.719 1006.89 660.255C936.027 699.259 860.751 734.309 794.93 758.948C725.912 784.785 670.367 798.319 634.3 798.088C593.873 798.481 557.955 792.357 524.481 779.363C494.346 767.665 466.917 750.639 440.628 727.31C391.763 683.952 353.995 624.598 316.426 562.474L316.424 562.47C279.201 501.68 268.651 434.672 288.894 387.596C295.47 372.298 305.085 359.687 317.315 350.145Z" fill="url(#paint0_linear_1_5)"/>
</mask>
<g mask="url(#mask4_1_5)">
<path d="M1192.76 542.821C1196.14 540.177 1199.45 537.542 1202.71 534.913C1261.87 487.211 1299.3 444.412 1313.95 407.701C1327.95 372.63 1320.49 344.092 1291.79 322.883C1204.87 251.403 1120.32 202.484 1058.58 166.763C1034.09 152.598 1012.95 140.366 996.516 129.547C967.595 110.586 915.692 104.831 854.114 113.756C791.246 122.869 727.687 146.3 679.735 178.042C586.319 243.145 442.81 303.007 348.997 331.081C320.768 339.561 299.678 358.485 288.007 385.806C267.607 433.556 278.229 501.458 315.728 563.01L315.726 563.006C353.352 625.539 391.183 685.294 440.17 729.052C466.581 752.644 494.138 769.882 524.417 781.751C558.052 794.936 594.125 801.189 634.698 800.868C670.916 801.17 726.591 787.649 795.691 761.766C861.47 737.126 936.687 702.045 1007.48 662.985C1078.19 623.972 1141.96 582.601 1192.76 542.821ZM318.007 348.861C327.077 341.758 337.59 336.359 349.376 332.819C443.333 304.701 587.082 244.735 680.658 179.518C728.356 147.946 791.624 124.627 854.221 115.554C915.38 106.689 966.851 112.354 995.436 131.094C1011.91 141.936 1033.07 154.179 1057.58 168.356C1119.27 204.05 1203.75 252.932 1290.6 324.352C1318.66 345.082 1325.94 372.932 1312.28 407.154C1297.75 443.537 1260.54 486.058 1201.66 533.536C1149.43 575.628 1082.03 619.861 1006.72 661.409C936.006 700.425 860.883 735.462 795.19 760.07C726.306 785.872 670.862 799.352 634.854 799.052C594.494 799.372 558.629 793.157 525.198 780.052C495.103 768.255 467.704 751.114 441.438 727.651C392.616 684.041 354.859 624.397 317.299 561.973L317.297 561.969C280.083 500.884 269.494 433.609 289.664 386.398C296.216 371.055 305.805 358.416 318.007 348.861Z" fill="#F15A29"/>
</g>
<mask id="mask5_1_5" style="mask-type:alpha" maskUnits="userSpaceOnUse" x="337" y="133" width="928" height="615">
<path d="M1158.74 519.632C1158.87 519.534 1158.99 519.438 1159.11 519.34C1211.62 478.314 1245 441.52 1258.3 409.98C1270.62 380.782 1265.13 356.934 1241.99 339.1C1169.37 273.087 1087.4 222.548 1027.55 185.647C1008.81 174.092 992.626 164.112 979.035 155.121C950.682 136.442 902.746 129.65 847.522 136.485C791.503 143.418 733.426 163.904 688.182 192.689C647.437 220.419 596.061 248.627 535.459 276.546C489.871 297.547 439.912 317.809 398.388 332.136C374.112 340.554 356.04 357.895 346.126 382.287C328.787 424.943 338.213 484.537 370.727 537.812C402.012 589.981 436.291 644.209 480.874 683.526C504.318 704.2 528.788 719.364 555.684 729.885C585.497 741.546 617.416 747.204 653.27 747.183C718.039 748.561 851.672 701.31 985.781 629.604C1052.34 594.013 1112.14 555.992 1158.74 519.632ZM374.232 346.956C381.457 341.318 389.683 336.868 398.805 333.704C440.381 319.358 490.402 299.072 536.043 278.046C596.739 250.085 648.204 221.827 689.01 194.055C734.009 165.425 791.815 145.038 847.58 138.136C902.431 131.348 949.979 138.053 978.032 156.536C991.642 165.539 1007.84 175.524 1026.59 187.086C1086.39 223.958 1168.29 274.454 1240.85 340.414C1263.43 357.811 1268.77 381.026 1256.78 409.452C1243.59 440.696 1210.41 477.237 1158.16 518.063C1158.04 518.158 1157.91 518.259 1157.79 518.354C1111.27 554.651 1051.58 592.607 985.099 628.15C851.239 699.724 717.953 746.89 653.435 745.516C617.769 745.537 586.038 739.913 556.41 728.324C529.679 717.869 505.352 702.793 482.04 682.234C437.613 643.055 403.405 588.934 372.177 536.859L372.174 536.854C339.915 483.996 330.523 424.961 347.665 382.791C353.641 368.085 362.648 355.995 374.232 346.956Z" fill="white"/>
</mask>
<g mask="url(#mask5_1_5)">
<path d="M1158.22 520.603C1158.34 520.505 1158.47 520.409 1158.59 520.31C1210.98 479.232 1244.27 442.364 1257.53 410.734C1269.8 381.451 1264.3 357.504 1241.18 339.56C1168.63 273.168 1086.75 222.288 1026.96 185.138C1008.24 173.505 992.075 163.458 978.499 154.408C950.176 135.606 902.314 128.699 847.185 135.455C791.264 142.309 733.299 162.761 688.153 191.569C647.498 219.324 596.231 247.54 535.752 275.447C490.256 296.441 440.395 316.684 398.952 330.986C374.722 339.389 356.695 356.76 346.817 381.224C329.543 424.005 339.005 483.837 371.511 537.369C402.789 589.79 437.057 644.283 481.601 683.829C505.023 704.624 529.466 719.889 556.328 730.499C586.102 742.26 617.974 747.998 653.768 748.044C718.433 749.55 851.808 702.375 985.637 630.657C1052.06 595.059 1111.73 557.01 1158.22 520.603ZM374.848 345.815C382.056 340.17 390.265 335.719 399.37 332.56C440.865 318.24 490.787 297.972 536.336 276.955C596.908 249.004 648.266 220.738 688.982 192.94C733.882 164.29 791.576 143.935 847.245 137.113C902 130.403 949.476 137.222 977.499 155.826C991.094 164.888 1007.27 174.941 1026 186.58C1085.74 223.701 1167.55 274.538 1240.05 340.878C1262.6 358.381 1267.95 381.692 1256 410.201C1242.87 441.535 1209.77 478.149 1157.64 519.027C1157.52 519.122 1157.39 519.223 1157.27 519.318C1110.86 555.662 1051.29 593.646 984.955 629.196C851.374 700.782 718.346 747.872 653.932 746.372C618.324 746.326 586.64 740.622 557.051 728.934C530.355 718.391 506.055 703.212 482.764 682.534C438.376 643.127 404.178 588.741 372.957 536.416L372.954 536.411C340.703 483.297 331.277 424.026 348.355 381.733C354.308 366.984 363.29 354.866 374.848 345.815Z" fill="#F15A29"/>
</g>
<mask id="mask6_1_5" style="mask-type:alpha" maskUnits="userSpaceOnUse" x="398" y="156" width="810" height="539">
<path d="M1124.18 497.861C1164.69 466.257 1190.82 437.777 1201.92 413.11C1212.48 389.662 1208.91 370.377 1191.3 355.786C1132.44 292.637 1048.76 237.663 987.668 197.523C978.081 191.224 969.024 185.274 960.948 179.863C932.743 161.045 889.981 153.301 840.54 158.057C790.689 162.853 739.562 179.912 696.576 206.093C667.658 225.26 585.642 275.851 448.39 331.896C428.081 340.24 413.06 356.067 404.955 377.671C390.815 415.352 399.106 466.864 426.588 512.103C451.896 554.772 482.257 603.238 522.383 638.341C564.787 675.439 613.854 693.797 672.388 694.467C701.494 695.627 745.466 686.547 799.531 668.206C851.026 650.737 907.895 626.26 963.988 597.421C1021.91 567.64 1074.14 535.637 1115.03 504.87C1118.16 502.519 1121.21 500.18 1124.18 497.861ZM431.196 343.511C436.502 339.37 442.408 335.947 448.859 333.296C470.815 324.331 515.085 305.662 564.861 281.374C617.112 255.88 661.675 230.976 697.312 207.354C740.061 181.318 790.941 164.342 840.554 159.57C889.659 154.846 932.089 162.51 960.027 181.149C968.106 186.563 977.165 192.513 986.755 198.815C1047.81 238.924 1131.42 293.858 1190.18 356.904L1190.24 356.963C1207.32 371.107 1210.79 389.824 1200.54 412.592C1188.91 438.433 1159.05 469.931 1114.19 503.685C1073.38 534.394 1021.23 566.344 963.389 596.081C907.367 624.883 850.578 649.326 799.159 666.77C745.279 685.048 701.501 694.1 672.562 692.945C614.361 692.28 565.591 674.032 523.443 637.158C483.465 602.184 453.171 553.825 427.916 511.242L427.912 511.236C400.649 466.361 392.396 415.343 406.375 378.09C411.734 363.813 420.17 352.114 431.196 343.511Z" fill="white"/>
</mask>
<g mask="url(#mask6_1_5)">
<path d="M1123.72 498.739C1164.13 467.095 1190.19 438.559 1201.25 413.822C1211.77 390.307 1208.19 370.944 1190.6 356.266C1131.78 292.773 1048.2 237.437 987.168 197.033C977.592 190.694 968.545 184.704 960.478 179.258C932.303 160.318 889.605 152.465 840.249 157.145C790.484 161.864 739.455 178.89 696.563 205.086C667.708 224.27 585.87 274.893 448.891 330.887C428.623 339.223 413.641 355.08 405.567 376.749C391.482 414.542 399.803 466.26 427.278 511.718C452.581 554.593 482.934 603.295 523.024 638.604C565.389 675.919 614.391 694.438 672.83 695.22C701.889 696.44 745.781 687.409 799.742 669.102C851.137 651.666 907.892 627.205 963.868 598.365C1021.67 568.584 1073.79 536.561 1114.59 505.757C1117.71 503.403 1120.75 501.062 1123.72 498.739ZM431.736 342.511C437.03 338.366 442.923 334.941 449.361 332.293C471.274 323.336 515.455 304.682 565.128 280.398C617.271 254.908 661.74 229.996 697.299 206.354C739.955 180.302 790.737 163.36 840.264 158.663C889.285 154.014 931.651 161.787 959.559 180.547C967.63 185.996 976.679 191.986 986.258 198.329C1047.24 238.702 1130.77 293.996 1189.48 357.386L1189.54 357.446C1206.61 371.674 1210.09 390.466 1199.87 413.299C1188.28 439.214 1158.5 470.772 1113.74 504.566C1073.02 535.312 1020.99 567.282 963.269 597.019C907.364 625.822 850.688 650.248 799.369 667.659C745.593 685.903 701.895 694.906 673.002 693.693C614.897 692.915 566.191 674.508 524.081 637.419C484.139 602.24 453.854 553.645 428.604 510.857L428.6 510.851C401.344 465.758 393.061 414.536 406.985 377.172C412.323 362.853 420.735 351.126 431.736 342.511Z" fill="#F15A29"/>
</g>
<mask id="mask7_1_5" style="mask-type:alpha" maskUnits="userSpaceOnUse" x="458" y="179" width="694" height="463">
<path d="M1088.69 477.422C1117.45 454.976 1137.02 434.086 1145.76 416.378C1154.54 398.6 1152.8 383.828 1140.6 372.467C1096.56 308.878 988.856 235.806 942.859 204.599C885.309 165.705 787.483 171.83 704.965 219.492C641.426 260.143 560.852 300.422 512.711 324.487C507.599 327.042 502.804 329.439 498.377 331.662C481.974 339.952 469.985 354.338 463.703 373.259C452.858 405.923 460.04 449.278 482.442 486.4C504.702 524.504 529.977 563.812 563.881 593.156C600.064 624.47 641.808 640.365 691.497 641.749C741.709 644.955 840.159 614.956 942.288 565.322C991.394 541.456 1035.94 515.59 1071.1 490.521C1077.29 486.105 1083.16 481.732 1088.69 477.422ZM488.231 339.645C491.536 337.066 495.1 334.804 498.908 332.88C503.332 330.658 508.126 328.262 513.238 325.707C561.405 301.627 642.025 261.326 705.604 220.649C787.638 173.267 884.868 167.136 942.019 205.759C987.973 236.936 1095.59 309.951 1139.49 373.369L1139.52 373.423L1139.57 373.468C1151.35 384.407 1153.02 398.669 1144.54 415.859C1134.23 436.74 1108.58 462.181 1070.37 489.423C1035.27 514.443 990.808 540.265 941.777 564.093C839.86 613.624 741.692 643.567 691.681 640.374C581.331 637.299 528.403 562.241 483.647 485.626L483.642 485.617C461.426 448.807 454.285 405.878 465.008 373.583C469.698 359.459 477.626 347.921 488.231 339.645Z" fill="url(#paint1_linear_1_5)"/>
</mask>
<g mask="url(#mask7_1_5)">
<path d="M1088.27 478.211C1116.97 455.737 1136.49 434.807 1145.2 417.05C1153.95 399.223 1152.2 384.393 1140.01 372.967C1095.99 309.059 988.402 235.513 942.454 204.103C884.966 164.956 787.307 170.918 704.967 218.6C641.568 259.281 561.162 299.556 513.122 323.619C508.021 326.174 503.235 328.571 498.818 330.793C482.449 339.083 470.492 353.499 464.237 372.479C453.437 405.243 460.644 448.772 483.041 486.074C505.297 524.361 530.563 563.862 564.437 593.378C600.587 624.877 642.275 640.91 691.882 642.394C742.014 645.707 840.275 615.783 942.193 566.159C991.197 542.298 1035.64 516.421 1070.73 491.326C1076.91 486.906 1082.76 482.527 1088.27 478.211ZM488.695 338.787C491.992 336.205 495.548 333.941 499.348 332.016C503.763 329.795 508.547 327.399 513.648 324.844C561.716 300.767 642.167 260.469 705.606 219.762C787.464 172.361 884.528 166.392 941.616 205.266C987.521 236.646 1095.02 310.134 1138.9 373.87L1138.94 373.924L1138.98 373.969C1150.75 384.971 1152.44 399.289 1143.98 416.527C1133.71 437.465 1108.12 462.952 1070 490.223C1034.98 515.269 990.611 541.101 941.681 564.925C839.975 614.446 741.996 644.313 692.066 641.013C581.896 637.718 528.991 562.283 484.243 485.298L484.238 485.29C462.027 448.302 454.862 405.2 465.539 372.806C470.209 358.639 478.115 347.073 488.695 338.787Z" fill="#F15A29"/>
</g>
<mask id="mask8_1_5" style="mask-type:alpha" maskUnits="userSpaceOnUse" x="519" y="201" width="577" height="389">
<path d="M1053.2 458.09C1070.79 444.365 1083.43 431.407 1089.95 420.012C1096.96 407.741 1096.95 397.373 1089.92 389.196C1083.02 367.922 1060.54 339.993 1023.11 306.18C995.842 281.549 959.996 253.54 924.763 229.336C868.161 190.583 789.125 191.912 713.341 232.892C687.703 248.497 660.687 264.296 634.56 279.575C600.77 299.336 568.855 318 548.343 331.441C531.118 342.81 520.839 362.902 519.39 388.002C518.017 411.793 524.903 438.287 538.286 460.694C567.998 512.698 589.745 534.654 605.371 547.971C635.315 573.489 669.733 586.92 710.594 589.033C753.77 593.172 834.258 571.869 920.621 533.436C975.79 508.886 1022.18 482.298 1053.2 458.09ZM545.365 335.032C546.525 334.126 547.721 333.268 548.954 332.452C569.435 319.031 601.335 300.376 635.109 280.625C661.241 265.343 688.263 249.54 713.881 233.946C789.211 193.214 867.772 191.872 924.004 230.371C959.199 254.548 995.003 282.524 1022.24 307.126C1059.59 340.865 1081.97 368.671 1088.78 389.773L1088.81 389.881L1088.88 389.965C1095.63 397.744 1095.63 407.674 1088.89 419.476C1071.03 450.724 1006.4 493.962 920.205 532.319C834.035 570.667 753.793 591.929 710.793 587.807C670.167 585.707 635.969 572.361 606.218 547.006C576.597 521.762 554.932 487.255 539.367 460.013L539.361 460.004C526.09 437.786 519.259 411.529 520.62 387.964C521.941 365.101 530.682 346.491 545.365 335.032Z" fill="white"/>
</mask>
<g mask="url(#mask8_1_5)">
<path d="M1052.84 458.795C1070.39 445.053 1083 432.071 1089.49 420.646C1096.48 408.343 1096.47 397.937 1089.44 389.716C1082.53 368.35 1060.07 340.275 1022.67 306.265C995.429 281.491 959.619 253.309 924.423 228.948C867.884 189.944 788.981 191.128 713.359 232.114C687.777 247.728 660.821 263.534 634.75 278.82C601.035 298.589 569.189 317.261 548.723 330.713C531.536 342.091 521.292 362.237 519.867 387.428C518.517 411.305 525.414 437.91 538.794 460.425C568.502 512.678 590.231 534.757 605.842 548.153C635.758 573.823 670.13 587.37 710.924 589.568C754.031 593.805 834.366 572.577 920.551 534.167C975.606 509.632 1021.9 483.034 1052.84 458.795ZM545.753 334.312C546.91 333.405 548.104 332.545 549.334 331.728C569.769 318.297 601.6 299.634 635.299 279.875C661.375 264.586 688.337 248.776 713.899 233.173C789.067 192.434 867.496 191.237 923.667 229.986C958.824 254.32 994.592 282.468 1021.8 307.213C1059.12 341.148 1081.49 369.1 1088.3 390.293L1088.33 390.401L1088.41 390.486C1095.15 398.307 1095.16 408.274 1088.44 420.107C1070.64 451.435 1006.15 494.711 920.135 533.045C834.142 571.37 754.053 592.557 711.121 588.338C670.562 586.153 636.41 572.692 606.686 547.187C577.093 521.793 555.435 487.116 539.873 459.743L539.867 459.734C526.599 437.409 519.757 411.041 521.095 387.392C522.394 364.447 531.104 345.785 545.753 334.312Z" fill="#F15A29"/>
</g>
<mask id="mask9_1_5" style="mask-type:alpha" maskUnits="userSpaceOnUse" x="579" y="222" width="462" height="316">
<path d="M1017.62 440.995C1024.89 435.317 1030.58 429.907 1034.4 424.917C1039.98 417.619 1041.61 411.281 1039.23 406.073C1045.35 386.321 1020.52 354.848 998.573 331.884C973.825 305.991 939.46 276.907 906.646 254.084C878.38 234.474 849.892 224.231 819.555 222.769C788.574 221.276 756.562 228.974 721.69 246.302C670.746 275.062 622.312 308.403 598.276 331.259C586.612 342.444 579.997 359.69 579.648 379.821C579.321 398.654 584.591 418.768 594.108 435.004C618.198 478.693 655.377 529.69 729.668 536.333C765.528 541.385 828.563 528.649 898.257 502.263C949.187 482.979 992.711 460.433 1017.62 440.995ZM620.8 313.495C646.913 293.114 683.812 268.884 722.13 247.251C756.791 230.028 788.62 222.37 819.406 223.854C849.547 225.307 877.862 235.493 905.972 254.994C967.305 297.652 1048.86 372.716 1038.13 406.032L1038.06 406.24L1038.15 406.424C1040.47 411.277 1038.92 417.293 1033.55 424.307C1016.79 446.208 963.562 476.409 897.951 501.248C828.426 527.571 765.598 540.282 729.885 535.251C656.028 528.647 619.042 477.89 595.068 434.411L595.061 434.399C585.633 418.314 580.411 398.392 580.735 379.742C581.079 359.921 587.562 342.97 598.989 332.01C604.891 326.4 612.271 320.152 620.8 313.495Z" fill="white"/>
</mask>
<g mask="url(#mask9_1_5)">
<path d="M1017.32 441.624C1024.58 435.938 1030.25 430.519 1034.05 425.518C1039.63 418.204 1041.24 411.845 1038.86 406.614C1044.95 386.8 1020.14 355.163 998.211 332.071C973.483 306.035 939.152 276.777 906.374 253.806C878.138 234.068 849.69 223.732 819.404 222.206C788.474 220.648 756.524 228.312 721.726 245.637C670.895 274.405 622.572 307.776 598.596 330.671C586.962 341.875 580.374 359.172 580.043 379.377C579.733 398.279 585.012 418.477 594.526 434.793C618.613 478.69 655.774 529.947 729.944 536.759C765.747 541.899 828.663 529.238 898.216 502.888C949.041 483.631 992.472 461.086 1017.32 441.624ZM621.067 312.884C647.118 292.478 683.932 268.229 722.167 246.591C756.754 229.371 788.522 221.746 819.256 223.294C849.347 224.811 877.623 235.09 905.702 254.717C966.967 297.652 1048.44 373.152 1037.76 406.571L1037.7 406.779L1037.79 406.965C1040.1 411.84 1038.57 417.875 1033.21 424.904C1016.5 446.855 963.387 477.065 897.909 501.869C828.526 528.155 765.816 540.792 730.159 535.673C656.423 528.902 619.455 477.886 595.484 434.198L595.478 434.187C586.051 418.024 580.821 398.018 581.128 379.299C581.455 359.405 587.911 342.404 599.309 331.426C605.196 325.806 612.558 319.549 621.067 312.884Z" fill="#F15A29"/>
</g>
<mask id="mask10_1_5" style="mask-type:alpha" maskUnits="userSpaceOnUse" x="639" y="243" width="359" height="244">
<path d="M981.637 430.085C984.773 427.638 986.942 425.355 988 423.304C993.762 419.924 997.027 414.996 997.708 408.662C999.703 390.13 979.575 363.497 962.339 344.419C941.83 321.716 914.153 297.296 888.305 279.093C859.047 258.518 835.626 247.883 812.361 244.61C787.542 241.119 761.341 245.99 729.904 259.943C695.031 277.256 662.95 305.253 648.149 331.282C634.951 354.702 638.667 389.399 649.882 409.416C671.758 451.796 704.982 476.791 748.63 483.704C765.574 487.246 787.901 487.309 814.965 483.89C838.397 480.929 864.733 475.38 891.124 467.842C932.442 456.039 967.237 441.323 981.637 430.085ZM987.305 422.661L987.234 422.806C986.252 424.798 984.153 427.023 981.096 429.408C949.403 454.148 814.489 496.488 748.879 482.778C705.489 475.905 672.473 451.057 650.725 408.921L650.718 408.908C639.622 389.109 635.93 354.811 648.961 331.688C663.662 305.835 695.566 278.003 730.241 260.789C761.481 246.925 787.514 242.077 812.149 245.543C835.269 248.796 858.575 259.384 887.717 279.878C913.518 298.048 941.144 322.423 961.614 345.082C978.734 364.032 998.73 390.442 996.771 408.645C996.121 414.686 992.981 419.376 987.445 422.581L987.305 422.661Z" fill="white"/>
</mask>
<g mask="url(#mask10_1_5)">
<path d="M981.422 430.64C984.55 428.189 986.713 425.903 987.767 423.846C993.517 420.464 996.772 415.525 997.446 409.169C999.422 390.571 979.305 363.801 962.081 344.619C941.587 321.793 913.936 297.229 888.116 278.909C858.89 258.202 835.499 247.482 812.271 244.152C787.491 240.601 761.338 245.44 729.966 259.384C695.167 276.694 663.165 304.733 648.411 330.83C635.256 354.312 638.995 389.144 650.209 409.257C672.084 451.836 705.274 476.987 748.855 484.01C765.773 487.597 788.062 487.704 815.077 484.324C838.468 481.397 864.754 475.878 891.094 468.363C932.332 456.596 967.055 441.892 981.422 430.64ZM987.073 423.199L987.003 423.344C986.024 425.342 983.931 427.571 980.881 429.959C949.263 454.73 814.614 496.968 749.102 483.081C705.78 476.099 672.797 451.096 651.05 408.762L651.043 408.748C639.949 388.855 636.234 354.423 649.222 331.24C663.876 305.318 695.702 277.445 730.304 260.234C761.479 246.378 787.463 241.563 812.06 245.088C835.144 248.397 858.42 259.07 887.53 279.696C913.303 297.982 940.903 322.502 961.358 345.284C978.466 364.336 998.451 390.883 996.511 409.149C995.868 415.211 992.737 419.913 987.213 423.119L987.073 423.199Z" fill="#F15A29"/>
</g>
<mask id="mask11_1_5" style="mask-type:alpha" maskUnits="userSpaceOnUse" x="697" y="263" width="265" height="182">
<path d="M954.499 434.052C957.64 431.6 959.801 428.535 960.966 424.866C963.885 415.668 961.862 397.933 935.649 365.685C918.077 344.069 893.546 321.155 870.028 304.39C842.234 284.577 824.002 272.156 805.203 266.741C785.754 261.139 766.315 263.211 738.106 273.891C722.557 279.776 711.316 290.051 704.692 304.425C690.37 335.508 701.953 375.875 705.587 384.202C712.378 399.756 725.638 412.591 745.004 422.352C761.672 430.754 782.894 436.918 808.079 440.673C853.603 447.462 904.408 445.063 936.775 440.556C944.392 439.496 950.315 437.318 954.499 434.052ZM721.861 283.757C726.644 280.023 732.139 276.976 738.328 274.634C766.356 264.023 785.648 261.959 804.919 267.509C823.607 272.892 841.794 285.284 869.526 305.054C912.405 335.621 969.369 395.812 960.206 424.69C957.605 432.887 949.708 437.961 936.732 439.767C904.422 444.267 853.705 446.661 808.264 439.885C783.157 436.142 762.011 430.001 745.412 421.634C726.198 411.949 713.047 399.231 706.324 383.831C702.716 375.567 691.216 335.512 705.411 304.704C709.298 296.269 714.804 289.265 721.861 283.757Z" fill="white"/>
</mask>
<g mask="url(#mask11_1_5)">
<path d="M954.356 434.588C957.49 432.133 959.645 429.061 960.804 425.381C963.71 416.154 961.675 398.349 935.479 365.931C917.919 344.2 893.41 321.153 869.917 304.28C842.154 284.34 823.942 271.837 805.171 266.365C785.751 260.705 766.347 262.747 738.197 273.411C722.68 279.288 711.467 289.579 704.866 303.994C690.596 335.164 702.195 375.703 705.83 384.069C712.623 399.693 725.872 412.602 745.212 422.437C761.859 430.902 783.05 437.13 808.195 440.949C853.646 447.851 904.361 445.543 936.668 441.081C944.272 440.032 950.182 437.858 954.356 434.588ZM721.987 283.282C726.759 279.544 732.243 276.496 738.419 274.157C766.389 263.562 785.646 261.527 804.888 267.136C823.549 272.575 841.715 285.048 869.417 304.946C912.248 335.71 969.168 396.235 960.045 425.202C957.456 433.424 949.577 438.502 936.625 440.29C904.374 444.743 853.747 447.047 808.379 440.157C783.312 436.352 762.197 430.147 745.619 421.717C726.43 411.959 713.29 399.167 706.566 383.698C702.957 375.396 691.441 335.17 705.585 304.275C709.457 295.816 714.948 288.797 721.987 283.282Z" fill="#F15A29"/>
</g>
<defs>
<linearGradient id="paint0_linear_1_5" x1="817.343" y1="113.098" x2="836.018" y2="794.449" gradientUnits="userSpaceOnUse">
<stop stop-color="white"/>
<stop offset="0.0436" stop-color="#B4B4B4"/>
<stop offset="0.1507"/>
<stop offset="0.1714" stop-color="#171717"/>
<stop offset="0.3859" stop-color="white"/>
<stop offset="0.6326" stop-color="#E6E6E6"/>
<stop offset="0.8567" stop-color="#1A1A1A"/>
<stop offset="0.9987"/>
</linearGradient>
<linearGradient id="paint1_linear_1_5" x1="818.496" y1="179.842" x2="831.115" y2="638.406" gradientUnits="userSpaceOnUse">
<stop stop-color="white"/>
<stop offset="0.0436" stop-color="#B4B4B4"/>
<stop offset="0.1507"/>
<stop offset="0.1714" stop-color="#171717"/>
<stop offset="0.3859" stop-color="white"/>
<stop offset="0.6326" stop-color="#E6E6E6"/>
<stop offset="0.8567" stop-color="#1A1A1A"/>
<stop offset="0.9987"/>
</linearGradient>
</defs>
</svg>
