{"asset":{"version":"2.0","generator":"Created using the official Cinema 4D glTF Exporter 1.000x284978"},"images":[{"uri":"data:image/jpeg;base64,"}],"scenes":[{"nodes":[0,1,3,4,6,7]}],"nodes":[{"name":"Camera","translation":[0.0,0.0,358.59088134765627],"rotation":[0.0,0.0,0.0,-1.0],"scale":[1.0,1.0,1.0],"camera":0},{"name":"Null.1","translation":[-0.009602808393537999,45.804298400878909,0.6155818700790405],"rotation":[0.08160404115915299,-0.9300071001052856,-0.031324855983257297,0.3569962680339813],"scale":[1.0,1.0,1.0],"children":[2]},{"name":"Sphere","translation":[-15.24905776977539,2.6645352591003758e-15,-1.7763568394002506e-15],"rotation":[0.33456531167030337,0.33456531167030337,-0.8715724349021912,0.12842757999897004],"scale":[1.0,1.0,1.0],"mesh":0},{"name":"Sphere.3","translation":[0.0,0.0,0.0],"rotation":[0.33456531167030337,0.33456531167030337,-0.8715724349021912,0.12842757999897004],"scale":[1.0,1.0,1.0],"mesh":1},{"name":"Null","translation":[0.0,0.0,0.0],"rotation":[0.0,-0.9335803985595703,0.0,-0.3583679497241974],"scale":[1.0,1.0,1.0],"children":[5]},{"name":"Cube","translation":[-41.07728958129883,-23.375293731689454,-40.747737884521487],"rotation":[0.33049365878105166,0.5847340226173401,0.11049038916826248,0.7325652837753296],"scale":[1.0,1.0,1.0],"mesh":2},{"name":"Pyramid","translation":[-42.1759033203125,38.51692581176758,21.108741760253908],"rotation":[0.3926279842853546,0.8325254917144775,-0.029919495806097986,0.38967862725257876],"scale":[1.0,1.0,1.0],"mesh":3},{"name":"Pyramid.2","translation":[45.14413070678711,21.919851303100587,23.380403518676759],"rotation":[0.7755830883979797,0.43127715587615969,0.2534675896167755,0.3850001096725464],"scale":[1.0,1.0,1.0],"mesh":4}],"meshes":[{"name":"Sphere","primitives":[{"attributes":{"POSITION":3,"NORMAL":4,"TEXCOORD_0":5},"indices":2,"material":0}]},{"name":"Sphere.3","primitives":[{"attributes":{"POSITION":9,"NORMAL":10,"TEXCOORD_0":11},"indices":8,"material":0}]},{"name":"Cube","primitives":[{"attributes":{"POSITION":17,"NORMAL":18,"TEXCOORD_0":19},"indices":16,"material":0}]},{"name":"Pyramid","primitives":[{"attributes":{"POSITION":23,"NORMAL":24,"TEXCOORD_0":25},"indices":22,"material":0}]},{"name":"Pyramid.2","primitives":[{"attributes":{"POSITION":29,"NORMAL":30,"TEXCOORD_0":31},"indices":28,"material":0}]}],"cameras":[{"type":"perspective","perspective":{"znear":0.009999999776482582,"zfar":10000000000.0,"aspectRatio":1.0,"yfov":0.3561858832836151}}],"accessors":[{"min":[0.0],"bufferView":0,"type":"SCALAR","componentType":5126,"count":301,"byteOffset":0,"max":[10.0]},{"min":[0.0,-0.9945447444915772,-0.038149986416101459,-1.0],"bufferView":0,"type":"VEC4","componentType":5126,"count":301,"byteOffset":1204,"max":[0.10446305572986603,0.0,0.04163725674152374,0.9999451637268066]},{"min":[0],"bufferView":1,"type":"SCALAR","componentType":5123,"count":11904,"byteOffset":0,"max":[2142]},{"min":[-4.004456996917725,-4.004456996917725,-4.004456996917725],"bufferView":2,"type":"VEC3","componentType":5126,"count":2143,"byteOffset":0,"max":[4.004456996917725,4.004456996917725,4.004456996917725]},{"min":[-0.9999999403953552,-0.9999999403953552,-0.9999999403953552],"bufferView":2,"type":"VEC3","componentType":5126,"count":2143,"byteOffset":12,"max":[0.9999999403953552,0.9999999403953552,0.9999999403953552]},{"min":[0.0,0.0],"bufferView":2,"type":"VEC2","componentType":5126,"count":2143,"byteOffset":24,"max":[0.6000000238418579,0.6000000238418579]},{"min":[0.0],"bufferView":3,"type":"SCALAR","componentType":5126,"count":301,"byteOffset":0,"max":[10.0]},{"min":[-0.5,-0.5,-1.0,-1.0],"bufferView":3,"type":"VEC4","componentType":5126,"count":301,"byteOffset":1204,"max":[0.5,0.5,0.9998903274536133,1.0]},{"min":[0],"bufferView":4,"type":"SCALAR","componentType":5123,"count":11904,"byteOffset":0,"max":[2142]},{"min":[-36.704288482666019,-36.704288482666019,-36.704288482666019],"bufferView":5,"type":"VEC3","componentType":5126,"count":2143,"byteOffset":0,"max":[36.704288482666019,36.704288482666019,36.704288482666019]},{"min":[-0.9999999403953552,-0.9999999403953552,-0.9999999403953552],"bufferView":5,"type":"VEC3","componentType":5126,"count":2143,"byteOffset":12,"max":[0.9999999403953552,0.9999999403953552,0.9999999403953552]},{"min":[0.0,0.0],"bufferView":5,"type":"VEC2","componentType":5126,"count":2143,"byteOffset":24,"max":[2.0,2.0]},{"min":[0.0],"bufferView":6,"type":"SCALAR","componentType":5126,"count":301,"byteOffset":0,"max":[10.0]},{"min":[-0.5,-0.5,-1.0,-1.0],"bufferView":6,"type":"VEC4","componentType":5126,"count":301,"byteOffset":1204,"max":[0.5,0.5,0.9998903274536133,1.0]},{"min":[0.0],"bufferView":7,"type":"SCALAR","componentType":5126,"count":301,"byteOffset":0,"max":[10.0]},{"min":[0.0,-1.0,-9.670116263293949e-9,-1.0],"bufferView":7,"type":"VEC4","componentType":5126,"count":301,"byteOffset":1204,"max":[6.955716003176349e-9,0.0,2.958982392442522e-9,1.0]},{"min":[0],"bufferView":8,"type":"SCALAR","componentType":5123,"count":576,"byteOffset":0,"max":[149]},{"min":[-4.14202356338501,-4.14202356338501,-4.14202356338501],"bufferView":9,"type":"VEC3","componentType":5126,"count":150,"byteOffset":0,"max":[4.14202356338501,4.14202356338501,4.14202356338501]},{"min":[-1.0,-1.0,-1.0],"bufferView":9,"type":"VEC3","componentType":5126,"count":150,"byteOffset":12,"max":[1.0,1.0,1.0]},{"min":[0.0,0.0],"bufferView":9,"type":"VEC2","componentType":5126,"count":150,"byteOffset":24,"max":[1.0,1.0]},{"min":[0.0],"bufferView":10,"type":"SCALAR","componentType":5126,"count":301,"byteOffset":0,"max":[10.0]},{"min":[-0.16528363525867463,-0.055639784783124927,-0.3484615683555603,-0.934295117855072],"bufferView":10,"type":"VEC4","componentType":5126,"count":301,"byteOffset":1204,"max":[0.3484615683555603,0.93731290102005,0.30325379967689516,0.93731290102005]},{"min":[0],"bufferView":11,"type":"SCALAR","componentType":5123,"count":288,"byteOffset":0,"max":[84]},{"min":[-8.53879451751709,-8.53879451751709,-8.53879451751709],"bufferView":12,"type":"VEC3","componentType":5126,"count":85,"byteOffset":0,"max":[8.53879451751709,8.53879451751709,8.53879451751709]},{"min":[-0.8944272398948669,-1.0,-0.8944272398948669],"bufferView":12,"type":"VEC3","componentType":5126,"count":85,"byteOffset":12,"max":[0.8944272398948669,0.44721364974975588,0.8944272398948669]},{"min":[0.0,0.0],"bufferView":12,"type":"VEC2","componentType":5126,"count":85,"byteOffset":24,"max":[1.0,1.0]},{"min":[0.0],"bufferView":13,"type":"SCALAR","componentType":5126,"count":301,"byteOffset":0,"max":[10.0]},{"min":[-0.16863754391670228,-0.0654458999633789,-0.39376482367515566,-0.916877806186676],"bufferView":13,"type":"VEC4","componentType":5126,"count":301,"byteOffset":1204,"max":[0.39376482367515566,0.9192086458206177,0.35582759976387026,0.9192086458206177]},{"min":[0],"bufferView":14,"type":"SCALAR","componentType":5123,"count":288,"byteOffset":0,"max":[84]},{"min":[-5.203934669494629,-5.203934669494629,-5.203934669494629],"bufferView":15,"type":"VEC3","componentType":5126,"count":85,"byteOffset":0,"max":[5.203934669494629,5.203934669494629,5.203934669494629]},{"min":[-0.8944272398948669,-1.0,-0.8944272398948669],"bufferView":15,"type":"VEC3","componentType":5126,"count":85,"byteOffset":12,"max":[0.8944272398948669,0.44721361994743349,0.8944272398948669]},{"min":[0.0,0.0],"bufferView":15,"type":"VEC2","componentType":5126,"count":85,"byteOffset":24,"max":[1.0,1.0]},{"min":[0.0],"bufferView":16,"type":"SCALAR","componentType":5126,"count":301,"byteOffset":0,"max":[10.0]},{"min":[-0.4360097050666809,-0.8310810327529907,-0.46361756324768069,-0.8780763149261475],"bufferView":16,"type":"VEC4","componentType":5126,"count":301,"byteOffset":1204,"max":[0.46361756324768069,0.8860334157943726,0.4360097050666809,0.8860334157943726]}],"bufferViews":[{"buffer":0,"byteOffset":0,"byteLength":6020},{"buffer":1,"byteOffset":0,"byteLength":23808,"target":34963},{"buffer":1,"byteOffset":23808,"byteLength":68576,"target":34962,"byteStride":32},{"buffer":2,"byteOffset":0,"byteLength":6020},{"buffer":3,"byteOffset":0,"byteLength":23808,"target":34963},{"buffer":3,"byteOffset":23808,"byteLength":68576,"target":34962,"byteStride":32},{"buffer":4,"byteOffset":0,"byteLength":6020},{"buffer":5,"byteOffset":0,"byteLength":6020},{"buffer":6,"byteOffset":0,"byteLength":1152,"target":34963},{"buffer":6,"byteOffset":1152,"byteLength":4800,"target":34962,"byteStride":32},{"buffer":7,"byteOffset":0,"byteLength":6020},{"buffer":8,"byteOffset":0,"byteLength":576,"target":34963},{"buffer":8,"byteOffset":576,"byteLength":2720,"target":34962,"byteStride":32},{"buffer":9,"byteOffset":0,"byteLength":6020},{"buffer":10,"byteOffset":0,"byteLength":576,"target":34963},{"buffer":10,"byteOffset":576,"byteLength":2720,"target":34962,"byteStride":32},{"buffer":11,"byteOffset":0,"byteLength":6020}],"buffers":[{"uri":"data:application/octet-stream;base64,","byteLength":6020},{"uri":"data:application/octet-stream;base64,","byteLength":92384},{"uri":"data:application/octet-stream;base64,","byteLength":6020},{"uri":"data:application/octet-stream;base64,","byteLength":92384},{"uri":"data:application/octet-stream;base64,","byteLength":6020},{"uri":"data:application/octet-stream;base64,","byteLength":6020},{"uri":"data:application/octet-stream;base64,","byteLength":5952},{"uri":"data:application/octet-stream;base64,","byteLength":6020},{"uri":"data:application/octet-stream;base64,", "byteLength":3296},{"uri":"data:application/octet-stream;base64,","byteLength":6020},{"uri":"data:application/octet-stream;base64,","byteLength":3296},{"uri":"data:application/octet-stream;base64,","byteLength":6020}],"samplers":[{"magFilter":9729,"minFilter":9729,"wrapS":10497,"wrapT":10497}],"textures":[{"sampler":0,"source":0}],"materials":[{"pbrMetallicRoughness":{"baseColorFactor":[0.01,0.01,0.01,1.0],"metallicRoughnessTexture":{"index":0},"metallicFactor":0.0,"roughnessFactor":1.0},"emissiveFactor":[0.0,0.0,0.0],"alphaMode":"OPAQUE","doubleSided":false,"name":"Mat"}],"animations":[{"samplers":[{"input":0,"interpolation":"LINEAR","output":1},{"input":6,"interpolation":"LINEAR","output":7},{"input":12,"interpolation":"LINEAR","output":13},{"input":14,"interpolation":"LINEAR","output":15},{"input":20,"interpolation":"LINEAR","output":21},{"input":26,"interpolation":"LINEAR","output":27},{"input":32,"interpolation":"LINEAR","output":33}],"channels":[{"sampler":0,"target":{"node":1,"path":"rotation"}},{"sampler":1,"target":{"node":2,"path":"rotation"}},{"sampler":2,"target":{"node":3,"path":"rotation"}},{"sampler":3,"target":{"node":4,"path":"rotation"}},{"sampler":4,"target":{"node":5,"path":"rotation"}},{"sampler":5,"target":{"node":6,"path":"rotation"}},{"sampler":6,"target":{"node":7,"path":"rotation"}}]}]}