{
	"asset":{
		"version":"2.0",
		"generator":"Created using the official Cinema 4D glTF Exporter 1.000x284978"
	},
	"images":[{
		"uri":"data:image/jpeg;base64,"
	}],
	"scenes":[{
		"nodes":[0,
		1,
		3]
	}],
	"nodes":[{
		"name":"Camera",
		"translation":[0.0,
		0.0,
		358.59088134765627],
		"rotation":[0.0,
		0.0,
		0.0,
		-1.0],
		"scale":[1.0,
		1.0,
		1.0],
		"camera":0
	},
	{
		"name":"Sphere Instance.1",
		"translation":[42.42662811279297,
		25.789413452148439,
		-2.471738815307617],
		"rotation":[0.0,
		0.0,
		0.0,
		-1.0],
		"scale":[0.10000000149011612,
		0.10000000149011612,
		0.10000000149011612],
		"children":[2]
	},
	{
		"name":"Sphere",
		"translation":[-3.927851438522339,
		-289.42498779296877,
		88.52517700195313],
		"rotation":[0.0,
		0.0,
		0.0,
		-1.0],
		"scale":[1.0,
		1.0,
		1.0],
		"mesh":0
	},
	{
		"name":"gamedev",
		"translation":[-23.92931365966797,
		4.749915599822998,
		-11.430623054504395],
		"rotation":[0.0,
		0.0,
		0.0,
		-1.0],
		"scale":[1.0,
		1.0,
		1.0],
		"children":[4,
		6,
		8]
	},
	{
		"name":"Sphere Instance",
		"translation":[16.207347869873048,
		-9.89358139038086,
		22.823177337646486],
		"rotation":[0.0,
		0.0,
		0.14249339699745179,
		-0.9897957444190979],
		"scale":[0.10000000149011612,
		0.10000000149011612,
		0.10000000149011612],
		"children":[5]
	},
	{
		"name":"Sphere",
		"translation":[-437.3423156738281,
		152.6022491455078,
		4.263256414560601e-14],
		"rotation":[0.0,
		0.0,
		0.14249339699745179,
		0.9897957444190979],
		"scale":[1.0,
		1.0,
		1.0],
		"mesh":1
	},
	{
		"name":"Platonic Instance",
		"translation":[14.657736778259278,
		-9.722016334533692,
		12.716608047485352],
		"rotation":[0.08976411074399948,
		0.6065507531166077,
		-0.061087749898433688,
		0.7875956296920776],
		"scale":[1.0,
		1.0,
		1.0],
		"children":[7]
	},
	{
		"name":"dodeca",
		"translation":[2.220446049250313e-16,
		-9.298117831235687e-16,
		-1.4432899320127036e-15],
		"rotation":[0.0,
		-1.3877787807814458e-17,
		0.0,
		-1.0],
		"scale":[1.0,
		1.0,
		1.0],
		"mesh":2
	},
	{
		"name":"Platonic Instance",
		"translation":[60.00782775878906,
		17.15985870361328,
		10.225709915161133],
		"rotation":[-0.054114557802677158,
		-0.37646597623825076,
		0.3721453845500946,
		-0.8466715812683106],
		"scale":[0.5,
		0.5,
		0.5],
		"children":[9]
	},
	{
		"name":"dodeca",
		"translation":[0.2729702889919281,
		10.825600624084473,
		3.1326539516448976],
		"rotation":[-2.7755575615628916e-17,
		-2.7755575615628916e-17,
		7.703719777548944e-34,
		-1.0],
		"scale":[1.0,
		1.0,
		1.0],
		"mesh":3
	}],
	"meshes":[{
		"name":"Sphere",
		"primitives":[{
			"attributes":{
				"POSITION":3,
				"NORMAL":4,
				"TEXCOORD_0":5
			},
			"indices":2,
			"material":0
		}]
	},
	{
		"name":"Sphere",
		"primitives":[{
			"attributes":{
				"POSITION":9,
				"NORMAL":10,
				"TEXCOORD_0":11
			},
			"indices":8,
			"material":0
		}]
	},
	{
		"name":"dodeca",
		"primitives":[{
			"attributes":{
				"POSITION":13,
				"NORMAL":14,
				"TEXCOORD_0":15
			},
			"indices":12,
			"material":0
		}]
	},
	{
		"name":"dodeca",
		"primitives":[{
			"attributes":{
				"POSITION":19,
				"NORMAL":20,
				"TEXCOORD_0":21
			},
			"indices":18,
			"material":0
		}]
	}],
	"cameras":[{
		"type":"perspective",
		"perspective":{
			"znear":0.009999999776482582,
			"zfar":10000000000.0,
			"aspectRatio":1.0,
			"yfov":0.3561858832836151
		}
	}],
	"accessors":[{
		"min":[0.0],
		"bufferView":0,
		"type":"SCALAR",
		"componentType":5126,
		"count":301,
		"byteOffset":0,
		"max":[10.0]
	},
	{
		"min":[0.0,
		-0.5,
		-1.0,
		-1.0],
		"bufferView":0,
		"type":"VEC4",
		"componentType":5126,
		"count":301,
		"byteOffset":1204,
		"max":[0.5,
		0.0,
		0.9998903274536133,
		0.9998903274536133]
	},
	{
		"min":[0],
		"bufferView":1,
		"type":"SCALAR",
		"componentType":5123,
		"count":11904,
		"byteOffset":0,
		"max":[2142]
	},
	{
		"min":[-35.10521697998047,
		-35.10521697998047,
		-35.10521697998047],
		"bufferView":2,
		"type":"VEC3",
		"componentType":5126,
		"count":2143,
		"byteOffset":0,
		"max":[35.10521697998047,
		35.10521697998047,
		35.10521697998047]
	},
	{
		"min":[-0.9999999403953552,
		-0.9999999403953552,
		-0.9999999403953552],
		"bufferView":2,
		"type":"VEC3",
		"componentType":5126,
		"count":2143,
		"byteOffset":12,
		"max":[0.9999999403953552,
		1.0,
		0.9999999403953552]
	},
	{
		"min":[0.0,
		0.0],
		"bufferView":2,
		"type":"VEC2",
		"componentType":5126,
		"count":2143,
		"byteOffset":24,
		"max":[0.8600000143051148,
		0.8600000143051148]
	},
	{
		"min":[0.0],
		"bufferView":3,
		"type":"SCALAR",
		"componentType":5126,
		"count":301,
		"byteOffset":0,
		"max":[10.0]
	},
	{
		"min":[-0.10075804591178894,
		-0.6998912692070007,
		-0.142485573887825,
		-0.9897957444190979],
		"bufferView":3,
		"type":"VEC4",
		"componentType":5126,
		"count":301,
		"byteOffset":1204,
		"max":[0.14249339699745179,
		0.9897957444190979,
		0.14249339699745179,
		0.9897415041923523]
	},
	{
		"min":[0],
		"bufferView":4,
		"type":"SCALAR",
		"componentType":5123,
		"count":11904,
		"byteOffset":0,
		"max":[2142]
	},
	{
		"min":[-54.65801239013672,
		-54.65801239013672,
		-54.65801239013672],
		"bufferView":5,
		"type":"VEC3",
		"componentType":5126,
		"count":2143,
		"byteOffset":0,
		"max":[54.65801239013672,
		54.65801239013672,
		54.65801239013672]
	},
	{
		"min":[-0.9999999403953552,
		-0.9999999403953552,
		-0.9999999403953552],
		"bufferView":5,
		"type":"VEC3",
		"componentType":5126,
		"count":2143,
		"byteOffset":12,
		"max":[0.9999999403953552,
		0.9999999403953552,
		0.9999999403953552]
	},
	{
		"min":[0.0,
		0.0],
		"bufferView":5,
		"type":"VEC2",
		"componentType":5126,
		"count":2143,
		"byteOffset":24,
		"max":[0.8600000143051148,
		0.8600000143051148]
	},
	{
		"min":[0],
		"bufferView":6,
		"type":"SCALAR",
		"componentType":5123,
		"count":1728,
		"byteOffset":0,
		"max":[473]
	},
	{
		"min":[-36.84840393066406,
		-36.84840393066406,
		-36.84840393066406],
		"bufferView":7,
		"type":"VEC3",
		"componentType":5126,
		"count":474,
		"byteOffset":0,
		"max":[36.84840393066406,
		36.84840393066406,
		36.84840393066406]
	},
	{
		"min":[-0.8506510257720947,
		-0.8506510257720947,
		-0.8506510257720947],
		"bufferView":7,
		"type":"VEC3",
		"componentType":5126,
		"count":474,
		"byteOffset":12,
		"max":[0.8506510257720947,
		0.8506510257720947,
		0.8506510257720947]
	},
	{
		"min":[0.0,
		0.0],
		"bufferView":7,
		"type":"VEC2",
		"componentType":5126,
		"count":474,
		"byteOffset":24,
		"max":[2.0,
		1.9839999675750733]
	},
	{
		"min":[0.0],
		"bufferView":8,
		"type":"SCALAR",
		"componentType":5126,
		"count":301,
		"byteOffset":0,
		"max":[10.0]
	},
	{
		"min":[0.0,
		-1.0,
		0.0,
		-1.0],
		"bufferView":8,
		"type":"VEC4",
		"componentType":5126,
		"count":301,
		"byteOffset":1204,
		"max":[0.0,
		0.0,
		0.0,
		1.0]
	},
	{
		"min":[0],
		"bufferView":9,
		"type":"SCALAR",
		"componentType":5123,
		"count":1728,
		"byteOffset":0,
		"max":[473]
	},
	{
		"min":[-36.84840393066406,
		-36.84840393066406,
		-36.84840393066406],
		"bufferView":10,
		"type":"VEC3",
		"componentType":5126,
		"count":474,
		"byteOffset":0,
		"max":[36.84840393066406,
		36.84840393066406,
		36.84840393066406]
	},
	{
		"min":[-0.8506510257720947,
		-0.8506510257720947,
		-0.8506510257720947],
		"bufferView":10,
		"type":"VEC3",
		"componentType":5126,
		"count":474,
		"byteOffset":12,
		"max":[0.8506510257720947,
		0.8506510257720947,
		0.8506510257720947]
	},
	{
		"min":[0.0,
		0.0],
		"bufferView":10,
		"type":"VEC2",
		"componentType":5126,
		"count":474,
		"byteOffset":24,
		"max":[1.2100000381469727,
		1.2003200054168702]
	},
	{
		"min":[0.0],
		"bufferView":11,
		"type":"SCALAR",
		"componentType":5126,
		"count":301,
		"byteOffset":0,
		"max":[10.0]
	},
	{
		"min":[-0.5,
		-0.5,
		-1.0,
		-1.0],
		"bufferView":11,
		"type":"VEC4",
		"componentType":5126,
		"count":301,
		"byteOffset":1204,
		"max":[0.5,
		0.5,
		0.9998903274536133,
		1.0]
	}],
	"bufferViews":[{
		"buffer":0,
		"byteOffset":0,
		"byteLength":6020
	},
	{
		"buffer":1,
		"byteOffset":0,
		"byteLength":23808,
		"target":34963
	},
	{
		"buffer":1,
		"byteOffset":23808,
		"byteLength":68576,
		"target":34962,
		"byteStride":32
	},
	{
		"buffer":2,
		"byteOffset":0,
		"byteLength":6020
	},
	{
		"buffer":3,
		"byteOffset":0,
		"byteLength":23808,
		"target":34963
	},
	{
		"buffer":3,
		"byteOffset":23808,
		"byteLength":68576,
		"target":34962,
		"byteStride":32
	},
	{
		"buffer":4,
		"byteOffset":0,
		"byteLength":3456,
		"target":34963
	},
	{
		"buffer":4,
		"byteOffset":3456,
		"byteLength":15168,
		"target":34962,
		"byteStride":32
	},
	{
		"buffer":5,
		"byteOffset":0,
		"byteLength":6020
	},
	{
		"buffer":6,
		"byteOffset":0,
		"byteLength":3456,
		"target":34963
	},
	{
		"buffer":6,
		"byteOffset":3456,
		"byteLength":15168,
		"target":34962,
		"byteStride":32
	},
	{
		"buffer":7,
		"byteOffset":0,
		"byteLength":6020
	}],
	"buffers":[{
		"uri":"data:application/octet-stream;base64,",
		"byteLength":6020
	},
	{
		"uri":"data:application/octet-stream;base64,",
		"byteLength":92384
	},
	{
		"uri":"data:application/octet-stream;base64,",
		"byteLength":6020
	},
	{
		"uri":"data:application/octet-stream;base64,",
		"byteLength":92384
	},
	{
		"uri":"data:application/octet-stream;base64,",
		"byteLength":18624
	},
	{
		"uri":"data:application/octet-stream;base64,",
		"byteLength":6020
	},
	{
		"uri":"data:application/octet-stream;base64,",
		"byteLength":18624
	},
	{
		"uri":"data:application/octet-stream;base64,",
		"byteLength":6020
	}],
	"samplers":[{
		"magFilter":9729,
		"minFilter":9729,
		"wrapS":10497,
		"wrapT":10497
	}],
	"textures":[{
		"sampler":0,
		"source":0
	}],
	"materials":[{
		"pbrMetallicRoughness":{
			"baseColorFactor":[0.01,
			0.01,
			0.01,
			1.0],
			"metallicRoughnessTexture":{
				"index":0
			},
			"metallicFactor":0.0,
			"roughnessFactor":1.0
		},
		"emissiveFactor":[0.0,
		0.0,
		0.0],
		"alphaMode":"OPAQUE",
		"doubleSided":false,
		"name":"Mat"
	}],
	"animations":[{
		"samplers":[{
			"input":0,
			"interpolation":"LINEAR",
			"output":1
		},
		{
			"input":6,
			"interpolation":"LINEAR",
			"output":7
		},
		{
			"input":16,
			"interpolation":"LINEAR",
			"output":17
		},
		{
			"input":22,
			"interpolation":"LINEAR",
			"output":23
		}],
		"channels":[{
			"sampler":0,
			"target":{
				"node":1,
				"path":"rotation"
			}
		},
		{
			"sampler":1,
			"target":{
				"node":4,
				"path":"rotation"
			}
		},
		{
			"sampler":2,
			"target":{
				"node":7,
				"path":"rotation"
			}
		},
		{
			"sampler":3,
			"target":{
				"node":9,
				"path":"rotation"
			}
		}]
	}]
}