{
	"asset":{
		"version":"2.0",
		"generator":"Created using the official Cinema 4D glTF Exporter 1.000x284978"
	},
	"images":[{
		"uri":"data:image/jpeg;base64,"
	}],
	"scenes":[{
		"nodes":[0,
		1,
		2,
		3,
		5]
	}],
	"nodes":[{
		"name":"Camera",
		"translation":[0.0,
		0.0,
		358.59088134765627],
		"rotation":[0.0,
		0.0,
		0.0,
		-1.0],
		"scale":[1.0,
		1.0,
		1.0],
		"camera":0
	},
	{
		"name":"Cube.3",
		"translation":[25.963356018066408,
		38.54217529296875,
		0.03239894658327103],
		"rotation":[0.5424879789352417,
		-0.0876401960849762,
		0.31218695640563967,
		0.7749614715576172],
		"scale":[1.0,
		1.0,
		1.0],
		"mesh":0
	},
	{
		"name":"octa.1",
		"translation":[-1.0544837713241578,
		-7.728046417236328,
		0.03239894658327103],
		"rotation":[-0.02580169029533863,
		-0.06083180382847786,
		-0.08576799184083939,
		0.9941215515136719],
		"scale":[1.0,
		1.0,
		1.0],
		"mesh":1
	},
	{
		"name":"Null",
		"translation":[3.892857551574707,
		14.031817436218262,
		-4.1311750411987309],
		"rotation":[0.0018751317402347923,
		0.02085830457508564,
		0.08951785415410996,
		0.9957650303840637],
		"scale":[1.0,
		1.0,
		1.0],
		"children":[4]
	},
	{
		"name":"Sphere",
		"translation":[-3.5410070419311525,
		1.609823385706477e-15,
		51.01556396484375],
		"rotation":[0.0,
		-3.469446951953614e-18,
		0.0,
		-1.0],
		"scale":[1.0,
		1.0,
		1.0],
		"mesh":2
	},
	{
		"name":"octa.2",
		"translation":[-37.32178497314453,
		26.824861526489259,
		-12.591559410095215],
		"rotation":[0.2457989752292633,
		-0.40140053629875185,
		0.42223525047302248,
		-0.7747114896774292],
		"scale":[1.0,
		1.0,
		1.0],
		"mesh":3
	}],
	"meshes":[{
		"name":"Cube.6",
		"primitives":[{
			"attributes":{
				"POSITION":1,
				"NORMAL":2,
				"TEXCOORD_0":3
			},
			"indices":0,
			"material":0
		}]
	},
	{
		"name":"octa.1",
		"primitives":[{
			"attributes":{
				"POSITION":7,
				"NORMAL":8,
				"TEXCOORD_0":9
			},
			"indices":6,
			"material":0
		}]
	},
	{
		"name":"Sphere",
		"primitives":[{
			"attributes":{
				"POSITION":15,
				"NORMAL":16,
				"TEXCOORD_0":17
			},
			"indices":14,
			"material":0
		}]
	},
	{
		"name":"octa.2",
		"primitives":[{
			"attributes":{
				"POSITION":19,
				"NORMAL":20,
				"TEXCOORD_0":21
			},
			"indices":18,
			"material":0
		}]
	}],
	"cameras":[{
		"type":"perspective",
		"perspective":{
			"znear":0.009999999776482582,
			"zfar":10000000000.0,
			"aspectRatio":1.0,
			"yfov":0.3561858832836151
		}
	}],
	"accessors":[{
		"min":[0],
		"bufferView":0,
		"type":"SCALAR",
		"componentType":5123,
		"count":576,
		"byteOffset":0,
		"max":[149]
	},
	{
		"min":[-4.1455912590026859,
		-4.1455912590026859,
		-4.1455912590026859],
		"bufferView":1,
		"type":"VEC3",
		"componentType":5126,
		"count":150,
		"byteOffset":0,
		"max":[4.1455912590026859,
		4.1455912590026859,
		4.1455912590026859]
	},
	{
		"min":[-1.0,
		-1.0,
		-1.0],
		"bufferView":1,
		"type":"VEC3",
		"componentType":5126,
		"count":150,
		"byteOffset":12,
		"max":[1.0,
		1.0,
		1.0]
	},
	{
		"min":[0.0,
		0.0],
		"bufferView":1,
		"type":"VEC2",
		"componentType":5126,
		"count":150,
		"byteOffset":24,
		"max":[1.0,
		1.0]
	},
	{
		"min":[0.0],
		"bufferView":2,
		"type":"SCALAR",
		"componentType":5126,
		"count":301,
		"byteOffset":0,
		"max":[10.0]
	},
	{
		"min":[-0.19127297401428224,
		-0.18531247973442079,
		-0.800355851650238,
		-0.6763007640838623],
		"bufferView":2,
		"type":"VEC4",
		"componentType":5126,
		"count":301,
		"byteOffset":1204,
		"max":[0.5995244383811951,
		0.5995244383811951,
		0.6807456612586975,
		0.800355851650238]
	},
	{
		"min":[0],
		"bufferView":3,
		"type":"SCALAR",
		"componentType":5123,
		"count":384,
		"byteOffset":0,
		"max":[119]
	},
	{
		"min":[-44.93281555175781,
		-44.93281555175781,
		-44.93281555175781],
		"bufferView":4,
		"type":"VEC3",
		"componentType":5126,
		"count":120,
		"byteOffset":0,
		"max":[44.93281555175781,
		44.93281555175781,
		44.93281555175781]
	},
	{
		"min":[-0.5773502588272095,
		-0.5773502588272095,
		-0.5773502588272095],
		"bufferView":4,
		"type":"VEC3",
		"componentType":5126,
		"count":120,
		"byteOffset":12,
		"max":[0.5773502588272095,
		0.5773502588272095,
		0.5773502588272095]
	},
	{
		"min":[0.0,
		0.0],
		"bufferView":4,
		"type":"VEC2",
		"componentType":5126,
		"count":120,
		"byteOffset":24,
		"max":[2.0,
		1.7339999675750733]
	},
	{
		"min":[0.0],
		"bufferView":5,
		"type":"SCALAR",
		"componentType":5126,
		"count":301,
		"byteOffset":0,
		"max":[10.0]
	},
	{
		"min":[-0.09158014506101608,
		-0.8639301061630249,
		-0.09158014506101608,
		-0.9944438338279724],
		"bufferView":5,
		"type":"VEC4",
		"componentType":5126,
		"count":301,
		"byteOffset":1204,
		"max":[0.10515061765909195,
		0.9944438338279724,
		0.10515061765909195,
		0.9944438338279724]
	},
	{
		"min":[0.0],
		"bufferView":6,
		"type":"SCALAR",
		"componentType":5126,
		"count":301,
		"byteOffset":0,
		"max":[10.0]
	},
	{
		"min":[0.0,
		0.0,
		-0.08953258395195008,
		-0.9959288239479065],
		"bufferView":6,
		"type":"VEC4",
		"componentType":5126,
		"count":301,
		"byteOffset":1204,
		"max":[0.08953749388456345,
		0.9959834814071655,
		0.08953749388456345,
		0.9959834814071655]
	},
	{
		"min":[0],
		"bufferView":7,
		"type":"SCALAR",
		"componentType":5123,
		"count":2880,
		"byteOffset":0,
		"max":[558]
	},
	{
		"min":[-5.820000171661377,
		-5.820000171661377,
		-5.820000171661377],
		"bufferView":8,
		"type":"VEC3",
		"componentType":5126,
		"count":559,
		"byteOffset":0,
		"max":[5.820000171661377,
		5.820000171661377,
		5.820000171661377]
	},
	{
		"min":[-1.0,
		-1.0,
		-1.0],
		"bufferView":8,
		"type":"VEC3",
		"componentType":5126,
		"count":559,
		"byteOffset":12,
		"max":[1.0,
		1.0,
		1.0]
	},
	{
		"min":[0.0,
		0.0],
		"bufferView":8,
		"type":"VEC2",
		"componentType":5126,
		"count":559,
		"byteOffset":24,
		"max":[0.6000000238418579,
		0.6000000238418579]
	},
	{
		"min":[0],
		"bufferView":9,
		"type":"SCALAR",
		"componentType":5123,
		"count":2400,
		"byteOffset":0,
		"max":[725]
	},
	{
		"min":[-5.06028938293457,
		-5.06028938293457,
		-5.06028938293457],
		"bufferView":10,
		"type":"VEC3",
		"componentType":5126,
		"count":726,
		"byteOffset":0,
		"max":[5.06028938293457,
		5.06028938293457,
		5.06028938293457]
	},
	{
		"min":[-1.0,
		-1.0,
		-1.0],
		"bufferView":10,
		"type":"VEC3",
		"componentType":5126,
		"count":726,
		"byteOffset":12,
		"max":[1.0,
		1.0,
		1.0]
	},
	{
		"min":[-0.0010958380298689008,
		-0.0014185970649123192],
		"bufferView":10,
		"type":"VEC2",
		"componentType":5126,
		"count":726,
		"byteOffset":24,
		"max":[0.997908353805542,
		0.8645813465118408]
	},
	{
		"min":[0.0],
		"bufferView":11,
		"type":"SCALAR",
		"componentType":5126,
		"count":301,
		"byteOffset":0,
		"max":[10.0]
	},
	{
		"min":[-0.38208314776420596,
		-0.5949894785881043,
		-0.5948057174682617,
		-0.80359947681427],
		"bufferView":11,
		"type":"VEC4",
		"componentType":5126,
		"count":301,
		"byteOffset":1204,
		"max":[0.80359947681427,
		0.5951612591743469,
		0.5951612591743469,
		0.37465909123420718]
	}],
	"bufferViews":[{
		"buffer":0,
		"byteOffset":0,
		"byteLength":1152,
		"target":34963
	},
	{
		"buffer":0,
		"byteOffset":1152,
		"byteLength":4800,
		"target":34962,
		"byteStride":32
	},
	{
		"buffer":1,
		"byteOffset":0,
		"byteLength":6020
	},
	{
		"buffer":2,
		"byteOffset":0,
		"byteLength":768,
		"target":34963
	},
	{
		"buffer":2,
		"byteOffset":768,
		"byteLength":3840,
		"target":34962,
		"byteStride":32
	},
	{
		"buffer":3,
		"byteOffset":0,
		"byteLength":6020
	},
	{
		"buffer":4,
		"byteOffset":0,
		"byteLength":6020
	},
	{
		"buffer":5,
		"byteOffset":0,
		"byteLength":5760,
		"target":34963
	},
	{
		"buffer":5,
		"byteOffset":5760,
		"byteLength":17888,
		"target":34962,
		"byteStride":32
	},
	{
		"buffer":6,
		"byteOffset":0,
		"byteLength":4800,
		"target":34963
	},
	{
		"buffer":6,
		"byteOffset":4800,
		"byteLength":23232,
		"target":34962,
		"byteStride":32
	},
	{
		"buffer":7,
		"byteOffset":0,
		"byteLength":6020
	}],
	"buffers":[{
		"uri":"data:application/octet-stream;base64,",
		"byteLength":5952
	},
	{
		"uri":"data:application/octet-stream;base64,",
		"byteLength":6020
	},
	{
		"uri":"data:application/octet-stream;base64,",
		"byteLength":4608
	},
	{
		"uri":"data:application/octet-stream;base64,",
		"byteLength":6020
	},
	{
		"uri":"data:application/octet-stream;base64,",
		"byteLength":6020
	},
	{
		"uri":"data:application/octet-stream;base64,",
		"byteLength":23648
	},
	{
		"uri":"data:application/octet-stream;base64,",
		"byteLength":28032
	},
	{
		"uri":"data:application/octet-stream;base64,",
		"byteLength":6020
	}],
	"samplers":[{
		"magFilter":9729,
		"minFilter":9729,
		"wrapS":10497,
		"wrapT":10497
	}],
	"textures":[{
		"sampler":0,
		"source":0
	}],
	"materials":[{
		"pbrMetallicRoughness":{
			"baseColorFactor":[0.01,
			0.01,
			0.01,
			1.0],
			"metallicRoughnessTexture":{
				"index":0
			},
			"metallicFactor":0.0,
			"roughnessFactor":1.0
		},
		"emissiveFactor":[0.0,
		0.0,
		0.0],
		"alphaMode":"OPAQUE",
		"doubleSided":false,
		"name":"Mat"
	}],
	"animations":[{
		"samplers":[{
			"input":4,
			"interpolation":"LINEAR",
			"output":5
		},
		{
			"input":10,
			"interpolation":"LINEAR",
			"output":11
		},
		{
			"input":12,
			"interpolation":"LINEAR",
			"output":13
		},
		{
			"input":22,
			"interpolation":"LINEAR",
			"output":23
		}],
		"channels":[{
			"sampler":0,
			"target":{
				"node":1,
				"path":"rotation"
			}
		},
		{
			"sampler":1,
			"target":{
				"node":2,
				"path":"rotation"
			}
		},
		{
			"sampler":2,
			"target":{
				"node":3,
				"path":"rotation"
			}
		},
		{
			"sampler":3,
			"target":{
				"node":5,
				"path":"rotation"
			}
		}]
	}]
}