{
	"asset":{
		"version":"2.0",
		"generator":"Created using the official Cinema 4D glTF Exporter 1.000x284978"
	},
	"images":[{
		"uri":"data:image/jpeg;base64,"
	}],
	"scenes":[{
		"nodes":[0,
		1,
		3,
		5,
		7]
	}],
	"nodes":[{
		"name":"Camera",
		"translation":[0.0,
		0.0,
		358.59088134765627],
		"rotation":[0.0,
		0.0,
		0.0,
		-1.0],
		"scale":[1.0,
		1.0,
		1.0],
		"camera":0
	},
	{
		"name":"Sphere 1",
		"translation":[2.0507333278656008,
		20.74583625793457,
		9.464005470275879],
		"rotation":[0.0,
		-0.9218631386756897,
		0.0,
		0.3875155746936798],
		"scale":[0.30000001192092898,
		0.30000001192092898,
		0.30000001192092898],
		"children":[2]
	},
	{
		"name":"Sphere.1",
		"translation":[0.6355209350585938,
		9.925421714782715,
		71.52287292480469],
		"rotation":[0.25787901878356936,
		-0.8868466019630432,
		-0.3282349407672882,
		0.19814981520175935],
		"scale":[3.3333332538604738,
		3.3333332538604738,
		3.3333332538604738],
		"mesh":0
	},
	{
		"name":"Pyramid.2",
		"translation":[-20.53516387939453,
		19.163921356201173,
		7.59281587600708],
		"rotation":[0.08803356438875199,
		0.6187872290611267,
		0.5170672535896301,
		0.5848024487495422],
		"scale":[1.0,
		1.0,
		1.0],
		"children":[4]
	},
	{
		"name":"Pyramid.2",
		"translation":[-33.35910415649414,
		-16.878372192382814,
		-39.17489242553711],
		"rotation":[0.6115972399711609,
		0.6573756337165833,
		0.4402298629283905,
		0.0019371386151760817],
		"scale":[1.0,
		1.0,
		1.0],
		"mesh":1
	},
	{
		"name":"cube",
		"translation":[-42.264156341552737,
		-31.887475967407228,
		-52.40151596069336],
		"rotation":[0.19368869066238404,
		0.04085908830165863,
		0.20232518017292024,
		0.9591036438941956],
		"scale":[1.0,
		1.0,
		1.0],
		"children":[6]
	},
	{
		"name":"Cube.1",
		"translation":[38.70463943481445,
		28.925012588500978,
		-12.179384231567383],
		"rotation":[0.9218631386756897,
		-8.017632713882943e-17,
		8.017632713882943e-17,
		0.3875155746936798],
		"scale":[1.0,
		1.0,
		1.0],
		"mesh":2
	},
	{
		"name":"Pyramid",
		"translation":[6.4202494621276859,
		3.443974733352661,
		8.968648910522461],
		"rotation":[0.8978820443153381,
		-0.0013368870131671429,
		-0.18997864425182343,
		0.3971324861049652],
		"scale":[1.0,
		1.0,
		1.0],
		"mesh":3
	}],
	"meshes":[{
		"name":"Sphere.1",
		"primitives":[{
			"attributes":{
				"POSITION":3,
				"NORMAL":4,
				"TEXCOORD_0":5
			},
			"indices":2,
			"material":0
		}]
	},
	{
		"name":"Pyramid.2",
		"primitives":[{
			"attributes":{
				"POSITION":7,
				"NORMAL":8,
				"TEXCOORD_0":9
			},
			"indices":6,
			"material":0
		}]
	},
	{
		"name":"Cube.1",
		"primitives":[{
			"attributes":{
				"POSITION":13,
				"NORMAL":14,
				"TEXCOORD_0":15
			},
			"indices":12,
			"material":0
		}]
	},
	{
		"name":"Pyramid",
		"primitives":[{
			"attributes":{
				"POSITION":19,
				"NORMAL":20,
				"TEXCOORD_0":21
			},
			"indices":18,
			"material":0
		}]
	}],
	"cameras":[{
		"type":"perspective",
		"perspective":{
			"znear":0.009999999776482582,
			"zfar":10000000000.0,
			"aspectRatio":1.0,
			"yfov":0.3561858832836151
		}
	}],
	"accessors":[{
		"min":[0.0],
		"bufferView":0,
		"type":"SCALAR",
		"componentType":5126,
		"count":301,
		"byteOffset":0,
		"max":[10.0]
	},
	{
		"min":[0.0,
		-1.0,
		-7.346242725247976e-9,
		-1.0],
		"bufferView":0,
		"type":"VEC4",
		"componentType":5126,
		"count":301,
		"byteOffset":1204,
		"max":[1.0499758396065318e-8,
		0.0,
		7.4244503878162508e-9,
		0.9999451637268066]
	},
	{
		"min":[0],
		"bufferView":1,
		"type":"SCALAR",
		"componentType":5123,
		"count":2880,
		"byteOffset":0,
		"max":[558]
	},
	{
		"min":[-5.400000095367432,
		-5.400000095367432,
		-5.400000095367432],
		"bufferView":2,
		"type":"VEC3",
		"componentType":5126,
		"count":559,
		"byteOffset":0,
		"max":[5.400000095367432,
		5.400000095367432,
		5.400000095367432]
	},
	{
		"min":[-1.0,
		-1.0,
		-1.0],
		"bufferView":2,
		"type":"VEC3",
		"componentType":5126,
		"count":559,
		"byteOffset":12,
		"max":[1.0,
		1.0,
		1.0]
	},
	{
		"min":[0.0,
		0.0],
		"bufferView":2,
		"type":"VEC2",
		"componentType":5126,
		"count":559,
		"byteOffset":24,
		"max":[1.0,
		1.0]
	},
	{
		"min":[0],
		"bufferView":3,
		"type":"SCALAR",
		"componentType":5123,
		"count":18,
		"byteOffset":0,
		"max":[15]
	},
	{
		"min":[-4.684739112854004,
		-4.684739112854004,
		-4.684739112854004],
		"bufferView":4,
		"type":"VEC3",
		"componentType":5126,
		"count":16,
		"byteOffset":0,
		"max":[4.684739112854004,
		4.684739112854004,
		4.684739112854004]
	},
	{
		"min":[-0.8944272398948669,
		-1.0,
		-0.8944272398948669],
		"bufferView":4,
		"type":"VEC3",
		"componentType":5126,
		"count":16,
		"byteOffset":12,
		"max":[0.8944272398948669,
		0.44721361994743349,
		0.8944271802902222]
	},
	{
		"min":[0.0,
		0.0],
		"bufferView":4,
		"type":"VEC2",
		"componentType":5126,
		"count":16,
		"byteOffset":24,
		"max":[1.0,
		1.0]
	},
	{
		"min":[0.0],
		"bufferView":5,
		"type":"SCALAR",
		"componentType":5126,
		"count":301,
		"byteOffset":0,
		"max":[10.0]
	},
	{
		"min":[-0.5249835252761841,
		-0.6169178485870361,
		-0.6544564366340637,
		-0.7560997009277344],
		"bufferView":5,
		"type":"VEC4",
		"componentType":5126,
		"count":301,
		"byteOffset":1204,
		"max":[0.6623680591583252,
		0.7477222084999085,
		0.6544564366340637,
		0.7560997009277344]
	},
	{
		"min":[0],
		"bufferView":6,
		"type":"SCALAR",
		"componentType":5123,
		"count":36,
		"byteOffset":0,
		"max":[23]
	},
	{
		"min":[-3.1433677673339845,
		-3.1433677673339845,
		-3.1433677673339845],
		"bufferView":7,
		"type":"VEC3",
		"componentType":5126,
		"count":24,
		"byteOffset":0,
		"max":[3.1433677673339845,
		3.1433677673339845,
		3.1433677673339845]
	},
	{
		"min":[-1.0,
		-1.0,
		-1.0],
		"bufferView":7,
		"type":"VEC3",
		"componentType":5126,
		"count":24,
		"byteOffset":12,
		"max":[1.0,
		1.0,
		1.0]
	},
	{
		"min":[0.0,
		0.0],
		"bufferView":7,
		"type":"VEC2",
		"componentType":5126,
		"count":24,
		"byteOffset":24,
		"max":[1.0,
		1.0]
	},
	{
		"min":[0.0],
		"bufferView":8,
		"type":"SCALAR",
		"componentType":5126,
		"count":301,
		"byteOffset":0,
		"max":[10.0]
	},
	{
		"min":[0.0,
		-1.0,
		0.0,
		-1.0],
		"bufferView":8,
		"type":"VEC4",
		"componentType":5126,
		"count":301,
		"byteOffset":1204,
		"max":[0.0,
		0.0,
		0.0,
		1.0]
	},
	{
		"min":[0],
		"bufferView":9,
		"type":"SCALAR",
		"componentType":5123,
		"count":18,
		"byteOffset":0,
		"max":[15]
	},
	{
		"min":[-27.363805770874025,
		-27.363805770874025,
		-27.363805770874025],
		"bufferView":10,
		"type":"VEC3",
		"componentType":5126,
		"count":16,
		"byteOffset":0,
		"max":[27.363805770874025,
		27.363805770874025,
		27.363805770874025]
	},
	{
		"min":[-0.8944271802902222,
		-1.0,
		-0.8944271802902222],
		"bufferView":10,
		"type":"VEC3",
		"componentType":5126,
		"count":16,
		"byteOffset":12,
		"max":[0.8944271802902222,
		0.4472135901451111,
		0.8944271802902222]
	},
	{
		"min":[0.0,
		0.0],
		"bufferView":10,
		"type":"VEC2",
		"componentType":5126,
		"count":16,
		"byteOffset":24,
		"max":[2.0,
		2.0]
	},
	{
		"min":[0.0],
		"bufferView":11,
		"type":"SCALAR",
		"componentType":5126,
		"count":301,
		"byteOffset":0,
		"max":[10.0]
	},
	{
		"min":[-0.11846965551376343,
		-0.946800708770752,
		-0.3093454837799072,
		-0.994012713432312],
		"bufferView":11,
		"type":"VEC4",
		"componentType":5126,
		"count":301,
		"byteOffset":1204,
		"max":[0.2144642472267151,
		0.9391244053840637,
		0.3020661175251007,
		0.994012713432312]
	}],
	"bufferViews":[{
		"buffer":0,
		"byteOffset":0,
		"byteLength":6020
	},
	{
		"buffer":1,
		"byteOffset":0,
		"byteLength":5760,
		"target":34963
	},
	{
		"buffer":1,
		"byteOffset":5760,
		"byteLength":17888,
		"target":34962,
		"byteStride":32
	},
	{
		"buffer":2,
		"byteOffset":0,
		"byteLength":36,
		"target":34963
	},
	{
		"buffer":2,
		"byteOffset":36,
		"byteLength":512,
		"target":34962,
		"byteStride":32
	},
	{
		"buffer":3,
		"byteOffset":0,
		"byteLength":6020
	},
	{
		"buffer":4,
		"byteOffset":0,
		"byteLength":72,
		"target":34963
	},
	{
		"buffer":4,
		"byteOffset":72,
		"byteLength":768,
		"target":34962,
		"byteStride":32
	},
	{
		"buffer":5,
		"byteOffset":0,
		"byteLength":6020
	},
	{
		"buffer":6,
		"byteOffset":0,
		"byteLength":36,
		"target":34963
	},
	{
		"buffer":6,
		"byteOffset":36,
		"byteLength":512,
		"target":34962,
		"byteStride":32
	},
	{
		"buffer":7,
		"byteOffset":0,
		"byteLength":6020
	}],
	"buffers":[{
		"uri":"data:application/octet-stream;base64,",
		"byteLength":6020
	},
	{
		"uri":"data:application/octet-stream;base64,",
		"byteLength":23648
	},
	{
		"uri":"data:application/octet-stream;base64,",
		"byteLength":548
	},
	{
		"uri":"data:application/octet-stream;base64,",
		"byteLength":6020
	},
	{
		"uri":"data:application/octet-stream;base64,",
		"byteLength":840
	},
	{
		"uri":"data:application/octet-stream;base64,",
		"byteLength":6020
	},
	{
		"uri":"data:application/octet-stream;base64,",
		"byteLength":548
	},
	{
		"uri":"data:application/octet-stream;base64,",
		"byteLength":6020
	}],
	"samplers":[{
		"magFilter":9729,
		"minFilter":9729,
		"wrapS":10497,
		"wrapT":10497
	}],
	"textures":[{
		"sampler":0,
		"source":0
	}],
	"materials":[{
		"pbrMetallicRoughness":{
			"baseColorFactor":[0.01,
			0.01,
			0.01,
			1.0],
			"metallicRoughnessTexture":{
				"index":0
			},
			"metallicFactor":0.0,
			"roughnessFactor":1.0
		},
		"emissiveFactor":[0.0,
		0.0,
		0.0],
		"alphaMode":"OPAQUE",
		"doubleSided":false,
		"name":"Mat"
	}],
	"animations":[{
		"samplers":[{
			"input":0,
			"interpolation":"LINEAR",
			"output":1
		},
		{
			"input":10,
			"interpolation":"LINEAR",
			"output":11
		},
		{
			"input":16,
			"interpolation":"LINEAR",
			"output":17
		},
		{
			"input":22,
			"interpolation":"LINEAR",
			"output":23
		}],
		"channels":[{
			"sampler":0,
			"target":{
				"node":1,
				"path":"rotation"
			}
		},
		{
			"sampler":1,
			"target":{
				"node":4,
				"path":"rotation"
			}
		},
		{
			"sampler":2,
			"target":{
				"node":6,
				"path":"rotation"
			}
		},
		{
			"sampler":3,
			"target":{
				"node":7,
				"path":"rotation"
			}
		}]
	}]
}