<?xml version="1.0" encoding="utf-8"?>
<!-- Generator: Adobe Illustrator 23.0.5, SVG Export Plug-In . SVG Version: 6.00 Build 0)  -->
<svg version="1.1" id="Layer_1" xmlns="http://www.w3.org/2000/svg" xmlns:xlink="http://www.w3.org/1999/xlink" x="0px" y="0px"
	 viewBox="0 0 449 420.2" style="enable-background:new 0 0 449 420.2;" xml:space="preserve">
<style type="text/css">
	.st0{fill:url(#SVGID_1_);}
	.st1{fill:url(#SVGID_2_);}
	.st2{fill:#FFFFFF;}
	.st3{fill:url(#SVGID_3_);}
	.st4{fill:url(#SVGID_4_);}
</style>
<g>
	<g>
		
			<linearGradient id="SVGID_1_" gradientUnits="userSpaceOnUse" x1="0" y1="210.2361" x2="213.242" y2="210.2361" gradientTransform="matrix(1 0 0 -1 0 420.244)">
			<stop  offset="0" style="stop-color:#D01237"/>
			<stop  offset="0.7448" style="stop-color:#F15A29"/>
		</linearGradient>
		<path class="st0" d="M211.7,315.3L108.6,418.5c-2,2-5.3,2-7.4,0L1.5,318.8c-1-1-1.5-2.3-1.5-3.7v-206c0-0.4,0.1-0.9,0.2-1.3
			c0.2-0.9,0.7-1.7,1.3-2.4L105.4,1.5c2-2,5.4-2,7.4,0l98.9,97.7c2.1,2,2.1,5.3,0,7.4l-96.9,97c-0.5,0.5-0.9,1.1-1.2,1.7
			c-0.8,1.9-0.4,4.1,1.2,5.6l11.3,11.3l85.6,85.7C213.8,310,213.8,313.3,211.7,315.3z"/>
		
			<linearGradient id="SVGID_2_" gradientUnits="userSpaceOnUse" x1="235.8453" y1="153.0386" x2="448.999" y2="153.0386" gradientTransform="matrix(1 0 0 -1 0 420.244)">
			<stop  offset="0" style="stop-color:#D01237"/>
			<stop  offset="0.7448" style="stop-color:#F15A29"/>
		</linearGradient>
		<path class="st1" d="M449,119.4v196c0,1.4-0.6,2.7-1.5,3.7l-99.7,99.7c-1.6,1.6-4,1.9-5.9,1c-0.5-0.2-1-0.6-1.5-1l-71.7-71.7
			l-31.4-31.4c-2.1-2.1-2-5.5,0.1-7.5l202.7-192.6C443.5,112.4,449,114.8,449,119.4z"/>
		<path class="st2" d="M276.4,420H172.7c-3.4,0-5.4-3.8-3.5-6.6l50-52.3c1.7-2.5,5.3-2.5,7,0l17.2,16.8l36.3,35.5
			C281.8,416.2,279.8,420,276.4,420z"/>
		
			<linearGradient id="SVGID_3_" gradientUnits="userSpaceOnUse" x1="335.26" y1="109.2842" x2="448.999" y2="109.2842" gradientTransform="matrix(1 0 0 -1 0 420.244)">
			<stop  offset="0.1635" style="stop-color:#F15A29"/>
			<stop  offset="0.3363" style="stop-color:#EE532A"/>
			<stop  offset="0.5792" style="stop-color:#E6412E"/>
			<stop  offset="0.8623" style="stop-color:#D82334"/>
			<stop  offset="1" style="stop-color:#D01237"/>
		</linearGradient>
		<path class="st3" d="M449,201.7v113.7c0,1.4-0.6,2.7-1.5,3.7l-99.7,99.7c-1.6,1.6-4,1.9-5.9,1c-4.4-15.5-6.6-31.9-6.6-48.8
			C335.3,294.4,382.3,228.9,449,201.7z"/>
		
			<linearGradient id="SVGID_4_" gradientUnits="userSpaceOnUse" x1="0.207" y1="317.5725" x2="213.2334" y2="317.5725" gradientTransform="matrix(1 0 0 -1 0 420.244)">
			<stop  offset="9.819999e-02" style="stop-color:#F15A29"/>
			<stop  offset="0.2985" style="stop-color:#EF552A"/>
			<stop  offset="0.5209" style="stop-color:#E9482C"/>
			<stop  offset="0.7538" style="stop-color:#DF3231"/>
			<stop  offset="0.9926" style="stop-color:#D01337"/>
			<stop  offset="1" style="stop-color:#D01237"/>
		</linearGradient>
		<path class="st4" d="M211.7,106.6l-96.9,97c-0.5,0.5-0.9,1.1-1.2,1.7C64.8,188,24.5,152.9,0.2,107.8c0.2-0.9,0.7-1.7,1.3-2.4
			L105.4,1.5c2-2,5.4-2,7.4,0l98.9,97.7C213.8,101.2,213.8,104.5,211.7,106.6z"/>
	</g>
</g>
</svg>
