<?xml version="1.0" encoding="iso-8859-1"?>
<!-- Generator: Adobe Illustrator 24.2.1, SVG Export Plug-In . SVG Version: 6.00 Build 0)  -->
<svg version="1.1" id="Layer_1" xmlns="http://www.w3.org/2000/svg" xmlns:xlink="http://www.w3.org/1999/xlink" x="0px" y="0px"
	 viewBox="0 0 5000 1600" style="enable-background:new 0 0 5000 1600;" xml:space="preserve">
<g>
	<g>
		<linearGradient id="SVGID_1_" gradientUnits="userSpaceOnUse" x1="228.5556" y1="799.208" x2="911.0554" y2="799.208">
			<stop  offset="0" style="stop-color:#E5E5E5"/>
			<stop  offset="0.7448" style="stop-color:#FFFFFF"/>
		</linearGradient>
		<path style="fill:url(#SVGID_1_);" d="M906.149,1136.328l-330.093,330.204c-6.431,6.431-17.075,6.431-23.729,0l-318.894-319.005
			c-3.216-3.104-4.878-7.429-4.878-11.864V476.364c0-1.441,0.222-2.883,0.666-4.214c0.554-2.883,2.106-5.544,4.212-7.651
			l332.532-332.532c6.543-6.542,17.187-6.542,23.619,0l316.453,312.574c6.653,6.542,6.653,17.075,0,23.728L595.793,778.736
			c-1.663,1.552-2.883,3.548-3.77,5.544c-2.439,5.988-1.221,13.084,3.77,17.963l36.257,36.258l274.099,274.208
			C912.691,1119.252,912.691,1129.897,906.149,1136.328z"/>
		<linearGradient id="SVGID_2_" gradientUnits="userSpaceOnUse" x1="983.4041" y1="982.271" x2="1665.6147" y2="982.271">
			<stop  offset="0" style="stop-color:#E5E5E5"/>
			<stop  offset="0.7448" style="stop-color:#FFFFFF"/>
		</linearGradient>
		<path style="fill:url(#SVGID_2_);" d="M1665.615,509.266v627.162c0,4.41-1.79,8.683-4.96,11.854l-318.959,318.957
			c-5.098,5.1-12.68,6.202-18.882,3.17c-1.656-0.689-3.308-1.792-4.826-3.17l-229.361-229.362l-100.346-100.484
			c-6.616-6.616-6.478-17.505,0.276-23.984l648.8-616.272C1647.971,486.936,1665.615,494.517,1665.615,509.266z"/>
		<path style="fill:#FFFFFF;" d="M1113.049,1471.322H781.41c-10.89,0-17.368-12.268-11.166-21.227l160.169-167.335
			c5.378-7.857,16.954-7.857,22.331,0l55.135,53.756l116.334,113.579C1130.417,1459.054,1123.939,1471.322,1113.049,1471.322z"/>
		<linearGradient id="SVGID_3_" gradientUnits="userSpaceOnUse" x1="1301.5862" y1="1122.3099" x2="1665.6147" y2="1122.3099">
			<stop  offset="0.1635" style="stop-color:#FFFFFF"/>
			<stop  offset="0.5009" style="stop-color:#F8F8F8"/>
			<stop  offset="0.9744" style="stop-color:#E6E6E6"/>
			<stop  offset="1" style="stop-color:#E5E5E5"/>
		</linearGradient>
		<path style="fill:url(#SVGID_3_);" d="M1665.615,772.536v363.892c0,4.41-1.79,8.683-4.96,11.854l-318.959,318.957
			c-5.098,5.1-12.68,6.202-18.882,3.17c-13.922-49.759-21.228-102.138-21.228-156.171
			C1301.586,1069.301,1452.104,859.65,1665.615,772.536z"/>
		<linearGradient id="SVGID_4_" gradientUnits="userSpaceOnUse" x1="229.2215" y1="455.6707" x2="911.0276" y2="455.6707">
			<stop  offset="0.0982" style="stop-color:#FFFFFF"/>
			<stop  offset="0.447" style="stop-color:#FAFAFA"/>
			<stop  offset="0.8334" style="stop-color:#EDEDED"/>
			<stop  offset="1" style="stop-color:#E5E5E5"/>
		</linearGradient>
		<path style="fill:url(#SVGID_4_);" d="M906.038,468.269L595.793,778.736c-1.663,1.552-2.883,3.548-3.77,5.544
			c-156.01-55.662-285.186-167.984-362.802-312.13c0.554-2.883,2.106-5.544,4.212-7.651l332.532-332.532
			c6.543-6.542,17.187-6.542,23.619,0l316.453,312.574C912.691,451.083,912.691,461.617,906.038,468.269z"/>
	</g>
	<g>
		<path style="fill:#FFFFFF;" d="M2025.917,1045.258h-50.648v130.516h-22.076v-130.516h-50.65v-18.832h123.374V1045.258z"/>
		<path style="fill:#FFFFFF;" d="M2067.479,1156.51h80.083v19.264h-102.162v-149.348h99.133v18.832h-77.054v44.804h67.964
			l-1.299,18.83h-66.665V1156.51z"/>
		<path style="fill:#FFFFFF;" d="M2171.811,1143.307c-5.626-11.255-8.441-24.529-8.441-39.824c0-15.729,2.85-29.617,8.55-41.666
			s13.888-21.391,24.567-28.031c10.677-6.637,23.375-9.957,38.094-9.957c19.479,0,34.739,4.871,45.779,14.61
			c11.038,9.74,16.99,23.268,17.855,40.585l-18.398,2.597c-1.008-11.978-5.338-21.465-12.986-28.463
			c-7.648-6.998-18.327-10.497-32.033-10.497c-9.957,0-18.615,2.489-25.974,7.466c-7.36,4.979-12.951,11.978-16.776,20.997
			c-3.823,9.017-5.735,19.514-5.735,31.492c0,11.543,2.092,21.609,6.278,30.193c4.184,8.585,10.028,15.187,17.531,19.805
			c7.503,4.618,16.232,6.927,26.189,6.927c13.276,0,23.377-3.14,30.302-9.416c6.927-6.278,11.616-14.178,14.07-23.701l17.748,5.412
			c-2.453,12.842-8.873,23.809-19.264,32.899c-10.389,9.09-25.396,13.635-45.019,13.635c-14.719,0-27.382-3.029-37.988-9.09
			S2177.44,1154.562,2171.811,1143.307z"/>
		<path style="fill:#FFFFFF;" d="M2423.325,1026.426h22.076v149.348h-22.076v-67.315h-79.002v67.315h-22.079v-149.348h22.079v63.204
			h79.002V1026.426z"/>
		<path style="fill:#FFFFFF;" d="M2603.415,1026.426v149.348h-30.734l-70.561-130.516h-4.113c3.464,22.22,5.194,42.783,5.194,61.686
			v68.83h-20.995v-149.348h33.766l68.396,126.62h4.113c-3.896-23.087-5.844-43.649-5.844-61.686v-64.934H2603.415z"/>
		<path style="fill:#FFFFFF;" d="M2630.48,1101.318c0-15.439,2.994-29.004,8.981-40.691c5.99-11.69,14.575-20.745,25.757-27.164
			c11.185-6.422,24.206-9.633,39.069-9.633s27.885,3.211,39.069,9.633c11.182,6.42,19.767,15.474,25.757,27.164
			c5.988,11.687,8.982,25.252,8.982,40.691c0,24.385-6.422,43.326-19.264,56.817c-12.842,13.491-31.022,20.237-54.543,20.237
			c-23.521,0-41.701-6.746-54.543-20.237C2636.899,1144.643,2630.48,1125.703,2630.48,1101.318z M2755.152,1101.75
			c0-18.903-4.545-33.44-13.635-43.614c-9.093-10.172-21.502-15.26-37.23-15.26c-15.729,0-28.137,5.088-37.229,15.26
			c-9.09,10.174-13.635,24.711-13.635,43.614c0,18.327,4.51,32.541,13.529,42.641c9.017,10.101,21.462,15.151,37.336,15.151
			s28.319-5.05,37.336-15.151C2750.642,1134.29,2755.152,1120.076,2755.152,1101.75z"/>
		<path style="fill:#FFFFFF;" d="M2827.234,1156.51h76.619v19.264h-98.698v-149.348h22.079V1156.51z"/>
		<path style="fill:#FFFFFF;" d="M2910.353,1101.318c0-15.439,2.994-29.004,8.981-40.691c5.99-11.69,14.575-20.745,25.757-27.164
			c11.185-6.422,24.206-9.633,39.069-9.633s27.885,3.211,39.069,9.633c11.182,6.42,19.767,15.474,25.757,27.164
			c5.988,11.687,8.982,25.252,8.982,40.691c0,24.385-6.422,43.326-19.264,56.817c-12.842,13.491-31.022,20.237-54.543,20.237
			c-23.521,0-41.701-6.746-54.543-20.237C2916.773,1144.643,2910.353,1125.703,2910.353,1101.318z M3035.025,1101.75
			c0-18.903-4.545-33.44-13.635-43.614c-9.093-10.172-21.502-15.26-37.229-15.26c-15.729,0-28.137,5.088-37.229,15.26
			c-9.09,10.174-13.635,24.711-13.635,43.614c0,18.327,4.51,32.541,13.529,42.641c9.017,10.101,21.462,15.151,37.336,15.151
			s28.319-5.05,37.336-15.151C3030.516,1134.29,3035.025,1120.076,3035.025,1101.75z"/>
		<path style="fill:#FFFFFF;" d="M3213.165,1096.772v79.002h-17.316l-0.649-61.036h-3.896
			c-2.019,42.422-19.623,63.634-52.813,63.634c-12.842,0-23.953-3.067-33.331-9.199c-9.381-6.132-16.558-14.828-21.535-26.08
			c-4.98-11.255-7.468-24.458-7.468-39.61c0-16.018,3.029-30.014,9.09-41.992c6.061-11.975,14.719-21.247,25.974-27.814
			c11.255-6.564,24.529-9.848,39.824-9.848c17.604,0,31.818,4.148,42.641,12.445c10.821,8.299,16.811,19.878,17.963,34.741
			l-17.963,4.113c-3.608-21.646-17.821-32.467-42.641-32.467c-10.677,0-19.949,2.489-27.811,7.466
			c-7.865,4.979-13.852,12.013-17.965,21.103c-4.113,9.093-6.17,19.554-6.17,31.386c0,18.036,3.896,32.033,11.688,41.99
			c7.794,9.957,18.759,14.936,32.899,14.936c12.7,0,21.97-4.439,27.813-13.312c5.844-8.875,9.489-19.373,10.932-31.492h-37.012
			v-17.966H3213.165z"/>
		<path style="fill:#FFFFFF;" d="M3245.641,1175.774v-149.348h22.078v149.348H3245.641z"/>
		<path style="fill:#FFFFFF;" d="M3326.594,1156.51h80.083v19.264h-102.162v-149.348h99.133v18.832h-77.054v44.804h67.964
			l-1.299,18.83h-66.665V1156.51z"/>
		<path style="fill:#FFFFFF;" d="M3422.484,1129.24l17.748-8.443c2.165,12.266,7.178,21.79,15.042,28.572
			c7.865,6.781,17.569,10.174,29.112,10.174c10.967,0,19.696-2.238,26.189-6.71c6.493-4.474,9.742-10.75,9.742-18.832
			c0-6.205-1.769-11.003-5.303-14.393c-3.537-3.391-8.19-5.844-13.961-7.359c-5.773-1.513-13.638-2.85-23.592-4.004
			c-16.162-2.019-29.185-6.023-39.069-12.011c-9.886-5.99-14.828-15.765-14.828-29.329c0-8.658,2.274-16.197,6.819-22.619
			c4.545-6.42,11.038-11.399,19.479-14.934c8.443-3.535,18.291-5.303,29.547-5.303c36.507,0,56.203,15.295,59.088,45.885
			l-17.748,5.412c-1.877-11.111-5.844-19.443-11.905-24.999c-6.061-5.556-15.874-8.332-29.436-8.332
			c-9.957,0-18.11,1.948-24.458,5.844c-6.349,3.896-9.525,9.378-9.525,16.45c0,5.773,1.948,10.318,5.844,13.635
			c3.896,3.32,8.875,5.738,14.936,7.251c6.058,1.516,13.706,2.85,22.943,4.004c10.677,1.443,19.731,3.464,27.164,6.061
			c7.43,2.597,13.562,6.819,18.397,12.662c4.833,5.844,7.251,13.888,7.251,24.133c0,9.381-2.489,17.569-7.468,24.567
			c-4.977,6.998-11.76,12.374-20.345,16.126c-8.585,3.752-18.218,5.626-28.895,5.626c-16.449,0-30.411-4.328-41.883-12.986
			C3431.9,1156.728,3424.937,1144.679,3422.484,1129.24z"/>
	</g>
	<g>
		<g>
			<path style="fill:#FFFFFF;" d="M1958.459,872.187c-37.099-37.099-55.916-82.8-55.916-137.104
				c0-54.301,18.817-100.001,55.916-136.561c37.099-37.099,83.874-55.379,139.79-55.379c47.314,0,88.714,13.979,123.659,41.399
				c34.948,27.421,57.531,63.444,67.207,106.994h-79.034c-17.205-45.7-60.217-76.885-111.832-76.885
				c-33.871,0-62.368,11.291-85.486,34.41c-23.121,23.12-34.41,51.615-34.41,86.023c0,34.41,11.289,62.906,34.41,86.025
				c23.119,23.118,51.615,34.41,85.486,34.41c51.615,0,94.627-31.183,111.832-76.884h79.034
				c-9.677,43.551-32.259,79.573-67.207,106.992c-34.946,27.42-76.345,41.4-123.659,41.4
				C2042.333,927.026,1995.558,908.745,1958.459,872.187z"/>
			<path style="fill:#FFFFFF;" d="M2381.599,872.187c-37.099-37.099-55.916-82.8-55.916-137.104
				c0-54.301,18.817-100.001,55.916-136.561c37.099-37.099,83.874-55.379,139.79-55.379c55.377,0,102.153,18.28,139.251,55.379
				c37.637,36.56,56.454,82.26,56.454,136.561c0,54.304-18.817,100.005-56.454,137.104c-37.099,36.558-83.874,54.839-139.251,54.839
				C2465.473,927.026,2418.698,908.745,2381.599,872.187z M2521.389,855.518c33.871,0,62.368-11.291,84.948-34.41
				c23.121-23.118,34.41-51.615,34.41-86.025c0-34.409-11.289-62.904-34.41-86.023c-22.58-23.118-51.076-34.41-84.948-34.41
				c-33.872,0-62.368,11.291-85.486,34.41c-23.121,23.12-34.41,51.615-34.41,86.023c0,34.41,11.289,62.906,34.41,86.025
				C2459.021,844.226,2487.518,855.518,2521.389,855.518z"/>
			<path style="fill:#FFFFFF;" d="M2918.727,549.595c54.304,0,98.928,17.742,134.95,53.228
				c36.022,34.947,54.304,79.034,54.304,132.26c0,53.227-18.281,97.316-54.304,132.802c-36.022,34.946-80.647,52.689-134.95,52.689
				h-145.165v-370.98H2918.727z M2917.115,850.681c32.798,0,59.679-10.756,81.723-32.797c22.042-22.044,32.797-50.002,32.797-82.8
				c0-32.795-10.755-60.216-32.797-82.259c-22.044-22.043-48.926-33.335-81.723-33.335h-69.358v231.191H2917.115z"/>
			<path style="fill:#FFFFFF;" d="M3308.001,619.49h-46.237v231.191h46.237v69.894h-167.209v-69.894h46.775V619.49h-46.775v-69.895
				h167.209V619.49z"/>
			<path style="fill:#FFFFFF;" d="M3608.556,549.595h74.195v370.98h-75.269l-168.824-243.556v243.556h-74.198v-370.98h75.274
				l168.822,243.555V549.595z"/>
			<path style="fill:#FFFFFF;" d="M3961.805,619.49H3832.23v83.336h108.069v69.895H3832.23v147.854h-74.195v-370.98h203.77V619.49z"
				/>
			<path style="fill:#FFFFFF;" d="M4047.301,872.187c-37.099-37.099-55.916-82.8-55.916-137.104
				c0-54.301,18.817-100.001,55.916-136.561c37.099-37.099,83.874-55.379,139.79-55.379c55.377,0,102.153,18.28,139.251,55.379
				c37.637,36.56,56.454,82.26,56.454,136.561c0,54.304-18.817,100.005-56.454,137.104c-37.099,36.558-83.874,54.839-139.251,54.839
				C4131.175,927.026,4084.4,908.745,4047.301,872.187z M4187.091,855.518c33.872,0,62.368-11.291,84.948-34.41
				c23.121-23.118,34.41-51.615,34.41-86.025c0-34.409-11.289-62.904-34.41-86.023c-22.58-23.118-51.076-34.41-84.948-34.41
				s-62.368,11.291-85.486,34.41c-23.121,23.12-34.41,51.615-34.41,86.023c0,34.41,11.289,62.906,34.41,86.025
				C4124.723,844.226,4153.22,855.518,4187.091,855.518z"/>
			<path style="fill:#FFFFFF;" d="M4751.644,920.574h-91.402l-95.165-134.95l-95.166,134.95h-90.861l135.488-186.027L4381.2,549.595
				h91.4l93.553,133.338l92.477-133.338h90.861l-133.338,184.953L4751.644,920.574z"/>
		</g>
	</g>
	<path style="fill:#FFFFFF;" d="M3621.151,1090.064H4752v22.078H3621.151V1090.064z"/>
</g>
</svg>
