<?xml version="1.0" encoding="utf-8"?>
<!-- Generator: Adobe Illustrator 27.6.1, SVG Export Plug-In . SVG Version: 6.00 Build 0)  -->
<svg version="1.1" id="Layer_1" xmlns="http://www.w3.org/2000/svg" xmlns:xlink="http://www.w3.org/1999/xlink" x="0px" y="0px"
	 viewBox="0 0 4523.4 1345" style="enable-background:new 0 0 4523.4 1345;" xml:space="preserve">
<style type="text/css">
	.st0{fill:url(#SVGID_1_);}
	.st1{fill:url(#SVGID_00000078764154125254526250000007682722134246794379_);}
	.st2{fill:#FFFFFF;}
	.st3{fill:url(#SVGID_00000057829651499599351150000009451150279904961187_);}
	.st4{fill:url(#SVGID_00000147913557228943926310000010128586473058052763_);}
	.st5{fill:#F15A29;}
</style>
<g>
	<g>
		
			<linearGradient id="SVGID_1_" gradientUnits="userSpaceOnUse" x1="0" y1="675.7316" x2="682.5005" y2="675.7316" gradientTransform="matrix(1 0 0 -1 0 1347.879)">
			<stop  offset="0" style="stop-color:#D01237"/>
			<stop  offset="0.7448" style="stop-color:#F15A29"/>
		</linearGradient>
		<path class="st0" d="M677.6,1009.3l-330.1,330.2c-6.4,6.4-17.1,6.4-23.7,0l-318.9-319c-3.2-3.1-4.9-7.4-4.9-11.9V349.3
			c0-1.4,0.2-2.9,0.7-4.2c0.6-2.9,2.1-5.5,4.2-7.7L337.4,4.9c6.5-6.5,17.2-6.5,23.6,0l316.5,312.6c6.7,6.5,6.7,17.1,0,23.7
			L367.2,651.7c-1.7,1.6-2.9,3.5-3.8,5.5c-2.4,6-1.2,13.1,3.8,18l36.3,36.3l274.1,274.2C684.1,992.2,684.1,1002.8,677.6,1009.3z"/>
		
			<linearGradient id="SVGID_00000096778293474747370430000007313765304796255127_" gradientUnits="userSpaceOnUse" x1="754.8491" y1="492.6685" x2="1437.0599" y2="492.6685" gradientTransform="matrix(1 0 0 -1 0 1347.879)">
			<stop  offset="0" style="stop-color:#D01237"/>
			<stop  offset="0.7448" style="stop-color:#F15A29"/>
		</linearGradient>
		<path style="fill:url(#SVGID_00000096778293474747370430000007313765304796255127_);" d="M1437.1,382.2v627.2
			c0,4.4-1.8,8.7-5,11.9l-319,319c-5.1,5.1-12.7,6.2-18.9,3.2c-1.7-0.7-3.3-1.8-4.8-3.2l-229.4-229.4l-100.3-100.5
			c-6.6-6.6-6.5-17.5,0.3-24l648.8-616.3C1419.4,359.9,1437.1,367.5,1437.1,382.2z"/>
		<path class="st2" d="M884.5,1344.3H552.9c-10.9,0-17.4-12.3-11.2-21.2l160.2-167.3c5.4-7.9,17-7.9,22.3,0l55.1,53.8L895.7,1323
			C901.9,1332,895.4,1344.3,884.5,1344.3z"/>
		
			<linearGradient id="SVGID_00000080895528901900042800000000371200375622822541_" gradientUnits="userSpaceOnUse" x1="1073.031" y1="352.6297" x2="1437.0599" y2="352.6297" gradientTransform="matrix(1 0 0 -1 0 1347.879)">
			<stop  offset="0.1635" style="stop-color:#F15A29"/>
			<stop  offset="0.3363" style="stop-color:#EE532A"/>
			<stop  offset="0.5792" style="stop-color:#E6412E"/>
			<stop  offset="0.8623" style="stop-color:#D82334"/>
			<stop  offset="1" style="stop-color:#D01237"/>
		</linearGradient>
		<path style="fill:url(#SVGID_00000080895528901900042800000000371200375622822541_);" d="M1437.1,645.5v363.9
			c0,4.4-1.8,8.7-5,11.9l-319,319c-5.1,5.1-12.7,6.2-18.9,3.2c-13.9-49.8-21.2-102.1-21.2-156.2
			C1073,942.2,1223.5,732.6,1437.1,645.5z"/>
		
			<linearGradient id="SVGID_00000041284048644670554740000017107009574310138018_" gradientUnits="userSpaceOnUse" x1="0.666" y1="1019.2692" x2="682.4726" y2="1019.2692" gradientTransform="matrix(1 0 0 -1 0 1347.879)">
			<stop  offset="9.819999e-02" style="stop-color:#F15A29"/>
			<stop  offset="0.2985" style="stop-color:#EF552A"/>
			<stop  offset="0.5209" style="stop-color:#E9482C"/>
			<stop  offset="0.7538" style="stop-color:#DF3231"/>
			<stop  offset="0.9926" style="stop-color:#D01337"/>
			<stop  offset="1" style="stop-color:#D01237"/>
		</linearGradient>
		<path style="fill:url(#SVGID_00000041284048644670554740000017107009574310138018_);" d="M677.5,341.2L367.2,651.7
			c-1.7,1.6-2.9,3.5-3.8,5.5c-156-55.7-285.2-168-362.8-312.1c0.6-2.9,2.1-5.5,4.2-7.7L337.4,4.9c6.5-6.5,17.2-6.5,23.6,0
			l316.5,312.6C684.1,324,684.1,334.6,677.5,341.2z"/>
	</g>
	<g>
		<path class="st5" d="M1797.4,918.2h-50.6v130.5h-22.1V918.2H1674v-18.8h123.4V918.2z"/>
		<path class="st5" d="M1838.9,1029.4h80.1v19.3h-102.2V899.4h99.1v18.8h-77.1V963h68l-1.3,18.8h-66.7V1029.4z"/>
		<path class="st5" d="M1943.3,1016.2c-5.6-11.3-8.4-24.5-8.4-39.8c0-15.7,2.9-29.6,8.6-41.7s13.9-21.4,24.6-28
			c10.7-6.6,23.4-10,38.1-10c19.5,0,34.7,4.9,45.8,14.6c11,9.7,17,23.3,17.9,40.6l-18.4,2.6c-1-12-5.3-21.5-13-28.5
			c-7.6-7-18.3-10.5-32-10.5c-10,0-18.6,2.5-26,7.5c-7.4,5-13,12-16.8,21c-3.8,9-5.7,19.5-5.7,31.5c0,11.5,2.1,21.6,6.3,30.2
			c4.2,8.6,10,15.2,17.5,19.8c7.5,4.6,16.2,6.9,26.2,6.9c13.3,0,23.4-3.1,30.3-9.4c6.9-6.3,11.6-14.2,14.1-23.7l17.7,5.4
			c-2.5,12.8-8.9,23.8-19.3,32.9c-10.4,9.1-25.4,13.6-45,13.6c-14.7,0-27.4-3-38-9.1S1948.9,1027.5,1943.3,1016.2z"/>
		<path class="st5" d="M2194.8,899.4h22.1v149.3h-22.1v-67.3h-79v67.3h-22.1V899.4h22.1v63.2h79V899.4z"/>
		<path class="st5" d="M2374.9,899.4v149.3h-30.7l-70.6-130.5h-4.1c3.5,22.2,5.2,42.8,5.2,61.7v68.8h-21V899.4h33.8l68.4,126.6h4.1
			c-3.9-23.1-5.8-43.6-5.8-61.7v-64.9H2374.9z"/>
		<path class="st5" d="M2401.9,974.3c0-15.4,3-29,9-40.7c6-11.7,14.6-20.7,25.8-27.2c11.2-6.4,24.2-9.6,39.1-9.6s27.9,3.2,39.1,9.6
			c11.2,6.4,19.8,15.5,25.8,27.2c6,11.7,9,25.3,9,40.7c0,24.4-6.4,43.3-19.3,56.8c-12.8,13.5-31,20.2-54.5,20.2s-41.7-6.7-54.5-20.2
			C2408.3,1017.6,2401.9,998.6,2401.9,974.3z M2526.6,974.7c0-18.9-4.5-33.4-13.6-43.6c-9.1-10.2-21.5-15.3-37.2-15.3
			c-15.7,0-28.1,5.1-37.2,15.3c-9.1,10.2-13.6,24.7-13.6,43.6c0,18.3,4.5,32.5,13.5,42.6c9,10.1,21.5,15.2,37.3,15.2
			s28.3-5.1,37.3-15.2C2522.1,1007.2,2526.6,993,2526.6,974.7z"/>
		<path class="st5" d="M2598.7,1029.4h76.6v19.3h-98.7V899.4h22.1V1029.4z"/>
		<path class="st5" d="M2681.8,974.3c0-15.4,3-29,9-40.7c6-11.7,14.6-20.7,25.8-27.2c11.2-6.4,24.2-9.6,39.1-9.6s27.9,3.2,39.1,9.6
			c11.2,6.4,19.8,15.5,25.8,27.2c6,11.7,9,25.3,9,40.7c0,24.4-6.4,43.3-19.3,56.8c-12.8,13.5-31,20.2-54.5,20.2s-41.7-6.7-54.5-20.2
			C2688.2,1017.6,2681.8,998.6,2681.8,974.3z M2806.5,974.7c0-18.9-4.5-33.4-13.6-43.6c-9.1-10.2-21.5-15.3-37.2-15.3
			c-15.7,0-28.1,5.1-37.2,15.3c-9.1,10.2-13.6,24.7-13.6,43.6c0,18.3,4.5,32.5,13.5,42.6c9,10.1,21.5,15.2,37.3,15.2
			s28.3-5.1,37.3-15.2C2802,1007.2,2806.5,993,2806.5,974.7z"/>
		<path class="st5" d="M2984.6,969.7v79h-17.3l-0.6-61h-3.9c-2,42.4-19.6,63.6-52.8,63.6c-12.8,0-24-3.1-33.3-9.2
			c-9.4-6.1-16.6-14.8-21.5-26.1c-5-11.3-7.5-24.5-7.5-39.6c0-16,3-30,9.1-42c6.1-12,14.7-21.2,26-27.8c11.3-6.6,24.5-9.8,39.8-9.8
			c17.6,0,31.8,4.1,42.6,12.4c10.8,8.3,16.8,19.9,18,34.7l-18,4.1c-3.6-21.6-17.8-32.5-42.6-32.5c-10.7,0-19.9,2.5-27.8,7.5
			c-7.9,5-13.9,12-18,21.1c-4.1,9.1-6.2,19.6-6.2,31.4c0,18,3.9,32,11.7,42c7.8,10,18.8,14.9,32.9,14.9c12.7,0,22-4.4,27.8-13.3
			c5.8-8.9,9.5-19.4,10.9-31.5h-37v-18L2984.6,969.7L2984.6,969.7z"/>
		<path class="st5" d="M3017.1,1048.7V899.4h22.1v149.3H3017.1z"/>
		<path class="st5" d="M3098,1029.4h80.1v19.3H3076V899.4h99.1v18.8H3098V963h68l-1.3,18.8H3098V1029.4z"/>
		<path class="st5" d="M3193.9,1002.2l17.7-8.4c2.2,12.3,7.2,21.8,15,28.6c7.9,6.8,17.6,10.2,29.1,10.2c11,0,19.7-2.2,26.2-6.7
			c6.5-4.5,9.7-10.7,9.7-18.8c0-6.2-1.8-11-5.3-14.4c-3.5-3.4-8.2-5.8-14-7.4c-5.8-1.5-13.6-2.8-23.6-4c-16.2-2-29.2-6-39.1-12
			c-9.9-6-14.8-15.8-14.8-29.3c0-8.7,2.3-16.2,6.8-22.6c4.5-6.4,11-11.4,19.5-14.9c8.4-3.5,18.3-5.3,29.5-5.3
			c36.5,0,56.2,15.3,59.1,45.9l-17.7,5.4c-1.9-11.1-5.8-19.4-11.9-25s-15.9-8.3-29.4-8.3c-10,0-18.1,1.9-24.5,5.8
			c-6.3,3.9-9.5,9.4-9.5,16.4c0,5.8,1.9,10.3,5.8,13.6c3.9,3.3,8.9,5.7,14.9,7.3c6.1,1.5,13.7,2.8,22.9,4
			c10.7,1.4,19.7,3.5,27.2,6.1c7.4,2.6,13.6,6.8,18.4,12.7c4.8,5.8,7.3,13.9,7.3,24.1c0,9.4-2.5,17.6-7.5,24.6
			c-5,7-11.8,12.4-20.3,16.1s-18.2,5.6-28.9,5.6c-16.4,0-30.4-4.3-41.9-13C3203.3,1029.7,3196.4,1017.6,3193.9,1002.2z"/>
	</g>
	<g>
		<g>
			<path class="st2" d="M1729.9,745.1C1692.8,708,1674,662.3,1674,608c0-54.3,18.8-100,55.9-136.6c37.1-37.1,83.9-55.4,139.8-55.4
				c47.3,0,88.7,14,123.7,41.4c34.9,27.4,57.5,63.4,67.2,107h-79c-17.2-45.7-60.2-76.9-111.8-76.9c-33.9,0-62.4,11.3-85.5,34.4
				c-23.1,23.1-34.4,51.6-34.4,86c0,34.4,11.3,62.9,34.4,86c23.1,23.1,51.6,34.4,85.5,34.4c51.6,0,94.6-31.2,111.8-76.9h79
				c-9.7,43.6-32.3,79.6-67.2,107C1958.4,786,1917,800,1869.7,800C1813.8,800,1767,781.7,1729.9,745.1z"/>
			<path class="st2" d="M2153,745.1c-37.1-37.1-55.9-82.8-55.9-137.1c0-54.3,18.8-100,55.9-136.6c37.1-37.1,83.9-55.4,139.8-55.4
				c55.4,0,102.2,18.3,139.3,55.4c37.6,36.6,56.5,82.3,56.5,136.6c0,54.3-18.8,100-56.5,137.1c-37.1,36.6-83.9,54.8-139.3,54.8
				C2236.9,800,2190.1,781.7,2153,745.1z M2292.8,728.5c33.9,0,62.4-11.3,84.9-34.4c23.1-23.1,34.4-51.6,34.4-86
				c0-34.4-11.3-62.9-34.4-86c-22.6-23.1-51.1-34.4-84.9-34.4s-62.4,11.3-85.5,34.4c-23.1,23.1-34.4,51.6-34.4,86
				c0,34.4,11.3,62.9,34.4,86C2230.5,717.2,2259,728.5,2292.8,728.5z"/>
			<path class="st2" d="M2690.2,422.5c54.3,0,98.9,17.7,134.9,53.2c36,34.9,54.3,79,54.3,132.3c0,53.2-18.3,97.3-54.3,132.8
				c-36,34.9-80.6,52.7-134.9,52.7H2545v-371L2690.2,422.5L2690.2,422.5z M2688.6,723.6c32.8,0,59.7-10.8,81.7-32.8
				c22-22,32.8-50,32.8-82.8c0-32.8-10.8-60.2-32.8-82.3c-22-22-48.9-33.3-81.7-33.3h-69.4v231.2H2688.6z"/>
			<path class="st2" d="M3079.4,492.4h-46.2v231.2h46.2v69.9h-167.2v-69.9h46.8V492.4h-46.8v-69.9h167.2V492.4z"/>
			<path class="st2" d="M3380,422.5h74.2v371h-75.3L3210.1,550v243.6h-74.2v-371h75.3L3380,666.1V422.5z"/>
			<path class="st2" d="M3733.2,492.4h-129.6v83.3h108.1v69.9h-108.1v147.9h-74.2v-371h203.8V492.4z"/>
			<path class="st2" d="M3818.7,745.1c-37.1-37.1-55.9-82.8-55.9-137.1c0-54.3,18.8-100,55.9-136.6c37.1-37.1,83.9-55.4,139.8-55.4
				c55.4,0,102.2,18.3,139.3,55.4c37.6,36.6,56.5,82.3,56.5,136.6c0,54.3-18.8,100-56.5,137.1c-37.1,36.6-83.9,54.8-139.3,54.8
				C3902.6,800,3855.8,781.7,3818.7,745.1z M3958.5,728.5c33.9,0,62.4-11.3,84.9-34.4c23.1-23.1,34.4-51.6,34.4-86
				c0-34.4-11.3-62.9-34.4-86c-22.6-23.1-51.1-34.4-84.9-34.4s-62.4,11.3-85.5,34.4c-23.1,23.1-34.4,51.6-34.4,86
				c0,34.4,11.3,62.9,34.4,86C3896.2,717.2,3924.7,728.5,3958.5,728.5z"/>
			<path class="st2" d="M4523.1,793.5h-91.4l-95.2-135l-95.2,135h-90.9l135.5-186l-133.3-185h91.4l93.6,133.3l92.5-133.3h90.9
				l-133.3,185L4523.1,793.5z"/>
		</g>
	</g>
	<path class="st5" d="M3392.6,963h1130.8v22.1H3392.6V963z"/>
</g>
</svg>
